<mxfile host="app.diagrams.net" modified="2024-03-19T17:16:18.256Z" agent="Mozilla/5.0 (Windows NT 10.0; Win64; x64) AppleWebKit/537.36 (KHTML, like Gecko) Chrome/122.0.0.0 Safari/537.36" etag="nArGCHCt_gdUMUMtKao0" version="24.0.6" type="device">
  <diagram name="Page-1" id="grrIEhJVtTg6G5j8j_Sh">
    <mxGraphModel dx="1332" dy="434" grid="1" gridSize="10" guides="1" tooltips="1" connect="1" arrows="1" fold="1" page="1" pageScale="1" pageWidth="850" pageHeight="1100" math="0" shadow="0">
      <root>
        <mxCell id="0" />
        <mxCell id="1" parent="0" />
        <mxCell id="1LsLTrdkqBlk61Usvhi6-21" value="" style="rounded=0;whiteSpace=wrap;html=1;fillColor=none;" parent="1" vertex="1">
          <mxGeometry x="457" y="272" width="710" height="320" as="geometry" />
        </mxCell>
        <mxCell id="k_Tzoq2cm3bDXthg7v0j-70" value="" style="ellipse;whiteSpace=wrap;html=1;aspect=fixed;fillColor=#d5e8d4;strokeColor=#82b366;" parent="1" vertex="1">
          <mxGeometry x="171" y="220" width="29" height="29" as="geometry" />
        </mxCell>
        <mxCell id="k_Tzoq2cm3bDXthg7v0j-71" value="" style="ellipse;whiteSpace=wrap;html=1;aspect=fixed;fillColor=#d5e8d4;strokeColor=#82b366;" parent="1" vertex="1">
          <mxGeometry x="475" y="332" width="35" height="35" as="geometry" />
        </mxCell>
        <mxCell id="k_Tzoq2cm3bDXthg7v0j-72" value="" style="ellipse;whiteSpace=wrap;html=1;aspect=fixed;fillColor=#d5e8d4;strokeColor=#82b366;" parent="1" vertex="1">
          <mxGeometry x="693.02" y="328.18" width="28.64" height="28.64" as="geometry" />
        </mxCell>
        <mxCell id="k_Tzoq2cm3bDXthg7v0j-2" value="" style="rounded=0;whiteSpace=wrap;html=1;direction=west;" parent="1" vertex="1">
          <mxGeometry x="652.26" y="392" width="317.74" height="180" as="geometry" />
        </mxCell>
        <mxCell id="1LsLTrdkqBlk61Usvhi6-9" style="edgeStyle=orthogonalEdgeStyle;rounded=0;orthogonalLoop=1;jettySize=auto;html=1;exitX=1;exitY=0.5;exitDx=0;exitDy=0;" parent="1" source="1LsLTrdkqBlk61Usvhi6-2" target="1LsLTrdkqBlk61Usvhi6-6" edge="1">
          <mxGeometry relative="1" as="geometry" />
        </mxCell>
        <mxCell id="1LsLTrdkqBlk61Usvhi6-2" value="" style="shape=image;verticalLabelPosition=bottom;labelBackgroundColor=default;verticalAlign=top;aspect=fixed;imageAspect=0;image=https://static.vecteezy.com/system/resources/previews/014/807/647/original/raw-data-line-icon-vector.jpg;" parent="1" vertex="1">
          <mxGeometry x="30" y="269.5" width="90" height="90" as="geometry" />
        </mxCell>
        <mxCell id="28UVXbpBZT2ZXDll-Aoi-5" style="edgeStyle=orthogonalEdgeStyle;rounded=0;orthogonalLoop=1;jettySize=auto;html=1;" parent="1" source="1LsLTrdkqBlk61Usvhi6-6" target="1LsLTrdkqBlk61Usvhi6-21" edge="1">
          <mxGeometry relative="1" as="geometry">
            <mxPoint x="460" y="472" as="targetPoint" />
            <Array as="points">
              <mxPoint x="380" y="317" />
              <mxPoint x="380" y="462" />
            </Array>
          </mxGeometry>
        </mxCell>
        <mxCell id="1LsLTrdkqBlk61Usvhi6-6" value="" style="shape=image;verticalLabelPosition=bottom;labelBackgroundColor=default;verticalAlign=top;aspect=fixed;imageAspect=0;image=https://www.logo.wine/a/logo/Google_Storage/Google_Storage-Logo.wine.svg;clipPath=inset(12.5% 23.33% 13.5% 21.67%);" parent="1" vertex="1">
          <mxGeometry x="200" y="272" width="94.76" height="85" as="geometry" />
        </mxCell>
        <mxCell id="1LsLTrdkqBlk61Usvhi6-14" value="Raw data" style="text;html=1;align=center;verticalAlign=middle;resizable=0;points=[];autosize=1;strokeColor=none;fillColor=none;" parent="1" vertex="1">
          <mxGeometry x="40" y="357" width="70" height="30" as="geometry" />
        </mxCell>
        <mxCell id="1LsLTrdkqBlk61Usvhi6-15" value="Google Cloud storage" style="text;html=1;align=center;verticalAlign=middle;whiteSpace=wrap;rounded=0;" parent="1" vertex="1">
          <mxGeometry x="210" y="362" width="85" height="30" as="geometry" />
        </mxCell>
        <mxCell id="28wqMm9d6mI3IJT4Ih76-49" value="" style="edgeStyle=orthogonalEdgeStyle;rounded=0;orthogonalLoop=1;jettySize=auto;html=1;" parent="1" edge="1">
          <mxGeometry relative="1" as="geometry">
            <mxPoint x="1138" y="711" as="sourcePoint" />
            <mxPoint x="1248" y="710.5999999999999" as="targetPoint" />
          </mxGeometry>
        </mxCell>
        <mxCell id="28wqMm9d6mI3IJT4Ih76-2" value="Google Big Query" style="text;html=1;align=center;verticalAlign=middle;whiteSpace=wrap;rounded=0;" parent="1" vertex="1">
          <mxGeometry x="500" y="535" width="60" height="30" as="geometry" />
        </mxCell>
        <mxCell id="28wqMm9d6mI3IJT4Ih76-3" value="" style="shape=image;verticalLabelPosition=bottom;labelBackgroundColor=default;verticalAlign=top;aspect=fixed;imageAspect=0;image=https://upload.wikimedia.org/wikipedia/commons/0/03/Dataproc-128px-Retina.png;" parent="1" vertex="1">
          <mxGeometry x="770" y="396.35" width="46.26" height="46.26" as="geometry" />
        </mxCell>
        <mxCell id="28UVXbpBZT2ZXDll-Aoi-1" value="" style="shape=image;imageAspect=0;aspect=fixed;verticalLabelPosition=bottom;verticalAlign=top;image=data:image/png,iVBORw0KGgoAAAANSUhEUgAAAQAAAAEACAYAAABccqhmAAAABHNCSVQICAgIfAhkiAAAFqdJREFUeJzt3V9sVFdiBvDv3PEfyJjY2W0Ws0piUGClPKQYVa2U7qZjW2raXTUNpWkfulHj0Dy1CmGzUiPwEpvgMd2HRmRRXqINASn0ZWnKKtqkWrXAFHcj9SE42lUjFdKAUhVTdjcGewBjzz198AxcLvbM/X/OPef7PeWP587BzPnmzP3m3gMQEREREREREREREREREREREREREREREVGeCNUDyJNSudoP1+1RPQ5qrrJnzSnVY8gLBoBPaVT2oPP6gCPlAOD2C4iS6jFRdBKyAjhTrhCnML/6VGWvmFE9Jp0wAOpK+2YHHCF2CoGnVI+F0iMljrhSHuYqYYn1AVDaNzvgOBjjO71dJGTFdTFmexBYGwClUdnjtFcP8x3fblLix+5CcdjWjwZWBkBp3+xAwRHHAXSrHgtp4UrNlVttXA04qgeQtaFydbjgiJPg5KfbuguOODlUrg6rHkjWrFoBLP0Fy7dVj4N0Jp47MVI8rHoUWbEmADj5KTh7QsCKAChNXNtakO4/qR4H5UdNOH9S2X3PcdXjSJvxAVDaf319wa1NgZ/5KZwrNafQX9m1+rzqgaTJ+JOAjrt4GJz8FF53/bVjNKMDYKhcHeYXfCgqAVEyvRkw9iNAaVT2FDqq58F3f4rnSu1mcb2pXxQydgXgdMztBCc/xdddfy0ZycgVQP3E32eqx0HmqDmFDSaeEDRyBeDUagdUj4HMYupryrgVQP17/idVj4PMU3PloGnXCxi3AigIcVj1GMhMjhDGrQKMCoCh8bmdEOhTPQ4ykxDYPDRu1glBYz4CsPajjBhVCxqzAnA6ro2Bk5/S111/rRnBiBUAaz/Kmim1oBErABu+s016MeU1l/sAKE1c28rv+1PWBESptG92QPU44sp9ABRc17hqhvLBhMo51wEwWJ4dY+1Hygj05b0WzO1JQNZ+pIlc14K5XQE47dUD4OQn9XJdC+ZyBVAqV/sLkGdUj4OooQaxpTJSnFI9jrByuQJwwBN/pJe8viZzFwCs/UhHAqJUmri2VfU4wspVAJRGZQ9rP9JVHl+buQoAp4NX+5HGBPoGy7NjqocRRm5OAvL+/pQTuaoFc7MCcGq1MXDyk/666xV1LuRiBcDbfFHe5KUWzMUKwHEwpnoMRGHkpRbUPgC4uw/lUV5qQa0/ApRGZU+hvTrFM/+USxIXagvFfp1PCGq9AmDtR7km0Kf7rkLargB4my8yhNbbjGu7AjB1JxayTne9wtaSlisA1n5kGl13FdJyBWDiDixkN12rbO0CYKhcHRYCm1WPgyhJAqI0VK4Oqx6Hn1YfAXibLzKahrWgVisA7u5DRtOwFtRmBcDajyyhVS2ozQrAlJ1WiFro1qni1mIFwNqPbKNLLajFCsCEHVaIwtCl6lYeAEPj/L4/2UcIbNahFlT6EYC1H1lO+e3DlK4AWPuR5bpV14LKVgDc3YdoSc0pbFBVCypbAeTllklEaVNZCyoJAO7uQ3SbEHiqtG92QMVzKwmAPO6gQpQmVVV45gEwWJ4dY+1H5CPQNzSe/QnBTE8CsvYjairzWjDTFUB9xxROfqLldder8cxktgLg9/2JgsmyFsxsBaDrLZGIdJPllbGZBIDtu/v0dmtx0WWu2Pw7ExClrGrB1AOgNCp7IOVY2s+jq5ef7MSbz6/GxrXKr7vKjY1rHbz5/Gq8/GSn6qEok1UtmPqr0ubdfV5+shNPPNqGYqfAa8+sYggEsHGtg9eeWYVip8ATj7bZGwIZ1YKprrPqt/magoVn/huT36s6L/HSOzdw7pKraFR6805+r5/+fBHff29e0aiUSr0WTPUtqb4jCid/HVcCK1tp8gOweSXQXa/OU5PaCsDW2m+lye/FlcCdmk1+L1tXAjWILZWR4lQax07trUiXWx5lKcjkB7gS8Ao6+QF7VwJpXjmbyivQxt19gk7+BoZAuMnfYGMICIhSaeLa1jSOnfirrzQqewBp1bt/2MnfYHMIRJn8DTaGQFpX0Cb+yqvf4siaE39RJ3+DjSEQZ/I3WBcCAn2D5dmx5A+bINt294k7+b1sOTGYxOT3suzEYOK1YKJvOzrteJK2JCc/sLQS+Ovf7wCkTOyYOnr16eQmP2DdSiDxWjCxACjtmx0QAk8ldTydJT35AeDTSzXsfucyFudnjQ6BV47dQHU+2T+fTSEgBJ4tlav9SR0vsQCwZXefNCb/uekFvPDDS5i9vggpa0aHwLlLLl56hyEQR5K1YCIBYMvuPmlN/h1vXcbcjduf/RkC0dgSAgKilNSuQrE/jNlym6+sJr+XEAW0da4BhJmXxiZ9QrDBihODEhdqC8X+uCcEY68AbNjdR8XkB7gSiMqKlYBAXxK7CsWKXhtqP1WT34srgWgsWAlcqTmF/ji3D4u1Asjy1kUq6DD5Aa4EorJgJdBdv+I2ssiRa/rVfrpMfi+uBKIxfSVQc+VgZc+aU1EeG3kFYHLtp+PkB7gSiMr0lUCcG+5GCgCTd/fRdfI3MASiMTkE4tSCoQOgNCp7BITSPc3TpPPkb2AIRPPEo21wazcTPaY2pBxbuhI3nNABwN19gktj8jcwBKKp3azCXTTwfEDEWjBUAJTK1X4h8GzYJ7FRmpO/gSEQTW3hmpEhICBGS/uvrw/zmFABkOatiUySxeRvYAhEY2oIhL0iN3AAlCaubbV5d5+gspz8DQyBaEwMASHwVJhdhQIFQGlU9qR1SyLTZD35G2wJgaSZGAJhbsgbKABs3t0nLBWTv8GGEEiDaSEgBDYHrQVbBkBp//X1Jtd+pjE9BNJiWggA8kCQWrBlANi6u0+eMQSiMSwEuoPUgk0DoH6bL9Z+OcQQiMakEAhSCzYNgDjfMSb1GALRmBQCrWrBFQNgqFwdZu2XfwyBaEwJgVa14LIBUBqVPZByLK1BUbYYAtGYEgLNrtxdNgBY+5mHIRCNESEg0Dc0vvwJwbsCoF77jaY/KsoaQyAaQ0Jg2asF7woAm3b3sRFDIBoDQqC7fgPfO9wRADbt7mMzhkA0eQ8BAfmivxa8IwDCfIeY8o0hEE3eQ8B/I99bATBUrg4Lgc2Zj4iUYQhEk+cQEBAlby14ewXA2s9KDIFo8hwC3i/4OcDSuz9rP3sxBKLJawh4VwEOAEgptyodESnHEIgmryHgCDEMAG2lUdkjRJVn/jXTtcrB44+sRu99BWzqbcfZ6QVMf1HDmc/mMT2zGOvYm9a14xuPrMa6nqU7IF+cWcTkJ9dx9uICFudnI28+0tstsLmvgN5uBw+vdfDpJRfTV1z8+3/VMHfD3GCpLVwDADht+bnteP0iv+G2Qsc1vvtr5rmhe/Hnj3WhuOr2KZpvPLL61j8f+3AOh05cDX3zkS0bOvHCt3qwsbf97uccvBfTMzXsf/fXmDofLgS6Vgk8+3g7tv32ncf9+tcKAIDqvMQ//scijpw29JbcyGcIlCaubXWklAOqB0JLulY5OPQ3a/Hc4L13TH6/px/rwg/+6n50NfkZv29uKeL17fcvO/kbensKeH37/fjD/lWBPw50rRJ47ZlVd01+r2KnwF8+3o43n1+NrlVmbmsG5O/jgCPlgAMh16seCC3Zve2+phPUa2NvOya+/eVAP7tlQyd2bbsv8Dh2bbsP/evbAoXAq0934uGvBAuih7/i4G//KD/vkFHkKwTcfoeX/Ophy4bOO5b5QfSv78Q3txRb/twL3wq9YQx2bftSyxODf/Cbbdj8UCHUcb/+tQI294V7TN7kJQQERH+s7cEpOX/2WFe0x/1u88dtWtceeFXh1dtTwKZ17U1D4E9/J/xxAWDbb8H4tiEnIdDNANDElg3RlsatJnfYVcVyj10pBIIu/f22rO+wonLMQwgwADTR7KRfK83CY02M4zZqQuDuEIizjC+ucqz53oHuIcAAoMCSnrQMAfUYAJqoxthQ5MxnK7+4ZmMc9+IyXzhqTNqPz0f/MpL3z8oQUIsBoIlmk7iZc9MLTf//5CfXIx232WMbk/bTiDv1+P+sDAF1HAlZUT0IAn704Vy0x/2s+ePOXlxoGRLLmZ6p4ezFlR8nZQ0/+tnV0McFlv+zMgQUkLjgQIrzqsdBS++KYd+tp87P44Mz1ZY/d/D9mdDj2f/ur1v+zPsfzWHqfLgX8+Qn11dc7TAEsiWBKUcIcUr1QGjJxLtfBH63Pje9gN1HfxXoZ898No/9734ReBz73/0i8EeS3Ud/FWrMEy3GwRDIkJBTTu3mPcfVjoIa5m642P7GJbx98mrTk4LHPpwLvQ35B2eqePHQ5aaTdXqmhhcPXQ60qvCOecdbl3GsyUeY6g0Xb5+8iu1vXAo0ZoZANlw4xwUADI7PHefNQJf86+7WX61t5vf2/E8i41jucuC5Gy5O/+eNVC8HjqO3pw1bNnTedQnz6U+uR9o2XYjCXVcl6vL3k6RC+z3ZX0UoceHE97rWtwGAEOI4IBkAGpm74YZ6Jw7j7MWF2JN9OdMzi/jgTLxw8mqsBKLenyAvVFxKLIU8DNRrwBMjxcOQuJDZsxMFxI8D6XCdtsOA93sAQoxl9uxEITAEkiUljlR2rT4PeALgxEjxsJT4OPVnJ4rgVggYLoMQuOIWCmONf7njm4CulMtuIEikAylrqoeQiTRDQEIeaLz7A74AqOxZc0pK/DiVZyaiwFIJAYkL7s2uO3b/uutaALdQ4CqASAOJh4AQY5W94o6vhd4VAJVdq89LyL3JPSsRRZVUCEjIyomR4mH/f1/2asD6MuFK7GclotiSCAHXvb0dmNeyAbC0TBD8KECkiTghICWOVPasObXc/1vxfgCsBYn0EjEErrgLxRXfzJveEIS1IJFewoaAhDzgP/Hn1TQAWAsS6SdwCEhcODmyZqzZj7S8JRhrQSL9BAmBmuO0nLstA4C1IJGemoWAhKxUdre+10egm4KyFiTS00oh4KL1uz8QMABYCwYXZsdeCmfTumhbkZnOHwJS4khlpDgV5LGBX60nRoqHeQfh1sJu203BbFrXjh9sv1/1MLTlCYGmtZ9fqFfqSt8mots29rYzBBLWmPxxtk+zQW3hGmq1m683q/38Qv1G67XgkfBDswtDIDmc/CFIfF555UujYR4S+rdav5kATwi2wBCIj5M/HCnc7WEfE/o3W68FD7T+SWIIRMfJH46UmJwc7/uXsI+L9Nt1b3YdMPUmoj/9eXJ3tQUYAlGkNfn/+cy1RI+nlbaOZ6M8LNJvuLJXzJh6E9HvvzfPEFAozck/EWC7szwSEG9M7l3731EeG/m3bHItyBBQg5M/PAlcdRe79kR9fKzftMm1IEMgW5z80UiJfZN/1xN840ef2NutDI7PHRYCkT5/5MHLT3biiUfbEj3muemF0Hv7mYyTPyKJz0+XH3woziFi/8ZNrwW5EkgXJ390UWo/v9i/dRtqQYZAOjj5o4ta+/kl8ps3uRZsYAgki5M/poi1n18iv32Ta0EvhkAyOPnjERDlqLWfX2J/AybXgl4MgXg4+eOp135/n9TxEv1bMLkW9EorBCa+/eVEj6mj8l/8Bid/DMLFd+PUfn6J/k3YdLVg0iFQveHi4PuBr+LMrZF/+CWqCdafNk1+KeUvTk88+MMkj5n4mtP0WtArqRCo3nCx49BlnL24kMCo9Hb24gJ2HLqcSAjYNPkBAEJ+J+lDJh4ANtSCXnFDwKbJ35BECFg3+aX4SRK1n18qZ51sqAW9ooaAjZO/IU4IWDf5Aci29h1pHDeVALClFvQKGwI2T/6GKCFg4+RPsvbzS613sqUW9AoaApz8t4UJARsnf9K1n1+qxbMttaBXqxDg5L9bkBCwcfIDydd+dx0/rQM3mH614EqWu4qwekNix6H/4+RfwUpfErJ18kuJycnyg4+n+Rypf/XMplrQy78SqM5z8rey3ErA1skPABBu6lvypR4AttWCXo0QqM5L7HiLy/4gvCFg8+SXEkfTqP38Uv8IAAClUdlTaK9OQaAvi+fTzf3FefzvLw2+IWUKenvaMD2T7Net80ICV1Ho2JLWmX+vTK4+sbEW9Lo81wEhCqqHkSu2Tn4AcCAOZjH5l54rIzbWgrcIgbbONQwBak3i8zRrP79Mrz+1sRa8hSFAQUi8mmbt55fJOQAvW2vBW6TE4vwspKypHglpJovazy/zO1DYWgvewpUArSSD2s8v8wCwuRa8hSFAPlnVfn5K7kFl29WCy2IIUJ0ErqK25gUVz60kACp7xUzNcXaqeG6tMAQI9dovwxN/XpmfBPQaLM+eEhAllWPQAk8M2iuB3X3iUHobWhdcBQDgSsBiUoiXVD6/0gCojBSnbLmJaEsMAess7e7zwDGVY1B+I3p3obgTNteCXgwBqwhZeFH1GJQHQGWvmLG+FvRiCFhBShw9PfHVj1SPQ3kAAMDJkTVj1teCXgwBo6ms/fy0CAAAYC3owxAwlsraz09pDejHWnAZrAjNorj289NmBQCwFlwWVwJGkcLdrnoMXloFAGvBFTAEjLBU+2X/ff9mtAoAgLXgihgC+dfWod1l8NoFAGvBJhgCuSUg3sjqNl9haBcAAGvBphgCuVPf3WeP6nEsR8sAAFgLNsUQyBUpsU+X2s9PqxrQj7VgC6wI9adZ7een7QoAYC3YElcC2tOt9vPTOgBYCwbAENCWjrWfn9YBALAWDIQhoCcNaz8/7QOAtWBADAGtCIiyjrWfn/YBALAWDIwhoIV67ZfZ7j5x5CIAANaCgTEElBMuvqtr7eendQ3ox1owBFaESkgpfzFZfuhR1eMIKjcrAIC1YChcCagh5HdUDyGMXAUAa8GQGALZkuInutd+frkKAIC1YGgMgczItvYdqscQVu4CgLVgBAyB1OWl9vPLXQAArAUjYQikJk+1n18uAwBgLRgJQyAVear9/HJVA/qxFoyIFWFipMTkZPnBx1WPI6rcrgAA1oKRcSWQHOHuVT2EOHIdAKwFY2AIxCYljuat9vPLdQAArAVjYQhEJoGraOt4RfU44sp9ALAWjIkhEIkDcTCPtZ9f7gMAYC0YG0MgHInP81r7+RkRAABrwdgYAsFJvJrX2s8v1zWgH2vBBLAibCrvtZ+fMSsAAHCdtmHVY8g9rgSay3nt52dUAFR2rT4vIV5XPY7cYwgsy4Taz8+oAAAA9+Y9Y2AtGB9D4A4SuIramhdUjyNpxgVAZa+YgcSY6nEYgSFwiwNx0JQTf15GnQT0GhqfOw+BPtXjMILtJwY1390nDuNWAA01KYdVj8EYlq8EpBAvqR5DWoxdAQCsBRNn4UrAtNrPz9gVAMBaMHEWrgSELLyoegxpMjoAlmpBaVRvq5xFISAgyqcnvvqR6nGkyeiPAA2D43NTQmCz6nEYxfCPA3m7v39URq8AGtyF4gD43YBkGbwSWLrUt/Mp1ePIghUBUNkrZmoQA2AIJMvAEJDAVeEWBk241DcIKz4CNJTK1f4C5CkA3arHYhRDPg40Jr/pn/u9rFgBNFRGilM1iAHeOyBhBqwEbJz8gGUrgIbSqOxxOuaO8zsCCcvpSkBKTKK25o9N/KpvK1YGQMPQ+NxOCIyBHwmSk6MQkMBVB+Lgv40/8D3VY1HF6gAAgNL+6+udWm1MCDyreizGyEEISImjaOt4xZaTfSuxPgAaSvuvr3dcd6eAHAZXBPFpGAISuAqJ9zjxb2MALKO0b3bAcZytgNsvIPrBQIhGgxCQEpOOEB+7wKnJ8QeOKRsIEREREREREREREREREREREREREREREREREVEc/w/y4bVYqY0/TwAAAABJRU5ErkJggg==;" parent="1" vertex="1">
          <mxGeometry x="200" y="454.3" width="87.29" height="87.29" as="geometry" />
        </mxCell>
        <mxCell id="28UVXbpBZT2ZXDll-Aoi-2" value="Cloud Function&lt;div&gt;&lt;br/&gt;&lt;/div&gt;" style="text;html=1;align=center;verticalAlign=middle;resizable=0;points=[];autosize=1;strokeColor=none;fillColor=none;" parent="1" vertex="1">
          <mxGeometry x="200" y="541.5899999999999" width="100" height="40" as="geometry" />
        </mxCell>
        <mxCell id="28UVXbpBZT2ZXDll-Aoi-9" value="triggers a cloud functions&amp;nbsp;" style="text;strokeColor=none;align=center;fillColor=none;html=1;verticalAlign=middle;whiteSpace=wrap;rounded=0;" parent="1" vertex="1">
          <mxGeometry x="167.2" y="424.3" width="139.8" height="30" as="geometry" />
        </mxCell>
        <mxCell id="28UVXbpBZT2ZXDll-Aoi-12" style="edgeStyle=orthogonalEdgeStyle;rounded=0;orthogonalLoop=1;jettySize=auto;html=1;" parent="1" edge="1">
          <mxGeometry relative="1" as="geometry">
            <mxPoint x="300" y="502" as="sourcePoint" />
            <mxPoint x="430" y="502" as="targetPoint" />
            <Array as="points">
              <mxPoint x="300" y="502" />
            </Array>
          </mxGeometry>
        </mxCell>
        <mxCell id="28UVXbpBZT2ZXDll-Aoi-14" value="trigger Airflow DAG&lt;div&gt;&lt;br/&gt;&lt;/div&gt;" style="text;strokeColor=none;align=center;fillColor=none;html=1;verticalAlign=middle;whiteSpace=wrap;rounded=0;" parent="1" vertex="1">
          <mxGeometry x="300" y="502" width="130" height="30" as="geometry" />
        </mxCell>
        <mxCell id="28wqMm9d6mI3IJT4Ih76-18" value="" style="shape=image;verticalLabelPosition=bottom;labelBackgroundColor=default;verticalAlign=top;aspect=fixed;imageAspect=0;image=data:image/png,iVBORw0KGgoAAAANSUhEUgAAAusAAALJCAYAAAANnW0AAAAgAElEQVR4AeydZ3hUVff2UYrU0KtSQpOASlEfqooUFVCqhV6UoghSFVQQVMAOiAioqPQqvffeO6FLbxI66N+v673ujfPuGJPMJLNPnftDrkmZnDln7Xuv/TvrrL1Wmr/++lv4RRtQA9QANUANUAPUADVADVAD7tNAGg6K+waFY8IxoQaoAWqAGqAGqAFqgBqABgjrfLLAJyvUADVADVAD1AA1QA1QAy7VAGHdpQPDu2neTVMD1AA1QA1QA9QANUANENYJ67yTpgaoAWqAGqAGqAFqgBpwqQYI6y4dGN5J806aGqAGqAFqgBqgBqgBaoCwTljnnTQ1QA1QA9QANUANUAPUgEs1QFh36cDwTpp30tQANUANUAPUADVADVADhHXCOu+kqQFqgBqgBqgBaoAaoAZcqgHCuksHhnfSvJOmBqgBaoAaoAaoAWqAGiCsE9Z5J00NUAPUADVADVAD1AA14FINENZdOjC8k+adNDVADVAD1AA1QA1QA9QAYZ2wzjtpaoAaoAaoAWqAGqAGqAGXaoCw7tKB4Z0076SpAWqAGqAGqAFqgBqgBgjrhHXeSVMD1AA1QA1QA9QANUANuFQDhHWXDgzvpHknTQ1QA9QANUANUAPUADVAWCes806aGqAGqAFqgBqgBqgBasClGiCsu3RgeCfNO2lqgBqgBqgBaoAaoAaoAcI6YZ130tQANUANUAPUADVADVADLtUAYd2lA8M7ad5JUwPUADVADVAD1AA1QA0Q1gnrvJOmBqgBaoAaoAaoAWqAGnCpBgjrLh0Y3knzTpoaoAaoAWqAGqAGqAFqgLBOWOedNDVADVAD1AA1QA1QA9SASzVAWHfpwPBOmnfS1AA1QA1QA9QANUANUAOEdcI676SpAWqAGqAGqAFqgBqgBlyqAcK6SweGd9K8k6YGqAFqgBqgBqgBaoAaIKwT1nknTQ1QA9QANUANUAPUADXgUg0Q1l06MLyT5p00NUANUAPUADVADVAD1ABhnbDOO2lqgBqgBqgBaoAaoAaoAZdqgLDu0oHhnTTvpKkBaoAaoAaoAWqAGqAGCOuEdd5JUwPUADVADVAD1AA1QA24VAOEdZcODO+keSdNDVAD1AA1QA1QA9QANUBYJ6zzTpoaoAaoAWqAGqAGqAFqwKUaIKy7dGB4J807aWqAGqAG3KmBu3f/kqtXr8upU2dk3779snHjZlm5cpUsWrRY5syZJ7Nnz/Hl1/TpM2Xy5Cmu+po0abL88suvMn78z/LTT+Nd9/XrrxNk4sRJ/7HZlClTBfacNes3mTlztuBnnP/IkaPk66+/kW++GS7jxv0gCxcukv37D0hc3DWB7ugT3OkTrB4XwjphnZOfGqAGqAFqIBkN3Lp1R+LirsqZM+fk6NHjsmfPXlmzZq1MmzZdhg8fIe+//4F07fq2tGvXXl555VVp2rSZNGnS1HdfDRo0kDp16rjqq1at2lK9eg2pXLmKVK5c2WVfVeSpp56WZ5+t9R+b1a1bV1588UVp3LiJNGzYSPAzzr9UqdJSpEgRKVq0qFSqVEnatm0nI0d+K6tWrZaDB2Pl/PmLcvv2Xc7XZOar1eDsxPEJ6xE24E6IjJ8ZmZEAjjvH3S8aOH36rKxevUaBeceOnRR8lStXTqKji0vhwoWlQIECkjdvXsmdO7fkzJlTcuTI4cuv7NmzS7ZsUa77ypIlq9z7yiJZsrjpK6tkzZotUXtFRUUJ7BnQCuyKa8iYMaNkyJBBfeFaoCnAe0xMjLRo0VLGjh0nZ8+elz///D8CewTxG2E9ggbbLwsnr4MQSA1QA1ZqACCEFJc1a9bJjz/+JP37vy/Nm7eQGjWekhIlSgpAK23atJImTRp+0Qa2aOD+++9XN4b169eXb7/9Tnbv3kNYjyB+I6xH0GBbubjx2IQnaoAa8LoGbt68LZcu/SGxsYdVPnGvXr3lySefVNFNgjlvTNygAUTfkfYzYsRI+f33U4IULa/PO55/8LWDsE5Y50SnBqgBaoAa+OtvOX78d7Xhr02btipfOH/+/CqtIl26dLZET90AgzwHd9+U4IkOgL1ateoycOBHCtgJu8Fh1+s2IqxzkeYiTQ1QA9RAxGrgzp0/5cKFS7J06TL55JNP1Wa/YsWKSebMmQnoTHFxrQZy5colVapUlaFDh8nWrdsjdv56HcJDPX/COhdpTnJqgBqgBiJOA8hLRwrByZOnZcmSpYKNo2XKxMh9993nWkBj1NvdUW+7xydTpkyCjc6ffjpEjh07IUjjChX++D5vReMJ61ykObmpAWqAGog4DQDUUeVl1KjRUrPms1KoUCFVicNu4OLnEcBTqwFsOgWwV6hQQXr27KWAnRDuLQgPdbwI61ykI26RDnVy8H3+dHocV44rGszs3btPPvvsc3nuuedUuUXmpROaUwvNTv8fyj6WL19eBgwYqBp0sayj/3wcYZ2wTlinBqgBaiAiNACIQaoAmhqh/N2jjz7K3HTmpfsi7emBBx4Q7LX48MMBcuTIMblx41ZEzOlICb4Q1rlIc0JTA9QANRARGgCoo+ILcnyR64uqGkglcDoyys9nVD9cDWCvBYAdzZM6d+4ihw8fZeMkH/l1wrqPBjNS7jB5nf57xMcx5ZharQHkqB89ely+/PIrlaOOXF+COiE5XEh22/+j6yk2Svfr11/Wrl0vd+/+FRE34lb7D6ePT1gnrHMiUwPUADXgew2gI+nMmbOlcuUqqv272yCL58MbB1MaSJ8+vRQsWFDee6+favB1/fpNRtk97uMJ6x4fQKfv9vj5jIhSA9SA2zWAXPUZM2ZJo0aNJU+ePILGMqbAiMchZLtNA0iJAbCXKlVaOnToILGxhxhh9zjrEdY9PoBuXyR5fgQ5aoAacFID167dkJ07d0vv3n2kcOHCkiFDBoI6N5VGhAaQ6lWyZCnp06evrF69RtAAjJVivOmPCeuEdd8//nYSFPjZ3nSMHDd/jBvyddH0aPjwEfLUU09HBKC5LcrL83H2yQMi7Pny5VPAfvBgrDAlxpu+jbBOWCesUwPUADXgSw1cvXpd1Z2uU6eOoD07wdFZcKT97bd/ICWmePES0rZtOzlw4KCKsDMg4S1oJ6xzkfblIk1H5C1HxPHieFmhgd2798gXX3wp0dHFhU2P7AdFwrl7bJ4xY0YBsPfq1VtWrVrNlBiPsR9h3WMDZsWCxmMSlKgBasBPGkBeLvJzp06dJvXr15eoqChG1ZmnHvEawA0rNlgD2BFhx34O5rB7w/cT1gnrjKxTA9QANeArDQDUL1++IgMHfqTghFF190R4GW13biyQEoO5gCdNrVu3kX379svt23d9Nff9FHSIfy2EdS7SnKjUADVADfhKA3FxV1X1i5YtW6kyjYAUQqJzkEjbu8v26HQKYO/Ro6esXLlKATsj7O6OsBPWuUj7apGOfyfK793tfDg+HB+rNHD69Fn5/PMvpGrVapZDOrqgZs6cWW1gLVSokBQpUkSKFSsm0dHR/KINlAagifz586va5265cUGEPXfu3NKzZy/Zv/8AU2JczoKEdZcPkFWLGY9LUKIGqAG/auDQoSPy6quvyYMPPmg5rKO9e4UKFaRFi5by0UeDZPToMfLrrxNk8uQp/KINlAagCUAxgN0tsB4/JaZVq9ZMiXE5CxLWXT5Afl1MeV0ERWqAGrBCA9g0t27dBqlcubKKeFsBR4hK5siRQ6pXryFvv91NRo0aLfPmLZCtW7er9u7Hj/+u6rujxju/aIMdO3bJ2LHjpGjRoq6B9cC8YEqMN/wwYZ2wzjQYaoAaoAZ8owHA8ZQpU1VObgBITL4G0gfQZAllIdFo5saNW76xnxU3UJF+zDNnzsn06TMt02S4+oam0YcAOexMiXEnvBPWuUhzkaEGqAFqwDca2LZthwwe/LEgfzxciEns//PmzStosjR79hxBBB2gzs157gQct9wkuB3WE6bEANhZJcZdmiasc5H2zSLtFsfM83CXk+N4RNZ4LFmyVN544w1VsjEx2E7t7wA0SBl4/vnnVUoDIvgEmsjSVmp9CWB9xoxZqilRavVnx//FT4lZsWKl3Lp1hzeiLmFEwrpLBiK1ToD/x8WCGqAGqAGtATRCeuGFF4w3QsqQIYMULlxYRe3Pn79IUOfaGXKg6+zZ8zJz5mzXwzpuCOKnxOzdu49VYlyic8K6SwaCi61ebGkL2oIaoAZSq4Fx436QSpUqGd9cipxe1G2fM2ce61Jz3QwZ1KFjL8G6TomJFlaJcY8fJqzT6aTI6aR2AeX/uWfScyw4Fn7WwPDhI1SdczzSN5k6gKj6yJHfqjbtfrYfr828fwCsz5r1myci64E5cy8lJlptOkVKDFK+uDfDvDZCnW+EdcI6YZ0aoAaoAd9oYMiQoZIzZ071OD8AHuG+ovFRTEyM6vYYF3fNN7YKFRT4vvAg7dy5C56DdcyZ+Ckx+/btZ0qMg+sEYd1B49MBhucAaT/ajxqgBhJqYNCgwZIxY0YBYIcL6YH/z5Ilq6qpvmvXHrl79y/COtfNFGkAexx++22upyLr0H7ClBhWiXHO3xLW6XRS5HQSLoz82bnJS9vT9tTAfzXw4YcDJG3atAo0ArAd7ivasterV0/VVKfN/2tz2iR5m1y4cEnmzp0vJUqUNHYDGa6mU/L/8avErFy5iikxDnAjYd0Bo9OxJe/YaB/ahxqgBlKrgQ8++NA4EBUoUECaNGmqupOm9rz4f5Gr6YsXL6sOt16FdYA9U2Kc1S9hnbDOyDo1QA1QA77RAGHdWajgTcl/7Q9Ynz9/oWcj64D1QEpMsWLFpEWLloKyjqjDzvH+73hbYRPCOhdpTjZqgBqgBnyjAStgvWDBgoysc46keo5cuvSHLFjgbVgPpM2g3wCAvXv3d2T58hVsnGTTvCCs22RoK+60eEx77mhpZ9qZGvCOBgjr3hmrSJlXgPWFCxdJyZKljKdoIeKNrwBM2/GKPSE5cuRQwM7GSfbMN8I6YT3V0YJIcbS8TnucEe1MO5vQAGGdOjKhI5PHuHz5iixevMQ4rAPSEelGPrkdkB74DHwugD06Olo1CkNZR9RhN2kzHuvf85iwTljnBKMGqAFqwDcaIKz/e5En9Dhvjz/+uCJLliw1Duvp06cXpGiVKRMj5cqVk0yZMtkK7fEbJ7FKjLU6I6xzkfbNIs1FyVpnQfvSvl7QAGGdOnWbTq9ciZOlS5cZh3XAedmyZaV58xbSrVt3dXy7gT1+lRjUYb927QY7nVrAlYR1C4zqNkfB8+HiRQ1QA5GiAcI6te42rQPWly1bLqVKlTYa+Q7A+ueffyFbt26XHj16yiOPPGL0MwKpL0m9IiUGwB4dXVxatWotbJxkzfwjrBPWGVmnBqgBasA3GiCsWwMLbgNgL51PXNxVWbFipWWw/t133ws+Y9Wq1dKrV28HU2KKqxsGpMTcufMnI+wG1xXCukFjesl58Fy5oFED1IAfNUBYp67dpuu4uGsCgLUqsg5YD1wzbgqcTonp2bOXHDhwkCkxBvmSsG7QmIHJwlcuFtQANUANOKMBwrozdqfek7Y7YB1RbztgHRF2N6TEtG7dRgE7IuzURtLaCNU2hHXCOicSNUANUAO+0QBhPXwwCBUg+L7QbH316nVZvXqNlC79sNF88kDOevzIOsYkkBLTu3cflcNu96bTe1Viigsi7EyJCU0jweYSYZ2LtG8W6WBi59/NOA3akXZ0swYI69Sn2/SJCilr1qy1DdYD149oPjadohmT3cAeqBLDlBgz85GwTlgnrFMD1AA14BsNENbNwEEA+Pgavj2vX78pa9eutx3WAykxyGFHHfakKrpY8fv4VWKYEhO+hgjrXKR9s0hzUQnfIdCGtKHXNUBYp4bdpuEbN27JunUbbId12AHAjk2nqBKDso52R9gTpsSg0+mff/4fuSOF7ElYT6HB3OYEeD5cmKgBaoAa0BogrGtbUBfusAVgff36jfLww2WMRreTyllPbNzdkBKDlBw2TkqdJgnrhHXe4VID1AA14BsNENZTBwOJAR5/Z8aWboB1RNi3bdvBxkke9fWEdY8OHJ2oGSdKO9KO1IC/NEBY99d4+mF+3rx5WzZs2ORoZB12DFSJQUpMTEyMoykxiPSzcVLoc5WwTlj3TUTND06d1xC686KtaKvENEBYpy4S04WTv7t1645s3LjZcVgP2GD58hXStevbUqJESduBHVVi8uTJo3LomRIT+lwlrBPWCevUADVADfhGA4T10AEgAG98tdZmgPVNm7a4BtavXImTLVu2qU6nTlaJadWqtcphx6ZTajB5DRLWuUhzklAD1AA14BsNENaTX/QJRfbbx22wDg24pUoMNp2icRKrxCSvS8I6F2nfLNJchJKf7LQP7RMJGiCsU+du0zlAdPPmra6JrMe3D6vEeGO+ENYJ64R1aoAaoAZ8owHCujfgIz4w+v17wDrSTsqUiXGsdGNSNkaEfevW7Y6nxKBxEnLYmRKT+PwlrHOR9s0inZQz4u8Tn/y0C+3iRw0Q1qlrt+kaVU8AxG6EddiKKTHunzOEdcI6YZ0aoAaoAd9ogLDufvBwG0xbfT5uh/XA9bshJaZnz15snJTIekRYT8QoAeHylU6fGqAGqAFvaYCw7q3xioT5BVhHQyK3RtYDYxBIiene/R1xskpMmzZt5cCBg6oOe+DcIv2VsE5Y901ELdInM6+fkEIN/C2Edc4Dt82Du3f/8gSsw24AdlRnQeMkAHumTJmM5tmnSZMm2eNlzJhRihcvIYiws0qMnsuEdcI6YZ0aoAaoAd9ogLCuF3i3QWukng9gffv2na6PrMcfH4Byt27dHWuclDt3bkFZx3379su1azfkzz//zzc+Kr6dQ/2esM5FOqInQKgThe8jAFAD3tAAYd0b4xRJ8wmwvmPHLk/BeiAlBsDuZEoMq8Tcm8+EdcI6YZ0aoAaoAd9ogLBOWHfbjQCiwl6DddgwkBLTu3cfefTRR21PiXnggQckOrq4irBHekoMYZ2LtG8Wabc5aJ4PoYEasF8DhHX7bU6dJ29zr8J6YFxXr16jgLlUqdK2A3u6dOkkV65cEZ8SQ1gnrBPWqQFqgBrwjQYI68mDYwDA+GqfnbwO64iwo5oNcsgRYQ+2SdTk3++77z4BsCPC3qpVa5XDHomNkwjrXKR9s0hz8bFv8aGtaWu3aoCwTm26TZuA9Z07d0tMjPs6mIZqKwA7IuxIiXGiSkwgJSZQJQblMGHXUM/f6+8jrBPWI0bsXp+sPH9CCDUQXAOE9eA2oo7st9GuXXssgXXcAIwaNdq2ddzpKjF58uRRZSVRh/369ZsRA+yEdcK6bZOcC4T9CwRtTptHmgYI69S8GzUPWC9btqwgrcNUmghqkpcoUVJGjvzWtnUcEfYtW7ZJ165vG7/5CGaXQEoMrrldu/Zy8GBsxDROIqwT1m2b5G50oDwnLuzUgL80QFj313j6ZX7u2bNXKlSooPKvg0FpqH9HLjcizUOHDlPQaldayJUrcbJ8+QrVuMiJlJjATQoaN61atdrWa3dKj4R1wjphnRqgBqgB32iAsE5YdwqokvvcvXv3SZUqVSVz5szGIuuINGfIkEH69n1XLl36w/YoM1Ni7JtrhHUu0r5ZpJNzlPybfU6FtqatndQAYZ36c1J/SX02cqyfe+45yZkzpzFYRwQewI4qKevWbZC4uGu2ruduSomJjT0kaD6VlP29/nvCOmHdt+L2+uTk+RM6qIGUa4CwnnKbUWfW2+zQoSPSvHkLeeihh4zCOoC9cuUqMmzYZ3Lq1Bnb13M3pMSULFlKPV1Ys2atAna70oHsnDeEdcK67ZPbToHzs6xfhGhj2thNGiCsU49u0mPgXI4dOyHdu79jyabMfPnySYMGDWT9+o22R9cD1+dkSkz69Oklf/78CtgRYUeVmMB5+eWVsE5Y952o/TI5eR2EDmog5RogrKfcZtSZ9TY7ffqsfPbZ5ypvPdQNpKG+D7BarFgxgfY3btzsyJqOlJitW7dLt27dVR32UM/dxPuQCgQbIMLeoUMHiY097LuUGMI6Yd2Ric3FwfrFgTamjSNRA4R16t6Nur948bJMmzZdRcBNAGrCY2TJkkWefPJJGTBgoAJ2u/PXYXMAOyLsaFyE+u+ZMmUynvKT8Lrj/4zPK1WqtLz3Xj9Zu3a9r2qwE9YJ64R1aoAaoAZ8owHCOmHdjbB+9ep1FXlu37693H///ZZALCLMAHbMAaTEIIcd0G53t0+UdUQd9uLFS9gO7IiwFypUSPr3f18OHz4qN27c8oVvI6xzkfaFkN3onHlOhAZqwH4NENbttzl1HtzmAOY//riiIBLlG60CdkTYkRJTv359GTJkqIowI6qPz7drnLDp1MnGSQD2MmVipEuXN+XIkWO+iLAT1gnriU5glEC6du2GnDx5Wvbt26/u0pcsWSqzZ8+RyZOnyPjxP8uYMWNVm2O0OuYXbUANUANu0AAgJf6jcRPfFyxYUJo0aapyYe0AHlSzAFzB/yIHGX73l19+ldGjx8h3331Pf/vPmjNu3A9qPVq8eIlapwCJdkJpSrQQGFPMEasbCQFWsekUVWJatmwlffr0VeCOTqfffvudLfpBdZpXX31NHn64jKRNm9Zo59ZQ5jRuWpCK8+GHAxzL40+JPoK9l7BOWFcbMbB7Gk0V8NgMj452794ja9askylTpsrXX3+jcsDeeOMNadq0mdStW1c5gfLly6u7V9zB8os2oAaoATdoAB0dQ1nMU/IeO2H95s3bcuHCJQWfyHHG43z43erVa8ijjz6qAMQNdnbDOVSqVElq166jNhUOHz5C5UsjkorcabeW75s3b4Eq4ZgrVy7jOk1M00iNQafT3LlzS4kSJRU82zl2BQoUUI2bcB6JnZ+Vv3vggQckOjpaBg78SI4f/10wt4JBsVv/TliPcFiHQ0MuHVohT58+UwYP/ljatWsvNWs+qxaF6OjiUrhwYcGEwyKYI0cOyZYtSrJkyao6sWFDB79oA2qAGnCLBgAmpgHATlg/evS42ojYrNnL8sgjjyjfC78Ln+sWG7vlPBA9xXoEEC1atKgKImFzIVrQ375915XAvn//ARkxYqRaV03rNKnjBYAd8JoxY0ZbdYQovxOgDlvgc3HNCCz26tVbAbtbYTzYeRHWIxDWkd5y4sRJ5dB+/vkXGTRosHTs2ElefPFFtTkF+W5RUVGW5dQl5VD4+zTGIYM2pU2pgfA1YAes4+kmUg5HjhwlL730ktokB9Dg+IU2fgAz3NAAzN588y2ZMWOWekLhtgj75ctXBBsw8aQENxoc39DGNxw7wc4VK1ZUjaO2b9/pyeg6YT1CYP3WrTuCfD5AOnIgJ06cJG+/3U2qVasueBxnRTQqnMnF/7XegdHGtDE1EJoGrIZ1RIHhm5GPXqtWbQZK0oQ2LknpF0+DX375FbW5Eps6g0Ut7f47np7ghqJ06YcJ62GOdVIaSPh7bOrFjRzSepFmhjln97iH83mE9QiBdWxUwgZRPCJEzjnSW7ABBZEIgLpTj6kSTij+HN4iRfvRftSAeQ1YDevnzl2Q+fMXSo0aT0n27NkJcGECXIYMGVRFFKQ+oAV9OJBkxf8iuj537nxp1KgxxzrMsQ7V36H6DoC9YcOGMmHCRAXsVoytVcckrPsY1rHJ5uDBWJk2bYZqlIBIw2OPPaby+wjn5hf0UJ0G30fbUwPe0oDVsA6g7NGjp+BzrCrpF2maA5gh9QEVUNxWJQYbHfEk5aOPBqnAGdOd7PMHSPNt06atHDhw0LWVgxIDfsK6z2Ad+XlwBGfPnlflFvFYFaXMHnroId7B23QHH2mLIq/XvoWGtnbG1lbBOvw1HsejJCMe0QMwOcZmxhgBKZQM7NSps9oLgD0BiUGQk7+bM2eeKm+I4g28STMz7sHmD+yM9CNU5UE6jJPjn5LPJqz7DNYB6ihdhd3mjRs3UY8C8VgVjwWDiZh/t8dZ0M60MzXgLQ1YBesA9fPnL6r0RFQ2IbCZ1QWA/fnnn1c16t0IZiiVjCffeOKNKi30C2bHPyl7IgX4rbe6qlKfKQFmJ99LWPcJrAPSjx07ITNnzlYNEJ55pqaqJsB0F3smf1JOgb+n/akB72vAKlhHZa4dO3apOuHUiTU6QS12NMbBvi0nYSuxz8a6jVRV1NJHyg7Xa2s0kHBuZc2aTZWnRqGNxMbFjb8jrPsA1gO56RDeK6+8yuouTHdhhIYaoAYMasAqWEelkgULFqruqAmBgj+bAbfixUsIGvrhibMbIQx9TjZt2qIivUiHYWU2M+Oe3PzBUwykwqCbqxs1kdg5EdY9Dut37/6lOo3269df3ZkHyjDyDt36CZ+cM+DfaH9qwD8asArW0TUaaRDocUG9WKMX7Nd67bXmcujQEVeCGdZwADvy19GQEA2eqAVrtBCwKzb0orMput4mBsZu/B1h3aOwjlzHM2fOqcYPXbu+LRUqVBDkPBLSrZ3kgcnOV9qZGogcDVgJ62jegyZI1JM1eipSpIi0bNnKtbAeAMPjx39X6zk616IbK/VgjR5g13uwXlzt7QvY3+2vhHWPwTqqB9y586f8/vspVacVm0jRAIIT27qJTdvSttRAZGvAKlhHScHFi5eoBj7UmDUaK1WqtHTu3EXQiMjtQIZNsKgBDmBHhJ0pMdZogmkwHgNft0/cxM4PoH7x4mX5/vsxaoMEdjWz0os1E5qLJ+1KDVAD0IBVsI5ygnv37lM51dSaNVp78sknZfDgjwWVVxJbU930OzwxB7DjaQtSYvLmzcun5Qb3ngTmWKAG/9ix41yviYA+GVn30A3GjRu35PDho2pTRIMGDbiR1IJJHJjMfLVm4aRdaVcvasAqWA8EXwYMGMhIqkX+HB0rUSUN+wMC4OP2V6TEIIcdKa6oZpMpUyaW9TSoj2zZolgNxu2TwIvnF0h9wW72SZMmS5UqVSUqKp10FRMAACAASURBVIqpLwYnrxcBgudM8KUG7NGAVbAeWI/Gj/9ZKleuIlmyZKVfN+TXUbMe9uze/R2JjT0kCHYF7O2FV2w63bJlm7z//geqYRYqxbDTqZn5jt4zDRs2UjdxXtACzpGRdQ9E1hF9QYkvdLmrVq265MiRQ3Vm40JtZuLSjrQjNUANJKcBq2EdUDZw4EeqN0Zy58G/ha5TgDpugJDqAFBH0MsrYIbzDFSJQR326dNnSvPmLSQ6ujhv5gzczIGhmjZtJrNnz/GMJgjrLod1TFhUfUHkpVGjxgR1AxOVC17oCx5tRVtRA9blrAfgEV1Mly1bruqto9QgbR7evENOckxMjHzyyaeybdsOzwBZQA/xX9E4Cfn2c+fOl0GDBqvO5A8/XIZP18NgAcA6NvH+9ttcz2iDsO5yWMdmEzjxevXqCTaT0omH58RpP9qPGqAGUqoBqyPrgDMA+7hxPwhyrNEvI3369PT3KQQypL4gvxswiw2aO3fuFmzijQ+/Xv7+xImTMm/eAtVAqUaNp1QlOGiFOe0p82mEdZeDrxcnKbrbtW3bTj0epfNO2YRM6YLM99O+1AA1kJgG7IB1VAI5d+6CTJ06TdUFRyUQwGdi58PfJa5TQOsjjzwiH3zwoYqoo7s3nk57ce1P7Jxv3bojly9fkWPHTsiKFStl5MhvpUWLluqa8TSBeklcFwnnC2GdsG7MKVy7dkN27Ngl773XT0qUKMmNJSmMsCScnPw5NCdGO9FO1MB/NWAHrAfgDPXAUQkEGwvRR6N8+fJSoEAB1fSOMPbvsUHZYmwWRC73U089Le3bt1ddKTds2KS6gvoJ1AP6CLxiH9v+/Qdk/vyF8t133yu9dOjQQTXYqlq1mpQtW1bQEAqRdzRMZM12rR3COmHdCKwjwoLSTV999bVUr17D0cgKOqJiBzpKHWE3+oMPPijFihVTNxClSz+s8gKRG8gv2oAaoAbcoAH4KdM3HHbCOmAMEdSTJ0+rnNp+/fqrXHYUF0DU2A02dss5oKxhrVq1BZA6YsRIWbdugyCaHgDaSHnFTQkabG3fvlNtRv3iiy+lR4+e6gnN888/L4B3dDl3y7iFeh4lS5ZSzGG6lwxhnbBuxEkgT33RosWCnDREDUwvPKEeD6COSRIdHS21a9eRTp06qw072OyK9Jz16zeqnMBdu/YIv2gDaoAacIMG4KdC9XGhvs9uWEflkkDKA7pVx8Yeln379svu3dRYfI3t2bNXRZdR1vjs2fMSF3fNV2kvod5sBMo744k86smfPn1WBfwOHToiqCYD7cBW8W3nhe+XLl0mw4Z9poA91LkayvsI64T1sGEdkw65aG+91VU9+rT7sScelaHNMSIWKG3Uq1dvFeGfPHmK2uiK1Bw8poVD8GI5rFCdH9/3d9hapg1pQyc0gHzlUBbslLzHblh3wm78TM5Xt2kAN6oTJ05SAcOUzNdg7yWsE9bDApxAN7uhQ4dJ8eIlbMtTD0TQc+bMKaVKlRY8NsOCh+g57tAR4XHbJOb5cGGhBqiBxDRAWKcuEtMFf+c9XRDW9ZixdKOLbjCwyxsbi1D/E3nigOhgd4gm/o5UF+Siv/Zac1U6bOvW7YJJgg0sAHWvNZOgU9YTnLagLSJNA4R1aj7SNO/X6yWs67lMWHcJrGNTKXLLkP6CGrEmIDzYMZBig82iDRo0UN3zcKOAHDevtWX2q6PidWlHRVvQFqFqgLBOrYSqFb7P3VohrOvxIay7BNbREAPNDh577DHL018A6ahHi7JOqNH6668TVJdUP5e5olPWk562oC38rAHCOvXtZ31H0rUR1vVcJqy7BNZXr14j77zTQ7CRyer0FzRPQA3WIUOGypo16wTVZxDZZ7qLnhiR5BB5rRx3P2mAsE49+0nPkXwthHU9lwnrDsM6otlIO/n++zHyxBNPqOYFwdJXUvv3tGnTSlRUlNSpU0eVQ9q2bYfqhhbJzoDXrp0BbUFb+EEDhHXq2A865jX8rfbOsRrMvflMWHcY1m/evK1KISKqnjFjRsvaBQPUUbO9cuUqqsPbmTPnVDSdDoELGzVADfhJA4R16tlPeo7ka2FkXc9lwrrDsI4UFNw51qtXzzJQRyQ+a9Zs8uSTT8qECRPl8OGjTHtxeNwj2QHz2rUDpi3M24Kwbt6m1Clt6oQGCOtad4R1B6ENOeJoMGRlBZhADfWnn35GPv/8C1Z7cXC8nXB2/Ezt7GiLyLAFYT0yxpnz2f/jTFjXY0xYdxDekKu+efNWqVatumTJktWSco2o1x4dHS0DBgyUY8dOCNJu6OT0BKAtaAtqwF8aIKz7azw5PyN3PAnreuwJ6w7COuD5559/kRIlSgpyylO7cTS5/8ufP7/06dNXUG0GoM6KL1r8XARoC2rAfxogrPtvTDlPI3NMCet63AnrDsI6yib26NFTANTJAXdq/5YvXz55/vnnZcGChXL27HlG1B0cay422unQFrSFlRogrFNfVuqLx7ZPX4R1bWvCukMAhwg3NpY++2wtyZYtyjiso/FRlSpVZejQYXL69FmCukPjTMeunQ1tQVvYoQHCOnVmh874GdbrjLCubUxYdwDiAOp37vypNnyiCVL69OmNwnqgQyk2ru7bt1+uX79JWHdgnOnMtaOhLWgLuzRAWKfW7NIaP8darRHWtX0J6w5A3K1bd1Sx/549e1lSWx2bVVFPfcyYsXL16nVB4yU6FS162oK2oAb8qwHCun/HlvM2ssaWsK7Hm7DuAKzHxV0V5Ku3aNHSaEQdue0o1YhoPTaVrlu3gZDuwPhyQdEOhragLezWAGGdmrNbc/w8azRHWNd2Jaw7AHPnz1+Un34aL3Xq1DEO6+nSpZOYmBiZO3e+4HPoRLTYaQvaghrwvwYI6/4fY87jyBhjwroeZ8K6A7B+8uRp+fDDAVKpUiXjsF6gQAFp1Kix7Nq1R5BuQ6emxU5b0BbUgP81QFj3/xhzHkfGGBPW9TgT1h2A9SNHjkm7du1Vs6LUlmVM6v8ef/xxGTjwI8ENgZ0ODXnxuDnAZtZr127w69oNZQs0vsJmYjfXt0/N2GGc8YUxd/OeCNj99u27gnGgLiNjXr73Xj/jQRCkFjZp0lRiYw/b6lft9OH8LA1GtIU7bEFY1+NAWHcA1g8cOCh169aVnDlzGl9UGjZsKLNm/SaXLv1h66ISF3dN3SCg+szu3Xv4tXuP7N27Tw4dOiKXL19x9VMOjB2cYkrHbv/+A3Lq1BkF7W4FdoA60sEOHz5KTUbIvOzUqbNxv0pY19BAkKUt7NIAYV1rjbBuM6wjyrp9+05BBPyBBx4wtqhgYylKNnbu3EVwM4BIolUTCtFKHP/gwViVGz9y5LeCR89vv91NOnbsKK+//jq/Xn9d2aJLlzeld+8+MmzYZ6qu/pYt2+TcuQuWjU2wMTc1dm+88Ya6vu7d31EpXaNGjZZFixarmxMrtRfs+gDnFy5ckrVr18uvv06QTz8douyPcaAuI2NeVqxY0ZhfDTzBJKxraAg2B/l32sqUBgjrWkuEdZthHaUUV69eI6VLP2x0QQGoo2TjgAEDLY10AoYQtd+5c7d899338uqrr0mJEiXVZwcWNr6m+dfY4kaqUKFCqgEWUpQAtYhI37x529b0GCvGDteWJUsWtakZqV0//PCjimDjaYKdqT+Bm5CjR48r+6IaUo0aT0muXLkEm66pyX9rkvZImT0I6xoaTIEYj0ObBtMAYV1rhLBuM6yfPXteZs6cLcWLlzAKEBkzZpRSpUoLotxWpiScOXNOwdDLL78iZcrEqFQePCHAzQIBIGkAQOMrdKrFoo8UKER8AZYA6GAOy9TfrRq7QBOu3LlzS9myZaVDhw7qiYudNyOI5uOJEuz6v//9Tx588EHJmjWbAnXcUFCbSWuTtgluG8K6hgZT/ojHoU2DaYCwrjVCWLcZ1gFoP/74kxQrVswoQABMnn76GZkwYaIl8AeovHjxskydOk3Vhy9cuLDRNJ5IAoa8efOqqO/nn38h27btsGS84jtBO8cON264EUWajF17J/C0Cvsk8FSpWrXqKtLPm8fgABpJcy7cayWsa2iI71v4Pe1ipQYI61pfhHWbYR2b+IYPHyGA3XAXkPj/j82qr7zyqsyZM88S+As0ckKqQ+bMmRlJTxMeDCF15IknnpCRI0epDajYy2CV07s3dmtVBSK7xg43o61atVY3I6jCYtW14bixsYdUt1486cmQIYPReRV/jvH78DTvZfsR1jU0WDmXeWzaOb4GCOtaD4R1m2Edud5DhgxVj+lNLl6I1mIT3fLlKywBIzwRwPEffrgMQT1MUMe439tjkEWaN28h8+cvlD/+uGLJuCGXG6VCMXbYJ2FXxBkRdnzel19+paLe8R2wye9xfdhI+swzNSUqKkp18DU5r3isyAX0+GNPWNfQYHL+8li0a3IaIKxrfRDWbYZ1VAPB43o4//iLQbjfoxlS377vyvr1G41DH6prLFy4SCpXrqLygMM9V/6/BqBHHnlEVSs5fvx34+MGJ4iyhQsWLHRk7LJnzy7169eXadNmWLLZFDnxuBF59933JE+ePNxIauAmknNTz834tiCsa2hIDq74N9rJpAYI61pPhHWbYX3Dhk3Sr19/AVzHXwzC/R7VRj76aJBs3brdOPShG+pnn31u/GlAuNfsh//HXgNULUHuuhUdZzF2KBuJDZd22wtVWPDE55NPPrWkQhEqzsybt0AaN25i+7XZbUt+XuIQbZddCOsaGkzCGI9FuyanAcK61gdh3WZYR+QbkUArYP3jjz9RNdyTE39q/oaoeps2bQXVPuxaHCPlc9KmTavSRbAZE5WCUjM+yf0PouqtW7dRJQzttimqsADY33qrq+r8aLr++unTZ2Xo0GHqqYHd18bPcxae7bY/YV1DQ3L+hn+jnUxqgLCu9URYdwDW0Q7bS7A+adJkqVWrtio9aPciGQmfV6RIEUFTIWyUNOnocKyJEyep+u4oG+mULVu0aClr1qwVbHQ1eX3Hjp2Qrl3fVvsonLo2fm5kQDthXUODyTnMY9GuyWmAsK71QVi3GdY3btws/fu/bwmsW5UGM3bsOKlQoYKqAkM4MQ8nSGHCUxEryjiOGTPW8bFr2LChJWUcDx068v/LiFKX5nVJm2qbOgHr2Dx9/fpN1ZEX0IJN/tB8bOxhftEGtmng8OGjcuLESfXkNy7umq29QQjrhHWjEb7k7gwT/m3Tpi3ywQcfGt9gisUEx8XxE35muD+PHj1GypUrJ5kyZXIsOutncMDYYdMxNh+HO1YJ/x9jh02sTo7diy++qDaZovNtwvML52dAC8qVOpGP72c98to0pAdsYTesA9SxgRr9A/B0DL69Y8eOSu9NmzaTJk2a8os2sFwDaH6INMrevfvIt99+pwpYWJGumdQ6QFgnrBuFhqSEltjvN2/eKh9+OMA4rCOtBhF7RO4T+9xwfvfdd9+rzpROAl9g0fTjK2ATG3ixGTSccUrsf9GACx09UdfdKdsBLJA7b7o8JSrBoO5/dHS0Y9fmlE35uf8FaittYieso/oW1gn0YHjzzbfkhRdekIoVK0qJEiXVjSnOhV+0gR0awFPfokWLqoAPmi6idwYKBsydO1/QEduKogjx1zHCOmHdOBTFF1hy3xPW7V1krVzATRwbmzDRQAhQDfhMTjup+du0adOlXr16qga5ifNN6TFwfW3btlPwgU6jqbmGpP4Hj2YR8cGTg5SeF9/PeZgSDdgB62iMduVKnKxevUYGDvxIPc3MkiUrtc2SpK7SQHR0cdUfBA0YUXIYusWToKT8dDi/J6wT1i0RViiiJKwTEuJDAqrBlC1bVlasWGl8Ayb0uGrVann77W6SL18+2x0+QB0dRQHUqPd++/Zdo/Pu3LkLgjSfmjWftf3a4o8hv/f/nLYD1gHqy5Ytl44dO6kIul3dhqlf/+vX5Bij4V3+/PmlevUagqfuKKFrVQduwjph3Sg0hALpgfcQ1ukY4zvOAATs3bvPOMxCc9gc9MMPP6pH6LgxiP/ZVn+PtCnsdcDjfOTfmo6+YLMT+hYgFSZ9+vTsXsoIpGX6DsxT7JMI+HKTr6iUhD0rSHuJiYmhlqlly7Rswu9jLUHTO6Q4Yk8FUrdMzofAsQjrhHVLhBUQWHKvhHXCOpwlos5weIhOfPHFl4Ka4cnpJrV/Q21zQEDt2nUkZ86cti0A999/v4rmd+jQQRYvXmLJtSGaA8gZMmSoFC5cWEXxTSxEPAbnaEINWA3rKNuKKCVSDDB3En4+f6Ym3agB7LfCJtQdO3aJ6T4aWPMI64R1S+AhFKACrFtRDYYbTL3lzAHqUVFR0q1bd9m3b78q0RaKflL6nrt3/5JTp87IN98MV51S7XL4iKqj3OfMmbMtuxFBpB7AvmTJUpU6kCdPHkIOI5KWaMBqWJ82bYY0aNBAcuTIwag6NWyJhq3w/UhzLFMmRu25wlPclK5Pwd5PWCesGxdVMNEF/k5Y9xZUW+HgkLKBxb9ly1YKZrHxElAd0Ijp12vXbsjOnbtVecjHHnvM0nr5iAoip7Fq1WoyaNBgVQsYKTCmryn+8eDQ0QG2YcNG8tBDD3lmobNCWzymNf7FKljHvEc6Fzrx8umQNWPHOWGtXfPmzStduryp9l3F98smviesE9YthYfkREpYt9ZxuNkxA2SxaQylsFB7fN68BZZFnRPTILqI9u37rjz66KMq3zBdunRGo3iIsuTKlUtVZ0E1i/37D1j2xCDh9WGzKZp3NWrUWG1+ypgxI9MJGKE0duNmFazjRhbNjt56q6vRuehmP8hz89caiIpFCM78/PMvxrmKsE5YNy6qhPCQ1M+EdX85qpQsPAB11EtGPXyAMyqkWF2nNr4Okd+NlBvkxr700ksKrAHsKbmG5N5bpEgRady4iUyYMPH/g7qVTwziXxsqzQDY589fKL169VaPZp2sLZ+cnfg37/kAq2AdcxIVm5o3b2FsHlJf3tOXl8cMQRo80fzqq6+NcxVhnbBuXFTxwSG57wnr2pEi+ol8NwCsH78qVaqkGhI9+2wt1XmwZ89eqtQgKpigQZBV5a6S0x82AR04cFB1FEXXVNRARx12REYef/zxFI0D3o8NsvXr1xdsJEWzDOSoo/Yu2qQndx5W/Q2NOtasWScjR34r3bu/I+j2iNKOlStXTtG1+VGPkXJNAGvT8GMVrKPs3ezZc1QKl+lz5vH0WkNbWGcL7L9CdP3jjz8x7vMJ64R146IKFT42bdrCDab/PJ7HhkDUFMaGWz9+AYY//XSIfP/9GFU/GRBrdf52qDpExBs3DOh4O3nyFFWRBqkrKRkHvP/rr7+RKVOmqpz4ixcvOzav4l83Np4i0n7o0BHVORVPEjAOKbk2vte7c/Kpp572DKxjzqBxGTaXEiitA0ra1jrborIZ9mFhPYjvh018T1gnrBsXVajCJKxrp1GyZClVyQOdKDEp/fZ18uRpVYkF6RloeGJFrfFQdZfwfYFKKtjcBmBA6Uicb0rGAO9HJBv/j02sTjwpSHhdgZ9xfXiKgBsS2B8VcVJybXyvd+fjO+/0MA6+VkbWf/ttLiPr3F9hXLN23aAgsp4tW5R6shrwv6Ze4YdRxz06OtqofVB1qVmzlwVzz9S5Wn2cNFZ/AI+v74xgC8K6hnWkwKBKCcCKOvm3TmgP2oMaSJ0G8FTENKhYBeuBxl6tW7cxfs6mbcDj6bWLttC2QPWv4sVLyIgRI42v44R17QMJ639pY9ixOBLW9SQnrNurPTv0zc/gmDqtAS/BOp62IT0OTwMAPUgpIAjqNYK2cL8tEFWvVau2TJo0mbBuIU8S1i00bmKLFmFdOx/COsEusTnC31EX4WjAS7COp4oAdlTSwKN+ADsBVa8RtIX7bZE/f35VgQsb+8OZt4n9LyPrei0grBPWg04wbNArW7asoCulSedJWNcTMTFHxd/RPtRAyjXgJVgPjO+CBQsFqTDoU2DSx/JY7oddL49RoBzx1KnT1J6ggJ5NvRLWtf8jrBPWCes2a8CUI+NxtCOjLWiLgAa8COtHjhxTTWXKly9vaYdhL4Mhz91dNx5o8odc9fbt20ts7CFLunAT1rVfJ6zbDGpMg9EOh5F1PREDoMFX2oQaCE8DXoR1pMKg/8G7774nAHaCqV4naAv32SLQjbtNm7aycuUqVe3MikIRhHXtCwnrDsD6++9/IKYbdxQoUEB1xkTdbNOLPdNg9IQxbVsej7alBsxqwIuwDg2gmyk6G+P80cQLG/cARYRV98FqJI8JUl8QUQeoo0cAOnGjr4UVfoywrn0jYZ2wHnSSEdb1hLHCIfGYtC81YE4DXoV1aADRSXS5RhOvatWqS+HChQU1obFfKF26dKwWw3rstt+84YYRG59x85gvXz6pUKGCtGvXXkXUAepW+i7CuvaLhHXCetDJRljXE8ZKx8Rj087UQPga8DKsY/yvXr0ux46dkBUrVsqQIUNVw6SYmBjJmTOnoAENyzsy0m5XZD+Q7oJKRTVrPis9evRUHauRo45Gf1ZF1AN+kLCu/SFhnbBOWLdZAwFHxFftiGgL2sKUBrwO67ADugFfvnxFduzYJTNnzpZRo0bL0KHD5MMPB6g0GVwjv2gDqzUAvQ0e/LEMHz5CdRJFmhY6jt+9+5ctzQwJ63pdIKzbDGrYYMqc9XuREW4w1RPRFKjwOLRppGvAD7Ae6WPI66cfgwYI61oHhHXCOiPrNmuAC5F2QLQFbWFaA4R1asq0png8ZzRFWNd2J6zbDGqMrOt8Q0bW9UTkYkBbUANmNEBYN2NH6pF2dFoDhHWtQcI6YZ2RdZs14LQD5OdrB0hb+M8WhHX/jSnnaWSOKWFdjzth3WZQY2SdkXUuPNoB0Ra0hWkNENapKdOa4vGc0RRhXdudsE5YZ2TdZg3Q8WsHRFvQFqY1QFinpkxrisdzRlOEdW13wrrNoMbIOiPrdPzaAdEWtIVpDRDWqSnTmuLxnNEUYV3bnbBOWGdk3WYN0PFrB0Rb0BamNUBYp6ZMa4rHc0ZThHVtd8K6zaDGyDoj63T82gHRFrSFaQ0Q1qkp05ri8ZzRFGFd252wTlhnZN1mDdDxawdEW9AWpjVAWKemTGuKx3NGU4R1bXfCus2gxsg6I+t0/NoB0Ra0hWkNENapKdOa4vGc0RRhXdudsE5YZ2TdZg3Q8WsHRFvQFqY1QFinpkxrisdzRlOEdW13wrrNoLZx42Z5//0PpGDBgpImjY4yh/t9gQIFpH//9wXHN+1YvvvueylbtqxkypTJ6Dmzg6meiKbHjMejbSNVA4R1aj9Ste+36yas67lMWHcI1gHX4QJ6/P8nrGtR+81h8Xo4ttRA6BogrIduK+qKtnKzBgjrWp+EdcJ60Eg8I+t6wrjZsfHcOE7UwN9CWOc84DzwhwYI63ocCeuEdcK6zRrgQqIdEG1BW5jWAGGdmjKtKR7PGU0R1rXdCes2g1ogZ51pMGmEOet6InIxoC2oATMaIKybsSP1SDs6rQHCutYgYZ2wzsi6zRpw2gHy87UDpC38ZwvCuv/GlPM0MseUsK7HnbBuM6gxsq4r4DCyriciFyPaghowowHCuhk7Uo+0o9MaIKxrDRLWHYB1lFhkGgzTYJx2hPx87QhpC//YgrDun7HkvIzssSSs6/EnrBPWmQZjswa4AGkHRFvQFqY1QFinpkxrisdzRlOEdW13wrrNoIY0GEbW76XCMA1GT0QuBrQFNWBGA4R1M3akHmlHpzVAWNcaJKwT1hlZt1kDTjtAfr52gLSF/2xBWPffmHKeRuaYEtb1uBPWbQY1Rta5wZQLj3ZAtAVtYVoDhHVqyrSmeDxnNEVY13YnrNsM6xs2bGIaTBqmwdD5aydEW9AWJjVAWKeeTOqJx3JOT4R1bXvCugOw3q9ff1aDScNqMFwEtCOiLWgLUxogrFNLprTE4zirJcK6tj9hnbDOnHWbNcAFQDsg2oK2MK0Bwjo1ZVpTPJ4zmiKsa7sT1m0GNaTBMLLONBg6f+2EaAvawqQGCOvUk0k98VjO6Ymwrm1PWCesM7Juswbo/LUDoi1oC9MaIKxTU6Y1xeM5oynCurY7Yd1mUGNkndVg6Pi1A6ItaAvTGiCsU1OmNcXjOaMpwrq2O2GdsM7Ius0aoOPXDigxW/z55//JnTt/yo0bt+Tq1ety5UqcXLr0h1y4cEnOnbsgZ86ck9Onz/7rC787e/a8nD9/US5evCyXL1+RuLircu3aDbl1647cvftXUJ0ndi78XfJj5Ub7ENa9N2Zu1BHPyXkdEdb1GBDWbQY1RtYZWecioB1QYra4ffuuAvRDh47I5s1bZcmSpTJz5mz55ZdfZfToMfL119/IF198KZ9//sX///ryy69k5MhRMm7cDzJx4iSZM2eerF69Rnbt2iOnTp1R0J/YZ/F3yY+FF+1DWPffmHpRhzzn8HVIWNc2JKwT1oNGHL/77nspW7asZMqUSdL8UyPdxGuZMjGyc+duQSSVjk1PykiwBSLdiJbHxh6Sdes2yNy58+Xnn3+R4cNHyKBBg6VPn77Spcub0qZNW3n55VfkpZdekueff15q1nxWqlevIVWrVvvXV7Vq1eXpp5+R2rXryAsvvCCNGjWW5s1bSIcOHaRbt+7y/vsfyNChwwRanjJlqroB2L59p2AxQPSdkXf/6M8PsB54unTy5GlBgGfWrN/U/MDN6qhRo/lFG9iiAfhLBECmTZsuy5evEARQ8KTTrjWKsK79MmGdsB504hHW9YSxy0n56XMAHkhF+eOPKyp15fDho7J79x5ZtGixipT37fuuvPrqawLgLlasmGTLFiX33Xef0RvDBx54QHLnzq1uOuvWrSuvv/66fPzxJzJp0mRZu3a97Nu3X44f/12l0SD1BtF9P41BJF2L12H95s3bKuULmpw6dZqqHtakSVM1Px555BGJiYkRBDr4kMgjLwAAIABJREFURRtYrYFy5crJ448/rgIgCJ6MGTNW1qxZJ7iJvH79puVBDsK6Zg/COmE9KJQQ1vWEiSToMXWtyD2Hc1+wYKF89tnn0q5dewUeWGiKFCki+fPnl5w5c0qWLFkFUJ02bVqjoI6nQID/dOnSqadDUVFRkidPHilUqJBERxeXxx57TOrXry89evSUH374UbZs2aag3dT18zj2zh+vw/rRo8dVJLNp02YCOC9QoIDkyJFDzQ883eQXbWCnBrJkySLwmXnz5pWiRYvKc889p55+HjhwUAG7lf6NsK59J2GdsE5Yt1kDVjo3NxwbkXRsBkWKE3LNv/rqa3nnnR4C+KhSpapER0cr8LACylOTnpU+fXoF70j1QhpN27btBMA3duw4WbZsueBJAG44mCqjFw436Cypc/AqrCNSiWg69l4g7Qs3k7h5TY2m+T96bxRtYdYWCHRUrlxF8EQU/tHKNELCuva5hHWbQQ35h++9109FS0w6EURf+vd/XzZu3BwUvpNa5JL6PSPresIkZaNI/z0AHekjqMiCPPT58xfKkCFDpWHDRlKiREkV1Tad2mJy/iQ8Vq5cuaRixYrSsWMnlbO5adMWOXLkmMqzR0oPrjfSx9yt1+9FWEfa1YkTJ9Weilq1asv9999PSDe4Pyrh/ObP4QE8Ahy4mezdu4/s2bPXsgg7YV2zB2GdsB4UOgjresK4FVCcPC+AK/Jst27dLiNHfqs2hFaqVEkefPBB9fge0UEvgToWcqTMZM6cWUXcixcvodJ28HQATwqQ0gNgd9Lm/Oyk56QXYR0lSXGDW6PGU5I9e3aCOkHd1RqAPwewI6Dx7rvvqRtNK3wSYV37OcI6YT0odBDW9YSxwiF59ZhIC8GmTDwK/eab4SoKjYosiLiYrhzkZCQMUU7k0yNNBk8KsDihjOS2bTtUZQTUhPfqGPrxvL0I62vWrFV7JgoWLMioOkHd1aAe3xdjLwV8PvYjoceFaX9CWNfsQVgnrAedYIR1PWFMOyMvHg9RdDQeOngwVlVT6dSps5QqVVqwESm+I/fj9wB3RD5RQnLw4I9l1arVgg2BaMDEnHZ3zBMvwTqeSiEFBiUZy5cvr57m+HHe8JrCSztxs/0QnEFlLQQvTK9nhHXtUwnrhPWgE4ywrieMaWfkxeMhdxt1d1u2bKUAAxuOMmbMGDERQWyMRXnJwoULq/QY1HBfuXKVLaXMvKgXu8/ZS7AOUEdEEvuYcLPLXHX/Qq2bgTucc0PwAk8ckSJoeq4T1jV7ENZthvX16zdyg+k/jzlRuo9NkfRkNO3oTB4P0XQ4zt9+mysffjhAGjRooMouIq87HEfv5f8FWGXNmk3lbaKCDPL1scHbisfBJsfS78fyEqyjksaOHbtU8y4vzwWee+TeZCDlEfXY8XTItG8hrGs+IKw7AOvIeUX1FpMOjtVgtKhNO4xIPh7ysdGxbv/+A6pBS7NmL6vGRSa164djIacdCxZAccmSpXLmzDm16ZZVY+yfl16CdTQKQ74vmh75YR7wGiIP2rEZH9Wz0CHa9FpJWNf+k7BOWA86wZgGoyeMaWfk9uMB1FesWKk2v6FBC7qAsvbzfxdkRNkRYcIGQTRY+vLLr1SpR1aNsX/ueAnWL136Q6ZNmyEvvvgiYZ0bSz2pAVSGyZAhgwwc+FFQlkjpekdY1/6TsE5YDzrBCOt6wqTU2Xjx/YFNb7t371EdPZHiAVD3YglGJyJ96Mj61FNPqzbxiJqiLB9yk72oBS+es9dgfcaMWaoJkhNa5Wf+98abNkmZTRCoQDrkoEGDjfs4wrpmD8I6YT3oBCOs6wnjRXhJyTkj7SUu7pqq9IJyjKh6gs2UXMBStoChBjGi7K+//rpKc8Cigy6oKRkLvjd1885LsI4nV4sXL1G9CTjHUjbHaC932Au+Ll++fPLZZ58b92+Ede0DCeuE9aATjLCuJ4zfAQolCDdv3iqdO3dRlV4A6qh+woUxZQtjoGkIouzPPFNTxo4dJwcOHAw61/yuLzuuz0uwfv36Tdm7d5+88cYbnGNMg/GkBhBVr1ChgowZM9a4fyOsa/YgrDsA6337vssNpmnSCKvB6IloB8Qk9xlI0zh79rwqv9Wly5vy8MNlVCMgQnrKID2hvfCIOGfOnFK7dh0ZMmSoqhaDJxfJjQX/Ft688BKs40kWehYMGDBQ7QfBZr2EGuLP4c1B2s9a+2FzaYsWLVUHXtO+i7CufSFh3WZYX7dugwDWEXEz6URYDUaL2rTD8PvxsAny9Omzytm2bt1G0JWO0XSzCxwi7U888YSqFoNSfUh/8LuunLo+L8F6wEbjx/8sVapU5Q0yo+tGucAkYyR2LKwT0dHF1YZ67HEK6NnUK2Fdcw1hnbAedIIxDUZPGFNOyE3HOXHipEyfPlPq1KmjbiLhgAGXiTln/i71EI+mN6VLPyzdunVXFXZY1tGaeeVFWN+6dbt89NEgQTdIzrHUzzHazl7bIbDz7LO1BEFIK54YEta1jySsE9YJ6zZrwC2gjkZHx46dUBVfGjduInnz5mVE3eLIXqCByDvv9FD12FFn2y168Mt5eBHWL1y4JMuWLVf11h966CECu8XzkFAfHtQHyjWiAAEKEZw6dUasCD4Q1gnrji2QTIPRToI563oi2g1KSH05efK0TJkyVbWKRp1cRtO1Nq1ezLEnoFOnzrJp0xamxBi+WfYirGP+o/PtuHE/SMOGDVWTGVTZ4Jy0b05aPef9cnw8eUXhAfgwlGs8cuSYagBnxRpGWNeMwMi64YUimGAB63369GXOOjeYOnbDCI3CCSL1BZVK0OiIUGAvFGTMmFGKFy8hXbu+LcuXr3BUC8F8ltf+7lVYxyZv1OSfOnWatGrVWpXDwwZlv0Aer8NeH2OVvZH6UrlyZRk1arTs2rXH0k7NhHXCumOLI2FdOyxG1vVEtAuIAASI4E2cOEmaNXtZ8uTJI24DgsAjVpwbgBZlwapXryF169ZVUUec92uvNZeWLVupr+bNW8irr74mSOVB91DkUGIxKVu2rCClIGvWbOLGKhtIicE5vvvue7JhwyZLcj7t0pWbPsersB6w4dGjx2Xu3PlqMzI0Df2jZj/2PLhtrloFhDyuXiedtAV8MZrhwRdjvw2qWiHAgCdAKEVrRZ56YB7glbCuGYGRdZsj62vXrmdk/Z98RMK6nojxHZRV39+9+5egvTkiuaj6gvq4Ti/+WAwA0lmyZFULAuC6ZMlSUqlSJQXeaCr0/vsfyFdffS2omDFr1m+yaNFiWblylaxZs059rV69Rl3TvHkLVFrP99+PkU8/HSI9evQUgDy6iaIDa7FixRT0IDIEUHb62gOL8OOPP67AbP/+A4K621aNf6Qc1+uwjnFCmhrygOfMmSf9+78vTZs2Uzes0DFu8GJiYvhFG1iugXLlyqkqVgiCvPVWVwXpqGaFoI8VOeoJfRRhXTMCYd0BWO/duw/TYJgGYzuUXb16XbZs2aai0EWKFHEFrALUkYZTuXIV1Rjmiy++lNmz5wiqYyByg3xIOOwzZ86pJwK42cCmTDRvQlTn3tdVlfeN36NmNVIJADrHj/8uhw4dkX379suqVavl118nKPBHtBKwg5sVN6T/IGJavnx59VgZwJ5wweLPesEKxRZ+gHWAEID98uUrSv+xsYeVjlEeD6kH/KIN7NAA9LZnz17V0RrFCPBU9tq1G7aAOuY6YV37PsI6YT0oHLB0o54wocCCG9+DqDpSsPr16y8lSpQU5EwHIrt2vgKOA/natWrVFkTOsUnpp5/Gq+ooWBwA26YjN4B6wPvGjZtVdH7kyFGq38HLL7+iIke4YcAmWzttEf+zoqKiVJoPOp2iORWu34068sI5+QHWvWBnnqP31wW3jyFhXWuMsE5YDwoFhHU9Ydzu3BI7P4AfItPDhn2musYiBSQ+KNrxfaCCwIMPPqhSXDp06KDaU2/fvlNFx+14pBrfNrAJoHjJkqXqZuGFF15Q0XbkZuJmwu4UGdzE4GYBaTs4J0RU7bZJfPt4+XvCurf9lZe1x3M3qz3CurYnYd0BWO/VqzfTYJgGE/QmyZTjx6PLH374UQCkTuRqA0QROUZNXjR+QT3pgwdjVQQdj1QR9Td1raEeByAMYEcnUSwIiOgjTQblFJEzjxQZO25i4n8G7IS8emycxfmgDn6o18P36UWNsK5tQV3QFl7WAGFd65ewTlgPCgSMrOsJ4zXHhxxubMZEBZXChQvbCqCoE12gQAFVnaVnz17y88+/qFx05JbfufNnUN3ZZWuAO84HOZlLly6Tr7/+Rtq2bScVK1ZUG18B0fGh2srvcTOFfPrPPvtcdu7c7Rob2TUWJj6HsO5df2Vi/HkM/4w/YV2PJWHdZlhHBQtG1u+VpWI1GD0RrVhgELHGRs2PP/5ElTC0CzrxOSiXiLKLDRs2ktGjx6iNnjdu3HI9fMJmqMiCDamoQoMSkPnz51cpKnbZD7ZDBRuUR0OuvRNPHqzQo13HJKxb61fsGkd+DseRsK41QFh3ANYRZQQAmIzQIYKJEl/YQGfayTGyrieMadtadTwAHlJMsJHysccesy2tA0CL3Ounn35G5chv3rxV5YYD1L2Sgw3bodrM4cNHZcGChdK5cxcpWrSobRtQkd8PYMfmW2wKBrBbpRM/Hpew7j1/5Ucd8prC1yFhXduQsE5YDwoChHU9YbzigJGLjZQO1FMH+AEATd4cJnYs5HlHR0ernGvUOkc9XtwweMVmCc8TOe3I94cdBwwYqHLu0ZwmsWu34ndohoMbcNw0uCltKKGd3PYzYd17/sptGuL5uENDhHU9DoR1wnpQmCKs6wnjBScOyER9cdTzf/TRRy2HS1ROQa71ww+XUTcHK1asVJDrBVuFco4A5RMnTsrw4SOkXr16qnkT8vGtAPT4x0T99SeffFIWLlwkFy5cCjpPQ7mWSHgPYd1b/ioSNMlrTJ0mCevaboR1wnpQCCCs6wnjBacLsEP6BkAPwBcfAK34HqCOzoqIPqNRB8oO4obBC7YK5RyRvoMGNSh/OWPGLNW8KV++fJY3VMJNECL53bp1Vzn0oZwr3/O36gZrWucYhyZNmgqaE9HG3vKHHC/vjhdhXY8dYd0BWEcbdOasp1E1v1Hxwiu5zF5x+tjEjH0R2Mdg9aZINBOqWrWafPrpENmwYZN4KTc9NeOJCPvcufOlY8dOqu271fXYkVqEdBhE9XETxHQYvXglNX6MrAe3UVK24+9pOzdpgLCu9UhYtx3W1wpgHZE5k9EfbjDVonaTs7HzXOzcVApIRdS+WrXqqnY6yh5GCkhi8ymqxXTp8qYUKlTI0o2nuNlKly6doIkUKvtcvXqdkd0gPpuwTl9op9/lZ1mnN8K6ti1hPYjjNz0R16whrAduUli6UU9EEzrDZk50BEVjH0RkrYz6AtSfeOIJ+eKLL+X48d99H1GPPz6BajFo7oR9AUiRsPIJBo79v//9T5XgPHXqDGE9iM8mrJv1K/G1z+9pWzs1QFjXeiOsB3H8poVJWL9XYx3ATljXE9GEzpBT/c03w6VGjaeMPrUJ3FwFXrNli1INg4YN+0xFewGvJs7fa8c4e/a8LFmyVNq1a6+6ngbsY8UrnsTVr19flWZldD35eUNYT94+XptnPN/IHU/Cuh57wjphPShocYOpnjBuXTiwARKbOxs1aqxy1a0AxkBKRrly5dSmx9jYQ77aSJqasUUe+Zw586R58xYSFRVlWYlM2B5lMceP/1mOHj0edM6m5lr88j+Edff7K79ojddhrdYI69q+hHUHYP2dd3owZ52RdaPAdfLkaZk6dZpqVW9VWUHkTufKlUuBOjYGI8Ib6ZuDkacPYP/pp/Hy3HPPKWC34kYJx8Rm3jZt2qpSjoQEvYgltAVhPWnbJLQVf6at3KwBwrrWJ2GdsB4UGhlZ1xPGrY7NqvSqAHgisgtYbNGipcycOVuBeqSmvySmgX379qtusajckiVLVkvSkFAiMyYmRlWGwf4E2j/xeUlYT9wuiemWv6Ot3KwBwrrWJ2HdZlhfvXqNMLJ+L2+dOet6IqbWYSKyjZrmP/74k1SpUtUyUMSG0scff1ymTZshiOKn9nz9+n+IsCMtCJt7S5UqbcmGU9ww4alJ165vq66mN2/e5jgk4r8J6+H7Fb/OU16Xt7RBWNfjRVhPxNlbOaEB6927v8M0GKbBGAEtgDqaIKEtvZU504gY9+vXXwEp8uOtnCNePDZumq5ciRM84Wjduo2CasB14MmEqVccE11UJ02aLBcvXuY4JOK/Cet6gffiXOI5c/wCGiCsay0Q1hNx9gGhWPFKWGc1GJO6Qs3vlStXqQ2OVpRqTJs2raD6S/v27VVtcXyeyfP307Fw4wSAHjlylCq1aFX3WKTC4OkcSmb6yX6mroWwrhd4UzblcWhTJzRAWNe6I6wT1oMu+MxZ1xPGCYeV3GeePn1W1TpHF1FT0dv4x0G99scee0y+/fY7QdpFpG8oTW4sAn9bv36jvPdeP3nooYcsqXWfPXt2efbZWrJjx66Ir8YTsHn8V8K6e/1V/HHi9xynYBogrGuNENYdgPVu3bozDYZpMEFvkoI5Mvz90KEj0rJlKylcuLAlsB7ojLthwyaCeoi+4o8/rsjy5SukcuUqluwhwNOOhx8uozb6orZ+KDqJpPcQ1vUCH0njzmv137gT1vWYEtZDXIBNOQKkwRDWucHUhJ5QOnHdug2WbSxF+gs2rc6bt0DOnbtAKAzRV6BKy5Ejx1R300ceecSSm6hChQrJoEGDVVMqE1ry0zEI63qB99O48loib1wJ63rMCeshLsCmHMWqVasJ62kI6yb0BEeGjYZolhM/dcXU9yVLllLVTdiERzvMUMcN0fUFCxbKyy+/IqhPb3qzaY4cOaRZs5flt9/m8iYqgQ8nrKdcr6Hqmu+jbe3UAGFd642wnsDRWy1EwPrbb3djGgzTYMKGrE2btgjApGDBgpbA+osvvqhKNV669EfY52r1vHLb8QNVejA+aCQFYDd1E4XjoOZ62bJlBftJ3HbtTp8PYV0v8E6PBT+fYxGOBgjrWj+EdcJ60MWeG0z1hAnH8Zj+X0RVEV3NmTOnURBETjTKQPbs2UvlxN+4cSuoRkxfm9ePh424SIeZMGGi1Kz5rKqoYxLWMUaIrg8YMFCVjESdd6/bzNT5E9bd6a9MjS+PEznjS1jXY01YJ6wHXeQJ63rCuGWhAAyOGTNWUP8cFVtMgmCgUyYqwLD6S3hjv3HjZlUD36qnH507d1G173lDpceJsK5t4RZ/xfPgmKRGA4R1rRvCOmGdsG6zBlLjtOL/DwAaaRYff/yJiq4iymoS1nPnzi1t27aThQsXBdVG/PPi99qxBmyBjbmzZ89RXU2tqIPfpElTlRuPHPnAZ0b6K2H9vzqMdE3w+r2pCcK6HjfCus2ghpx1tAvPly+fUcAKlNhDJM+0Y2JkXU8Y07ZNzfHQQfTkydOqMY4VmxdRBnLEiJGyf/8B41pKzfV6+X9Qm37bth1Sp04d4+lKuEF75pmaqgb+2bPnOVb/+HLCurv8lZfnL8/dWS0R1rX9Ces2wzq6TQLW8+bNS1gvEyM7d+5mqkUKNRgXd01wU4a29iYj6jhW+vTpBeUGUSf8ypU4AmAKxyaxxf3YsRNqzqM2uunxevTRR6Vv33flxImTHCvCOjVgYL4mNof5Ow2NdtqCsK7tTli3eXIT1u+VbQS0lCGsp2pxRXWW6dNnCqq1mIY/pMDUq1dP9u7dJ9y0qB1lOAsUUmG+/36M6jpqerzwFKRFi5ZqI3A45+in/2Vk3Yxu/aQJXos3NUFY1+NGWCesBwVGpsHoCeMGp4+UB6SpPPXU08ZhHTdQaNqFaLAbrtUP5xAXd1XQDK158xbGxwtVe1BtZt++/XxCxcg656zN67kf/JObr4GwrtmDsG7z5GZknZH1cJ0jHFi/fv2lfPnyxuHv6aefkZEjvxXmQGsnGe54YY/BqVNn1B4DbAY22SAJx0MqzJYt29Sm43DP1Q//75fIOjaSX7t2Qy5cuCSY8+iKGxt7mF+0ga0aOHz4qBw//rtaE5CCieIGdvkJwrpehwjrDsD6W291Zc4602BS7fCwaL/++utSvHgJ47CO6iLz5y8UVhfRTjLchQnQBWC3onoPwL9UqdKyePESjpmPIuvQDDYn7969R9Xqxw1Ix44d5ZVXXpWmTZsJ5im/aAOrNYA+Htgb1atXbxk5cpSsW7fB1kAOYV2vQ4R1wnpQaGQajJ4w4YKbif+PjT0kjRo1lvz58xuH9TfeeEP27Nkr16/fDKoLE9cSSccYNWq02qeRMWNGo+MWHR0tkyZNVtHXSLJnUtfq9cg6IumbN29VcPTmm2/JCy+8IBUrVpQSJUrKgw8+qDoWo24/v2gDqzVQqFAhKVq0qJQrV07w1LVVq9byySefyty58+XMmXMqCJHUPDTxe8K6Zg/Cus2wvmLFSmFk/V4qDDeY6omYEseG/GQ4zqxZsxmDPkRokVLRp09fwQZWbi5N3dgkN44A6lq1ahvvZopNpoh6HThwkDdYf/0tXoV1zDlUYEJ5X3SmLVu2rGTJksXYHDe9uZnH0ymdkWSL6Ojiav8NOmgjPQa6xZOg5Hxfav9GWNfrEGHdAVhHtISlG1kNJjUODE5x1649qnMpyiyaWiQA6oD/QYMGW+p8U3PNfvmfefMWqMotuXLlMjZuGH9EvxDt2r59pyULptfs71VYB6gvXbpMOnbspCLo6CRsRSMtUz6Dx4lMWH/ggQfUU93q1WsInrpbGdwhrBPWHVvUEFknrDOynloAQu7zpk1bJCYmxuhGxQwZMggitF9//Y1jcyO1NvHK/6EiDCrtWNEQ7b33+sn69Rs5dh6NrKNiEDYJd+nypkqVMrkJmVAdmVBt5bgjuJM9e3a1b2LChIlqE7QVfpiwTlh3bFEjrGvHyTQYPRFDdXTYjY+KQthUaNIZZ86cWR577DFVDzzUc+H7UjZ+gLGBAz9SucYmxw5P6dBoDbrgmHgzDQb7UBClRIoBo+l6jTA5T3gs83bFHgpsQt2xY5fcuHHLuP8hrOs1hmkwDqTBIHrCNBimwaQGrPDIceHCRVKyZCmjsJ4lS1apVq26/PzzL8Ydbmqu04//g427X331tTz00ENGxy5PnjyqOtCSJUs5dh6NrE+bNkMaNGggOXLkMPrEjIBqHlBpU21TPJFFZ+Yff/xJUOLRtN8mrBPWjYsqVJGijTth/d5kZ2RdT8RQ9XP+/EXBxh7TZRuzZYuSOnXqyOTJUxybG6HawKvvQ43s0aPHSJEiRYzCOnLgUaVhwYKFHDuPwfrdu38JnpYNHTpMpaEBfgiDGgZpC/fbAoFHMA2yBkz7ZsK6ZgRG1m2OrAPWO3fuwsg666ynyrGhXNb06TPV43KTCxnyDxHZw7FNO1we757DRVfY8eN/lmLFihkFspw5c8qrr74mc+bM49h5DNZRS/3o0eOqQhjz1N0PpiZ9rl+OhaeyVatWs+SpLGGdsO7YokZY1w6ZkXU9EUMFWnTCnDp1mnFYx+P3hg0bycyZsx2bG6HawKvvO3HipEycOElQF93kQo2xQ94onrh41TYmz9tL1WCwsRSlGps3b2FUEyb1xWPpNYu2+K8t8DQIqX1I8TM5j3EswrpmBEbWGVkPOsHYFElPGNPOKKXHO3nytEpVsQL4GjduIrNm/RZUDyk9Z77/nn6w8KDWuhVjh06Gs2fP4dh5LLJ++fIVNW64USYI/hcEaRP32wQbohFdR4dm076esK7Zg7BOWA86wQjresKYdkYpPZ6VwEdYt3acrbzRAqzzRuve+Hkpsn7x4mX1pAwpaART94Mpx+i/Y4T0LfT8QKWrlK5nwd5PWNdrEmGdsB50ghHW9YQJ5lys/ruVzouwbu04WwnrjRo1Jqz/48u9BOuIrCN9iZH1/0IgwdgbNkHNdRQoQGM20+ufleud11IHCes2w/qyZculU6fOgnJrJp1RgQIFpH//92Xjxs3GJwxh3VqIS4mDQ94zmlBYkUpBWLd2nK2Ede430GPnJVhHJZgNGzZJ69ZtjK4HJtcWHssb0OzUOKGjKaqTjRgx0jh7ENa1XyOsE9aDTjDCup4wKQFrK957/Pjv8uuvEwjrNs9bE2NpFayjkk/Dhg1lxoxZQeeyietw+zG8BOvoSIwb8Hfe6SGAHlaEIRg7Bd2p/VxE1WvVqq3245j2DYR1zR6EdZsXfUbWtTNmNRg9EUN1coD1X3751Xj5P1QUYWQ95eMR6rjhfVbC+osvvsiym//4ci/B+p9//p8A2FFJA0/LAOyphSb+n15baAv7bJE/f37p1au3rFmzzniwgLCu1yTCugOw3rFjJ6bBsM56qhybVbW6CevaKaYEwFPyXithHRsU0QUzJefj1/d6CdYDY4CGVkiFQYMrgqZ9oElbh2frzJkzS8WKFdUmaYB1QM+mXgnrel0irNsM60uXLhPC+j0Hwci6noihOjc0UPnpp/GMrNs8b0Mdn+TeZxWsR0VFSb169WTatOnGF8vkrsetf/MirB85ckw1lSlfvrwAgAiR4UEk7We9/VCyEbnq7du3l9jYQ4JuvKZ9AmFdMwJh3eZF/x6sd2RknZH1VDk2LOo//PCjFC1a1OiCzsi6doqmF5zA8ayE9eeff15FtwKfFcmvXoR1dDI9cOCgvPvuewJgJ2xaD5u0ceptDFDHTWWbNm1l5cpVcuVKnCCly7TfIazrdYmwTlgPOsG4wVRPGNPOKKXHO3z4qIwb9wNh3eZ5m9JxSuz9VsJ63bp1ZcqUqUHncmLn5bffeRHWMQboZrpmzVrB+VeuXFmVwwMUESpTD5W0nXnbAdIRUQeo42ne+fMX5fbtu5b4HsK6Zg/Cus2LPiLrb7zxBiPrjKynyrkdOnRExowZS1i3ed6aAFqrYB3VGGrwYptTAAAgAElEQVTXrqM625o4T68fw6uwDrsjOrl581b59NMhUq1adSlcuLDgqVemTJkkXbp0rBaTxjx8EuiTtyluGLHxGX4mX758UqFCBWnXrr2KqAPUrfQXhHXCuqUCS068hHXtGJizridicpqJ/7fY2MMyevQYKVKkiNGIG9NgUj4W8ccllO+thHWrSqeFcl1ue4+XYR22vHr1umAj+YoVK2XIkKGqYVJMTIzafIoGNCzvqNcQgra1tgCoZ8mSRVUqqlnzWenRo6d6goccdaS+WBVRD/gUwrpelxhZtzlCt2TJUkbW/4mOENb1RAw4p2CvcJJISyKsp9x2wWxr9d+thHUspBMnTnIsCGG17VJyfK/DOq71zp0/Bd1Nd+zYJTNnzpZRo0bL0KHDZMCAgSpNBtfIL9rAag18+OEAGTz4Yxk+fITyL0jTQl8AbCa1Ikc94TwnrOt1jrDuAKy//vrrTINhGkyqwOrgwVi1cBPWtRNL6ODd+rNVsJ41azZ55pmaqrOtW6/dzvPyA6zbaS9+lvd8SaSMGWFda5OwTlgPCo3cYKonjNNOErD+7bffMbJu87w1Me5WwvrTTz9DWP9HE4R19/grE/OGx4jc8SSs67EnrNu86C9evEQ6dOgguXPnNppzXKBAAenf/33ZuHFzUPhOqfMjrOsJk1LbmX4/I+vuGYuUji1h3Z6xI6zbY+eU6p/v57ikVAOEda0ZwjphPSjcE9b1hEmpszH9fuSsI3+VaTDuGZNQx9hKWGcajNYDYV3bIlRt8n20mRs1QFjXuiSsOwDr6PjFyHoa4QZTPRFDdZTcYJpym4VqW6vfR1i3Z+wI6/bY2er5wuNzHAnrWgOEdcI6I+s2ayCcRQilG7//nqUbw7GhU/9rFayj/jGrwehFjbCubeGU1vm5HAMTGiCsax0R1m0GtUWLFgsj6/dqwzKyridiqI4NTZHGjh3Hpkg2z9tQxye591kJ66yzrucSYV3bIjk98m+0k9s1QFjXGiWs27zoA9bR/YtpMEyDSY2jPHLkmPzww4+EdZvnbWrGKuH/WAXrUVFRUrduXdWsJOFnRuLPhHW9wEfi+POa/TP+hHU9loR1mxd9wrruuMbIup6IoS4w6Gw4fvzPUqxYMaPVhNjBNOVjEeqYBd5nJazXr19fpk2bETSlLXAufn4lrFuvZT/rh9fmHv0Q1vVYENZthvWFCxdJ27btGFlnU6RUgRW6x02YMFG1fzbZapuwrp2iVYu1VbCePXt2adiwocyYMStVmrLqep06LmHdei07Nbb83MgaW8K6Hm/CugOw3qZNW8I6YT1VYHXq1BmZOnWaREcXZ2Td5rkbLihYBeu40WratJnMnj0nVZoK97rc9v+Edb3Au21seD4cm5RogLCu9UJYt3nBR2SdsM4NpilxWPHfe+7cBZk16zcpXrwEYd3muRt/HFLzPRaeSZMmG38qkitXLmnRoqXMm7eAsP7X30JY1wt8anTK/6H93KIBwrrWImHd5gU/AOtYYE2mMbCDqRa1WxyNFedx6dIfsmDBQilRoqRR/SA627BhI5k5czaBzyKfYFUKEzaro8IUuiNboTmvHZOwHhm+0Gu65PmmXJeEdW0zwrpFC3NSE5Owzg2mSWkjlN/HxV2TFStWSqlSpY3COvKeGzRowE2KFvqDo0ePy08/jTe+OThv3rzy5ptvKV2EoiG/v4ewrhd4v481r8/fY01Y1+NLWLdwcU7MkSAq2rp1G2FknaUbE9NHsN/dvHlbNmzYpLq/3nfffcaAHY11ateuI5MnT2F01iKfYFX32fz580vv3n1k7dr1HDumwVADFs3fYL6Zf9dgacoWhHVtU8K6zRObsM7IejiO7O7dv2THjl3yyCOPSNq0aY3BepYsWaVq1WqqLGQ458f/1c41oS12794jX3zxpTz00EPGxg2pdAULFpQBAwbK5s1bCWqEdWrA5jU94Tznz0n7wJTahrCubUlYt3liA9ZbtWrNyDqrwaR6Ud2zZ69UrlxZMmbMaAz6MmXKJOXKlZPRo8ek+rxS6ogj7f2AaaRoAK5N7lcB/H/++ReCm4FIs2li18s0GL3AJ2Yf/o728YoGCOtaq4R1m2F9/vyF0rJlK8I6YT3VYHXgwEFBe3nkmZuCvvTp00uhQoXkyy+/SvV5eWUBcOo8V65cJV27vi3IMTc1bjhOkSJF5Pvvx0hs7GGOHSPr1IDNa7pT/iQSPpewTlh3zKER1pkGE66TRe5z48ZNBLnKpqDv/vvvl8yZM8vAgR/J7dt35c8//8+xORKufdz6/3PnzpfXXmsuOXPmNDZuGP/o6GiZMmWqoI67W6/dzvNiZF0v8HbanZ9Fu5vWAGFda4qRdZvvwgnrhPVwHdqRI8dUqT5AmilYx3EA7D169JSzZ88rYA/3PPn/2tHCFhMnTpKaNZ+VrFmzGR23kiVLyaJFi+Xy5SuEdUbWqQGb13T6uX/7OZP2IKxr2xLWbZ7YhHXCerjO7Pjx36Vnz14qx9wkrONY7dq1l23bdsi1aze46Bv2DSNHjlIlN03uNcANVtmyZVWFIFQKCldbfvh/Rtb1Au+H8eQ1RO54Etb12BPWDS/IwRwLugyi2yBLN7J0YzCtJPX3U6fOyCeffCr/+9//jEZoAesNGzZUjZHQfCmpz+fvtQMNxRZIKbpx45Z89NEgQYlMk1V8AP5PPvmkYNNxKOcSCe+xAtbRdA6pZ0hBiwQb8hpTNsdpL2vshcDUr79OMN71GamIzZq9LL/9Ntcz85mw7gCsN2/egrDODaapdhLnzl2QMWPGqk2mpiPrKN+IyiKnT59N9flx4fr3woWIN1KX3nqrqwJ1k/Xx0b20fv36cvBgLMfrH1/+4YcDVEqXybmBTcEvvvgi7Wzzeklf8m9fEmn2gN/84YcfpWjRokYDU4D1V155VebMmecZv0lYt9n5ILJOWL+XClOmTIzs3LmbmxlTqEHkJiMi0KhRY6MODHBTvHgJeeONNxRcRtrCYNX1/vHHFVm8eImK5JgESBwL+xbat2/P8Yo3h/AEA08ckCJkyt7oQ1CjxlOqPCZ6HVilFR43suGU4//v8d+1a4989tnn8uCDDxqby/AJyGxAc0qU0vaKzQnr8Zy8HYMWgHXTFSHwmLZ///dl48bNxsX33Xffq7xY1OI2tfjhOIT1fzumUPV39ep12bRpi7Rp09boeGBMoqKi5JlnaqqbKFSFCfWc+L6kx/LMmXPy9dffSPXqNYyPV/ny5aVfv/6C3E6Owb0xGDJkqOTIkcNouhFSl7A3YM2atYL5R1snrXfahrYxpYFVq1bL2293k3z58hn1nXny5JFOnTrLsmXLPTOXCeuE9aBiJay7y/neunVHkLferVt3ow4MsA4oefjhMurxINJtTDndSD4OHuV26NBBoqOLGx+vp59+RkaO/FZV8IlkG8e/dtwYofZ8hgwZjNkbqUt4FM969u7yhfHHnd/7b2xQQevZZ2upvT4mA4Uoe9ynT19Zu3a9Z9Y4wrrNsG5VrWVG1v3nqJJafPAYHtVa0GIeZQBNbliEQ0RzpMGDP1ZVYZI6B/4+NL1hnDZs2KRSKLC51OSCg2M1bNhIpUSxbKMej7Fjx0mFChVU3wCT9sajc3SfRkUv9iHQ9qYvoC1MawABKeybQt8PdGg2eeMNn4C0mqFDh6knyKbP3arjEdYJ60HvLBlZd6czHj58hIrWPvDAA0YhECkEgMAZM2YRSsL0DydOnJQJEyYar2aABQfRXkTsd+zYxVKb8cYJDaLq1q2rUrpMwjry4EuUKKkW+fPnL7IXQTybWwUoPK471x4rxwU3wqhGtnDhImnatJnycybnMY5VrFgx+fHHnzy114ewbrPDQWT91VdfM97FkJH1yHNqVjXZQRQD0Qxs7EElE0YRU6+tlStXSdeubxvPuQSop0uXTvr2fVctbHfu/Bn0ptvKBdZNx0aDKPQLQKUck4s8NqwC2FEVBjdgFy5cos1tXj/dpDOeS+r9YnK2Q5lbbCzFUyxAtck5HDhWqVKl1aZ/Lz2RJKzb7GxQKgglg7jBlBtMk3NYofxtyZKl8vrrr1sGJR07dlSpMNxQl/JFCTc4uNFBiU3UQc+SJYvRRQc3VHiUizKb2AjMGyo9Rlu2bFOPzwsWLGjU5oGFHgCBiN/kyVPk8OGjtL3Na2govpHv0fPBK7ZAwCEu7qosX75CbZovXfph46lsmMPwxVWqVJWtW7cL0m28Yh/Cus2OhrDODqamnAPKXqLyhemyVgEoubd5cZSgmglhMGWLH0A90Gk2c+bMRssI3ltwsqrqMr/88qtnFhtTug92HNgddsGGXpM17QPzAq/IX0fQZfz4nxWwX7x4WTW+4jxJ2TwJNpb8u7/tifmCYMOVK3Fy7NgJVW2pR4+elqR3BuYv9mS9/PIrEht72FO+k7BOWA8qWOasu9Nhnj17XmbN+k3VRg84IpOvga6N+/btF6ZZpEwDSJH4+edf5PnnnzcO6hhjpHggXx312wk0/x6b69dvyvr1G9UmU9Mb0wLzCylIeDr6xBNPCJ5AIU/+wIGDTBuzeT2l9v+tfa/ZA6COdWzp0mWqwzPKBiMFE/uwrLrRrlSpkqBx2smTpz3lOwnrNjsXRtYZWTflUJHbh3rr6DqKpi0BkDD1ivzccuXKqeghyg+aOm+/HwdR9d2796i8aSvKNWJ8saB9+eVXsmfPXo5LAh+OaB06uiJ6ZtVTp8AcQ4UfbDpFF9nOnbuo9JuvvvpaRo4cJaNGjeYXbUANJKGBb74ZLp988qn07NlLzVXc+GbPnt14dbPAXA28vvTSS6p4AjaxemktIqwncPRWDx46T2IRYc46c9ZNaA05s9iIg7rSAWdk8hWP+9F8Cc28mBsdWhQLEZtp06arJjrp06c3Pi6I6sbExKgSgtzkmPiYoA/Bp58OkcqVKxu3f1LzCyVUkQ9buHBhwQY2NH3jF21ADSSuAfQtAAfBnyU1p0z+HpF6ROzfequruplHsMvEGmzXMQjrhPWggmUaTOJAYNckTe5zUIsWmwwRXTfp2ALHQhoBcvzQwh1NkgDsyZ0P//a3guiWLVsJuuRZ8SgXC1ydOnVUxQSOR+JzExvVVqxYqSpvBbRs9SvGGhVjMGfwVAodn/lFG1ADiWsA8wSgboWPTGyuA9Sjo6PVE0mAutf2lxDWHYD1Zs1eZmQ9DSPrJsAWG3Owex7lQK1wejgmosN4zP/rrxNYri4Zf4EFAE860KwKqRGm698HFiC0vccmLGykNKEhPx4j0OX3gw8+FOy9sOIJR2A8+KpTG2kL2sKtGkCQA5vCkYrsRZ9HWE9m8bViQJEGA1hH4xmTomad9cQjbFaMoZuOGdig8+6776m8dUT2TOoqcCw82oej27x5q7CU43+1hq6y2CiF2vcvvPCCJWOAscDNU7169dTnMAXmv+OQcG4GehFY0T02MDf4SkClBtytAUTwEUD59tvv1EbwhH7CCz8T1gnrQe8ymQYTHAqcmuyB0lejR4+RihUrWlKXFgsRHlnC2X388SeqPq1T1+vWz42Lu6YqkDRo0EDy589vCawD1JEX/eabb6myY17LuXRi7FDedNiwzyzfaEpYczescXwie3yw9wpdjRFsQrUoJ3xRuJ9JWLcZ1mfPnqMaajCyzjSYcCdv/P9ftmy5dOrUWeVJW7UwoeJMtWrVZfjwEXLixElPNZSIbyuT3+NmCWUtV69eI3369FUd96xKuUAeNDYuotoInm4gmm/yWvx4LFR8QJrYc889Z+ncsGrO8biRDZkcfzPjjz1d2NuFjede9XOEdcJ6UPEysu7eyHrA8Rw9elyVWATMWbW7PhDZbdSosUyfPlM1S4r0DY4o0wjbDxo0WEqWLKU2Flq1wCLnEnsT5s6dH3TOBnTB17/VAj148MeqMgyeTEDHVo3R/2PvPMOsqJotbEYYcs4wRImSs2REyTkpOYNkVHJS9FNABpWMkoecJUiUJCAiYcg5ZxDwu/6t+6w999wzjgMz5/TuPh3Wj3kmQPfp3ntV7bera1fxvHrgiuPIcdShAdh78uTJpVev3oK3bA8ePHKs7ySshwDWGzduwpx1bjDV6jSQEnHgwCH1qg+v/HQ4urjOAdBJnz69ysveuHGTpzecIqp+4cIlAQgicoPIt1l7BjAXKHWGB+eoqJNateN2oMdr7z/+OCq9e3+kFm4s4HFpm38jIFID7tIAQB1v1VAcAaDu5LeRhHWLYR0dJxs1akxYJ6xrBy7U90aEt3Tp0qbCCCL3KOfYoUMHWbZshSDVwGsdTgHqaEiEDUvvvFPZ9BQLdCxFucYdO3YJyhK6HbB13h8WaKQNofZ9kyZNVSUuRtfdBWWEbM5nbA0gbbNYsWISETFFPazr9CmhOBdhnbAe78LPNBj7p8HAeQDiduzYqZoYmR3lRXQS+y46deokW7duk+vXb3qiBjsgHakveDBCh0q0x06aNJmpD0dYhLDoDBkyVEXyQ7FQuOEzka40b9589TBrxZzFhgf+TqCkBszXAB7EEVBCMyp0FUY3YzekaxLWCeuEdYs1YBb4IIIIYP/qq69V5RYAu1mLAxwigB0lHRs0aCgbNvykSheadW92OS/GGJtrUWGkatVqCtTNTqtAag261O7c+Yug6oxdxsJp14GHrJMnT8uXX/7HtCZiZtkbz2s+5HGM3THGAHWkgqJq1v79B5TPRJDFaf4q9vUS1i0GNabB+B0Cnnyx6cMNhhTbsEL5+6ZNm6VLl66SLl060zfToaRjlixZpFWr1jJ79hzXlhQEpCPncdeu3aqNPVJfkLtv9gKP7odogoQHMK+8vTDTdjCHBw/+pjrylipVSsLCwkyfQ7M1wvP71xSOhbfHAusRAkh444ueNghewXeb6VOsOjdh3WJYR44vqmmwdCNLN5pl5ChPtXTpclPrrsdcFBH5RRQfXU5nzJgpx44dV07SLQ9h6IaJBkS//npQpaIUKFBAtZGPOQZm/IxxRc32Ll26CB7AzNKLF8+7Z88+1Wm2cOHCqpmYGfPHc3obHDn/1s0/3vSiZG727NkVX6Fc682bt13lMwnrhPV4Bc2cdWfkrPugC3CJPL0+ffoKwNKKRQNgmSJFCilatKiqN/7zz1tVHXY3ADvSXvBGDJsT0RgK0W7cr9njmiRJEilRooQq1Xjt2o147dQ3//wev71iwykqxCCdqWLFSpbMp9l64fmtg0OOtb3GGqCeKVMm6d69h+p5AVB3Q556TF9OWA8BrCPHl5F1RtZjGqLun+/cuSvr12+QNm0+sCSv2rd4ATAB7HgNOXPmLPn99yOCa9F9f2afD9VtEE3H5lkAHd6GId0nUaJEpkO6byzffvtt+eSTT1VqkdsWHrPnLyHn96XETJr0jdSvX18yZsyoOvX6xp/f7QVknA/OR1waQH46KqANHvyx2jt1+/ZdV1YnI6xbDOtIT2jQoIGKQsYlvGD/hoUG1SLwejchC1Ug/4eR9fgjdYGMpxX/F3l6iB5GRHwrgD5AdLDaCuY4NPApW7acyrVGd0+k5gCO7F7iEdeHhwtsRMSmWTTTKFKkiOm5/zHHGBtWUa2kY8eO/1eqkZtKzbSZs2fPq7KO8Mu5cuVWaTFWvDmJOef8mSBKDSRcA7BPBE6wLwsVuYYPHyHHj58Q9Bsx01eE8tyEdcJ6vOImrDsP1uFUAOyHDh2W8eO/ULl8VgIIduSjzi02+yCX/fPPx6truXv3Xrx6C5VDxHjh9em6deulX7/+gg2IeLWKtBcrF1KAOhagWbNmq0oGbtkgFap5je9zUSUGaUb79v0qY8eOU5VioF0r55yflXBQ41hxrADq4eHhquILAqBoTofmZ25Iu3yevyKsE9bjhSfCujNhHUaPV4Io+ffhh20lPDxXSAAEVVPKli0rnTt3lq+/niBr165XqR12aO7ji6SjQsjixZEycuQoadasuRQqVEi9jbDyAQcQguokiORPmDBRpRA9z3Hz73pt0vcmCpuIp0+foSCgUqV3VGoM8mEJiAREaiC0GsAbx2TJkqs0S1QfQ3ri5s1bVM8LL/hDwjphnbBusQasdiyIFgNEGzduErJX/L667Pnzv6Xy6KdOnaY2Ap06dUauXLkmiLhjY6zZkRGcH69K8RCD1JyjR4+pSiufffa5vP/++6r6SijgzDc+efLkVfn+qKiD8bBaK/y8v1W6FkrKfvPNZNVtGqUzkWYIUIA2MFcEt9CCG8ffG+OPN7RI4UybNq1KUUPJXOzj+emnjWrNsHtapU5/Sli3GNTwygabmVA5Q6fDYc663kibTiML9bng0ADseENSoULFkJWqA+SgxCM2BKHEVvnyFVS31YkTJ6kICV5lmgmoAHWkPERFnZRVq9bImDFjpWnTZiqSnTVrVkmePHQw5stTx9sH1HLHw4vZDy6h1qVdPx9RduyvwEMkNkjDZ3/66RCpUaOmgnYrNxnrXCN4Lm8ArpvmGWtF8eLF1VvZadOmy969+wV7TOAfsa55yUcS1i2G9SVLlkm9evUI6y+xGozVsIJoIdJQSpYsqcA01E4dudk5cuRQpfOaN28hffv2Uw2HkIaAfgQo/3jgwCGVMoMo+K1bdxREoTJKXE4akBUzag4oR1oDXpVGRi5RDyujR49RKQ6o7oIKApkzZw55tBSpNogcYQzwBsSt1Qys1ruOz8PD4+XLV2X37r2yYMFC9eodOm3ZspWCd9gS3oYgWIIADB5GrU6dCrUd8/P5EBCMBmAnaGKE/SHwfzlz5hT0PUD0vFGjxqqxH9ISsR5s3LhJrQPIS/fqHh7COmE93lftzFl3R9QekQhUOenff4CqEIMIoZ1e6eOVJ5x2sWLFBOVN0S4acP3999MUbKMU5Y4dO9VGQGycPXz4yP9/4UEEeeeISuMVqQ/OR40aLV27dlMpLshDR/QcnxPM4mLGMRh/VM7BAoUHebxd0AGZPId+m8UDImzo3LkLqqQnSpMCJqAvpJhVr15D7c0AcKC/Ab84BjE1gEpDut/KAHhxTmyEj/lZOn7GBk74Y93+EudDFRc85KKPBPaG1K1bV71lHTRosEyeHKF6S6C6ixPL/prlewnrIYB1CJNpMIysm2XUzzsvYAOv95Gnjdf6iGToXjyMAC3AFY4cOYroQwCHjsg3UmawORbOPV++/IK897fe+jcI4G/4d/w//H8ch+Ox4ADSUdUF6SZ2eUDBdeB63nvvPZkz5wdB8yUz04Cepwv+PeFgDxtCKhU2R1+/flNtbjtz5pyK+gEu0GgJqTMxHyT5M8cDGkA6FYDdiI+MfSz8Nxq1DRs2XLvm8CapS5euyn/G/lwjv8Ovd+vWXRYtWixHjvyh1iM08cP+JfjAq1evq7eLeEuKh2P6p2j/RFi3GNYjI5eqp0jCOmE9FE4IsAEniGY/aCKBCAzL1Fn/GhugDh9Qq1YtVQsfbzwwL6HQBD8z4bDOseJYBasBvP2DvzUCurGPRQACG6Dx9jvY63recejZMnToMJXiFftzjfyOtwB4uECp1Od9Nv/+bzsjrIcA1lF3mrBOWA+lQ0KEHYsHIidYQBChYa6tNdAOUMebAzSNQj4mokqh1AI/+98LI8eEY6JbA4T1aP9KWA/OtgjrhPV4QYE568EZl25nr/N82KRz794D9eoUKTF4lWqnlBgjkRs7HwtQx6YqlImcPXuOIIWCEXX32ZdOW+W53KEPwjph3YgtE9YJ64R1izVgxGB1Hgtgx+56bNpEu2ZUR8FmRzvDrpOvDTW6M2TIoDYjIqLO1Bd3QJhOm+S53KsJwjph3Yh9E9YtBjVUqUBUDRvedIIH66y718kbMfCEHItNjVFRp1QeIeqwQ5vY+KhTn14+F6LpAHXUckcK3PLlK1n1xWK/mxA74P+hDzVTA4R1wroRfRHWLV40COvRBgt4Q/UOODBsejQiYh5rbJH1bTpFswl0FkV1Et0Pk16GdYA6qtJ0795DbexFtQNWfTGmWdo8x89pGiCsE9aNaJawHgJYNwOGGFnn4mXEEeBYpMXs339Axo37TFCTPCwsjNH1l/wPl8E8cPg2k6Jr8Y8/zpUbN24JmjoZnSseT3unBpylAcI6Yd2IzRLWLYZ1dCgkrEcbLSPr9lhssMER3UERWd+58xdVSrBcufLMXzcI6oB7wHr69OlV4xzULUYd7osXL6s63V5rl21koeKx9vAVnIfg54Gw/k9Y37t3P4MWAfAnYT2AwdLhqADrtWvX1p5mwMh68E5Ux7w69RxIgcFGR9T/79Wrt1SuXEU1E0Ltdd2d64KJTLvhGKTBoDET6iGjIdrnn4+X7dt3/D+wO1U7vG76HGog4RogrBPWjdgLYZ2wHu/TLUs3JtwhGzFGq44FoF++fFVF0VGVZMCAgVKvXj3VGVR3/X83wLaue0DJRkB72bJl5YMPPpSxY8fJkiXLVBe/+/cfqjQkqzTAz3GXTXM+7T+fhHXCuhE7JawT1gnrFmvAiMEaORbpLmiRHhV1UrW+HjhwkJQoUUI16NEFpDxP9IIU3zj4yjg2aNBAJkyYKL/8skfVXL97955qsc1N1/aHLyO2yGO9N7+EdcK6EbsnrFsMakiDeffdd5kGw2ow8T4kGTHs2McC/o4fP6E2ObZu3UaKFy+uan4nSZKE6S4actPjg/PY/+4r54g3GTlz5pRKld4RNKfatGkz02Ms9smxbYW/ew+krZhzwjph3YjOCOsWLwyLFi0mrP8fHHGDqfmL4u3bd+X3348oSEckHQ+K2bJlE0B6bIDk7wmLiuseJ9S0T5Ysubz99tuCB6nx47+QdevWy+nTZxllt9g/G1lMeaz5/szJY0xYJ6wb0S9h3eLFALBeq1YtRtYZWTctsu7rTHrp0hVV1/s///lK3nmnsqRLl46AHoIoeiBwnyhRIrXBt1279vLDDz+qtyE3b96Wx4+fmKYXIwsIjyWgUgMJ09tAxHEAACAASURBVABhnbBuxFYI6yGCdUTSAlnE4/u/rAaTMIdpxFiccuy9ew9UNB310lEmFJ0zkyZNxnQXm4M6bBzpMdiImiZNGilatKiKtKNSz5kz5wjrFvtqp9g7r9MZvp+wTlg3YquEdYsXgIULF0nNmjXVa+/4ADyQfyesO8NhGzHW+I5FRZGDB3+TWbNmq26ZqDqCGt+B6Ij/NzSpMHGNe+LEiVWUHZV6RowYKatXr1U12hllp63H5wv47/bTCGGdsG7ELgnrhPV4I3Ys3Wg/x+8zemwcRet6tLBHkwnU8K5SpaoA9F555RWCugOi6XGBeuy/hYfnkpYtW0lk5BI5duy4+KrG+HTA7/a1Uc4N5wYaIKwT1o34AsI6YZ2wbrEGjBhs7GMB6hcuXJJp06YLWtrnypVbpbwQ1O0TIY8N3sH8jlx21GgvXLiw9OnTVzZu3KSAPbYe+DvBkBqwpwYI64R1I7ZJWLcY1JAGU6MG02AALKwGY2xROX/+omzY8JMMGzZcpVZlyJBBUL87GBjkMfaHe+SzA9rRCRVNlb799nvZv/+APHjwiA2VLPbjRhZdHmvM7zl1/AjrhHUj2iWsW+zkFyxYSFhn6cZ432Y8z6h9lV4QTcfGwy5dukqWLFlcu3kUgIovlDfEgwg2X7755pvqC6k+vi/8DSCLf3/ttddUChCOc+tDSFhYmJQuXVpGjx6jgB3NrvCW5Xm64d+9CYicd/vMO2HdD+tDhw5TaZvUZ8L1SVgPAaxXr16DG0wZWQ8KrNCFFM2NsOEQuelIjQCguhVMkc4DCE+ZMqVq4pQ9e3bJmzefeiuDNzO+r/z535Lw8HD14IISlWFhSV39lgHjAmDPnTuPNGrUWJYtWyF408LFL+GLH8eKY2WlBgjrhHUjeiOsE9bjXeC5wTT0i9qTJ8/kypVrsmrVGhkwYKCKqqK8nxMjx3iwQJQ8VapUqnsnShRWrFhJlZls0qSpoMZ49+49pF+//jJkyFAZNWq02jiLevETJ06SiIhvVQoI0kB8X1OmfCfffDNZJkyYKF9++R8ZO3acDB8+QgYP/lg++qiPdOnSRdq0+UAaNGio3myVKVNGgX7mzJkV2Ds1xx8PargH3Bfufc+efYLSnUYWBR4benvnHLhvDgjr0bCOynWIrMNXUecJ1zlh3WJYnz9/gVSrVp2RdUbWE+yoHj58LOfOXVCgDpBFNB2pHnYHdV/6CrqlxoyM58mTV4oVK6aag+F+PvnkUwXh8+bNVzn4+/b9KqdOnZEbN24J3iQE69CfPv1LUM4SzaH++OOo7Nz5i6xYsUqmT58hn332uYL4pk2bqQcF5IH7IvMYX/RBQETfKRCP68QDCPYvYPxu3brDPHaLfXuwOuVxCQcWJ48VYZ2wbkS/hHWLHTphPdpgAZrcYJqwRQqgiQhypUrvqC6kAHUnpL0gzxyQjsh548ZNZODAQYIIOOqFY2MkShACypG+gbcGgPM7d+4qwAak420CcvSDdXAoa4njkcuNBx5EnG/fvivI7wbAnz17XqKiTqkGUjt27BJ0Fx4//gsVhUeqGsolIhfeCWMNe/KlxeANwtKly7nx1GLfHqxOeVzC/KDTx4mwTlg3omHCusUOHbBetWo1RtYJ6y+EUIAmamlv375DpYFAMylSpLB1pBd54tmyZRM0Y0IedY8ePdUGyKlTp8ny5StVZPvEiSgF5QBxI45L57EAelRUuXjxsqqFvGnTZsFG8EmTvlFRf0T/a9WqpcomIh8eDyF2BXi8DciZM6eqyT5jxkz1MIQHFZ3jxXN5Ay45z3rnmbBOWDdiU4R1wnq8Czlz1vU67fgMFqB+8+Zt2b17r8rbLlKkiO1SXgCriPAD0NElFYBYtmw5ad26jcovR/QcUWsngyLSaBCJR1rJnDk/qDcDderUUaUT8VCCnHtE3u2YKoNrwz6AH374UW1IxpsK6Co+7fHfrbV1jrd3xpuwTlg3Yu+E9RDBetKkybQCGDZtYDOeGZs2COvWLSgAKoAVItFIZ0AeNXK+7ZafDlAHEFaoUFE16QEUIif85MnTKsUEkIv7MJLGYsSx6TgWc+HLe0fqDNJ1fv/9iGpIhM2uLVq0VKlcAHY7zg/exCAFacyYsf8P7DrGheewzh9wrN0z1oR1P6ybxSputhfCusWwjk10KLlHWGfOemzHgtQQ5FJDIx9+2FZFq5HWYBcQRAUXVB4pV668asqD8pGIOCNVB/nf2MwZ+57c9jvmCHn1gHa8PZg8OUL69u2nuseiuyg2piJNxg5zhog/HvQwX6i+8Msve9QbG7fNCe/HPUDr5rkkrBPWjeibsE5YjxewGFk3dzH0RXDR6AjVSt577z1VU9wOwAfwRKoL3twUKlRIUFoRpRF37NipoNXJkXMjjtN37OPHT1SlHmzoREnNd96pLLly5ZbUqVPbppoMHrLwhmbkyFGCjbTYaOv1efPNH7+b69s4vv7xJaz/E9aR5kl9+PUR31gQ1kMA65UrV2FknRtM/99R+XKjUVIQG0lROhCAFWpYR146IsVIdfn4409U6UhUprl8+arcu3dfpYjE52Dc/u940AKwo1TimTPnVJUbbKj94IMP1ZsRdFi1wzwiVQd59r17f6TSlViLPeGLpNs1zPuzRguEdT+sf/rpELUni9pLuPYI6xbD+ty581T0jWkwTIOBowLoIYXk+++nqVQKNDoKdQ11pN6gbCEi/IgWz5w5S6VQXLt2Q5VTpION28H69htgY+3atevlq6++lg4dOqiNt8jvD+W84sELaTFI1enZs5ds3rxFrl69/v8PjJzTuOeU48Jx0aUBwjph3YiWCOuE9XgXbKbB6F+wfKkvAPXFiyNV5Q7UJA9VFBYgh+grShOi+kz79h0ED5a4PjxQGHEyXjwWaSaohIM88c8/Hy81a9aU3LnzqPKboYR2zDP2HeAhDMCONyRMidFv317UPO/5xToirBPWjdgIYT0EsI7mNoysezuy7kt9QUQdekDkNZQbEwHq+fLll27dusuyZSvk6NFjqh46QB0PFkacjFePBQQj3QR7EX799aCq216vXj2Vzw5oDtWD2RtvvKGAHXXwo3PY73N+LV4HvGoTXr5vwrof1tG1mjnrL364i20rhHWLnfSPP85VcEZY9y6so6IIGvAgR71Bgwaqy2cooq0ARuRUY+Mo6qMjbWPLlp9VTjq6fsZ2Fvw9MOfqGy9fegzy/dElFfn/iLQjwh2qvQmYe6TE9OrVW20WRvdY3/Xye3DzzHHjuL1IA4R1wvqL9BHfvxHWQwDraFZCWPcmrAPcsEETZf/Q0h456qGIsPpSXooVKyb9+w9QtcNRkjA+h8F/NwYkeFNx7twFQXfRxo2bSJ48edUm3lBE2vGZ2HQ6bNhwtekUaTtMiTE2v7QPjt/zNEBY/yesI0XweWPFv//bjgjrIYJ1lMPTCWlsivRvcdvN4AHqgLWFCxdJ3bp1VX54KCLq0B3yp1HLHaUiT5yIkrt377G6iwW+wKcBbNZFaszEiZOkVq1aqh661cCOTafYTIzus6jOgNQnJ3ectZu983rs75OtnCPCuh/W8XaRsB6YfRDWLVigYzoEdHpEKTzCuvci6yjvt3LlamnXrr1kypTJ8hQIpFykT59eateuLWhotG7derly5Zow5SUwpxnTno38/ODBIzly5A/VWKpr126q26jVm4wB7HhgLFu2rKrDDmDHdRm5Lx4bGj1x3O097oR1wroRGyWsE9bjXZhZDcb4IoCqG3v37legjrKIOt+qxHcuRGyRm44Iap06dQT7JlBe0Ijj4LHGNeEbQ2jj4MHfZPDgj6V8+QpqA6rVb1yQFoUcdpTpjIo6yXQYi9cFnxb4XZ9d2W0sCeuEdSOaJKxb7JQRWceCzMi6tyLrO3f+omAM3S2RehAfYOv8d4B6wYIFxbcDH9H0R4/+JKxbbPvPc9TIE79//6HKZZ83b77a7IsSmlamxeCz0ACrbNlyquY/Szq6Fxqfp0P+3dw5J6wT1o3YGGHd4gV7zpwfpFy58oR1j3QwRQ7w8eMnZOzYcYLNnEmSJLEU1LNmzaqaG3355X9k167dbDVvsb0H4pyRz3769FlZvnyl9OnTV0qVKqXeiFgF7SgdmiJFCmnatJmqWoMKMbimQO6B/9dc4OP4Ond8CevRsJ4hQwYVuMJ6RD0nXM+EdYsXb8J6tMEicvzWWwUEDsytQIASjaixPW3adFX5RWe0/EXnQh4yamkjP71Ro8aq8gi6Vbp1nN3m8JEzDrsYPnyEymMHQFuZFoMHPAA7NoBh47Hbxpf3k3BA4FjpGyvCOmHdiD0R1kMA63jVzDQY98P69es3Zf36DVKlSlXV9OhFgK3z3xAhzZIli/Tt20+1vcd14MHBiKPgsfoW7fjGEmkxAHa8kcH+gsqVq1ha4hMPeuHh4TJo0GDVNCm+6+W/W6cNjrVzx5qwTlg3Yr+EdYthffbsOSovlLDuXlhHBBslGlFtpXPnzoKymlZ0J0W6BDYKlilTRoGWr8GREQfBY0MHB9hXgLSYWbNmS8uWrVRNdIC0zge7550L6VpI2/r88/Fy6tQZ7nGweJ2g3YXO7swae8K6H9YRCGAaTGAaJ6xb7ISjYb0sI+suToMBZJ08eVpt6ASoW9GlEg8DaLSFjaRIn0C3TNbMDswZmrVIGzkvouyYx8jIpdKsWXMF7Hggex5k6/w70qnef/99waZXbEpmwyTn68mIFnmssfknrBPWjdgQYT1ksB6mdcFlUyRjjtSIEcU+9tKlKyoiiao/AHVAj06IiutceFNTvHhxmTp1mqrdDcAjXNlHE7E1EsjvmEds9tyxY6d06tRJ8ubNZ7qefBpDVRoAe/Tm5PtMpbJ4vQhEJ/y/9rZ3wjph3YiNEtYtdr7+yDph3Y0bTC9fviqrVq1RXSkBOj7oMes7IuoouYcumBMmTJRjx46rMoBGnAKPtd+ij9Sq27fvyoYNP6lKMXiDgpKcZunKd148bObIkUO9JQKwc5Oy/bRBe3XGnBDW/bA+cOAgQTljajfh2iWsWwzryD9FTnFYGGHdTbAOiMEmzq1bt6mNnajE4gMes74D1FEpBHr65pvJgoov3EiacOfnxIUCOvv5563Su/dHkjt3HkuAHQ8FhQoVkq+/niA3b96Wp0//4iJr8brhRK3ymv/piwjrhHUjNkFYt9jpEtajDRYA6yZYBySj6spnn30u6FBqReMjRNQB6r6OpLgGRj7/uUAacY52PRblFPfvPyAffdRHQbRZD4O+82LjMoC9SZOmsnTpcrl16w5h3eJ1w65a5HUl3N8Q1v2wPmDAQEbWA/QhhPUAB8yocwKsly5dmpF1l8E6cornz18g9erVU6BuZp464Ak56jVr1pRJk76RqKhTrNZhsR0b9QNGjwewI8KO8pz58uVXVYB8cG3W9zx58qqc+YMHf1OlJY3eA49POOhxrJw/VoT1f8L6jh27+NAfwLpFWA9gsHQ4zJkzZxHWX4o2WrdE1rGZEwDTokVLVa3DLFjCefEQAFB/++23VVoCqnQw9cX5C3kwvgVvUTZu3CRdunSR7Nmzq0ZYZmoPjZkA7PBhKOcYzDXzGG9qlfP+t2p0VqBAAa3pkXjjhf0r3303Vbs97tmzT4YOHaZKD+v0K+hg2r//APZwCJA9CesBDphRp4OFDm3EmbPunjSYo0ePyeTJESrCaXYdbKTX4CHn22+/V+UZmfribfjBplNEqFCHHRtBdS6qsc+FB0Xskahdu7YsXhzJlCuL1w6jaw+PD62vYGTdH1knrAeuRcK6xQ6XsB5tsAABp0fWEdlETfUFCxaq8nbJkyc3DZYASkh/wYMeoh2HDx+Re/ceaI+mcEEP3ImGcsygQWz6RC55mzYfCCoQIQIeG7R1/Y7qMJkyZRJUc2Atf2dpJZQ65Wczsu7zQSi+0K9ff1WKlrpIuA8hrBPW4wU+vGIzo1Sc02Hd1/wIUQKAupldSn2QhM9ChAbt6OnoEu7o3DxWvofGH374UapXryEpU6ZUD3a+xdGM79WqVVc1/ZGGhc938/jy3mhnOjTAyHp0oI6wHpw9EdZDAOslS5ZkGowLIusolYj0lypVqipQN3NTKSKm3bv3UHW2AepseBScw9Ox6NrxHADms2fPq7c8aI6lO80uNvBjwa1bt67aq/H48RPCusXriB01yGt6sU8irPthHRvj0eSNmnmxZmKOD2HdYic7Y8ZMIaxHG62TI+tIQcEGnEaNGkvmzJlNSzsAJOH8qDKzYsUquXjxMh2cxTYb02Ha+WdAc1TUSRkzZqyULVtORdfNeoDE3gx0Uo2ImCLYs2HnceG1JRwIOFbmjRVh3Q/rffr0le3bd9BvBLCWEdYDGCwdjgywXqJECe2Rr4wZM8qQIUMVQOq4zpjnYBrMvx04yiVOnTpNcubMqSq0xI486vgdOerYUIrUhoiIb1XTo5jzwp//PS9eHxNUJgI8I6ccVReQPqVDi3GdA5tNGzRoIJGRS+TPP58yHcbitcTrWnfa/RPWCetGNEtYt9jBEtajDRaLv5Mj65GRS1UaAIAlLpDR8TeAOrpUjh07TkXUAURGjJ3Huh/ukR4FYF+7dr107NhR0qRJY5o+sZE1bdq0asPzpUtXFLBTY+7XGOc4uDkmrPthHQ3dGFkPTEeEdcJ6vADIyLrfqJBqcO7cBRk2bLhkzZrVtNrW2KyaJUsW1fRm69ZtKkedG/n880BgePFYQKMor4j9FKlTpzYF2JFiA53Wr19fRddRlYbz8uJ54fh4d3wI6/+E9W3bttNfBMCfhPUABkuHo50+fYZgA1iSJEm0LqBMg7FmEUBd61Wr1kjDho20zl/sSDwAC+kvAHV8pg7t8RzWaMQu43zhwiUZPnyE2iMDqDYrfx2Nkrp06SonTkSxQZfF64ldtMbriN+3ENb9sN6790dCWI9fMzHtirBusXMlrDs7DQYVN3r06KkaIMUGbJ2/IyI6Zcp3AuB6+vQvwrrFdhrTSTr1Z6TDoBY6XjmbWVr0zTffVAGIdevWy40bt6hVapUaiEMDhHXCupG1hLAeh1EZGdD4jgWsFytWjJF1B+as4zX/Tz9tlAoVKir40QnnvnOhyka2bNlk8OCP5ciRP1T+cXya4r8HFqHwynghfx1lPhctWqw2gpq1vwIRezRKwgb33bv3EtQsXlO8omen3ydhPRrWUYa4V6/e6q2x0+fUyusnrFvsWAnrzo2sHzp0WD777HOVS+6Da53fAT2pUqWSBg0ayrJlKwg9FtumlY7Xys9COcdp06ZLgQIFVHUhnZr1nSssLKl6iJ01azYrw1C39F1xaICwTlg34vcJ63EYlZEBje9YwrpzYX3BgoUqjzxZsuSm5KujzB4q5Myfv0BtYo1PS/x3RtQTogF02j18+Ii0bdtOwsPDTdEucuJhF4MGDVapW6xcRG0mRJte+j+EdT+s9+zZi5H1ANmTsB7ggBl1LohwMQ0m2midUroR4HH58lW1WQ+v+82qXY2Nep07d1ZgBcAyqjUeT2DyaQApXEiHQeUW6NeMzaY4J86/dOlyuXXrDvVr8drim2t+t6fdE9b9sI59Xz//vJU+IgAfQVgPYLB0OEHA+ttvv82cdQflrN+9e085lhYtWpoSlQTkAKCQ/oIGMwQdey62Ouw/VOd48uSZXLt2Q0aNGq064pr1wIlUG3QnPH36rCo3Gqr75efShuymAcI6Yd2IJgnrhPV4n269Xmf94sXLMmLESNV51pejq/M7wClz5swKpABUACsjRs1jCSqxNYAa/dAVyo62afOBabXXfbnr2GiKajSxr4O/U5te1QBh3Q/r3bv3YGQ9QPYkrAc4YEYdDSPr0QYL2HVCGgzSUQ4cOKS6laZPn96UyDo2lSJqv3LlakYjLbZHo/bstONPnToj2ARasGBBQclFnQ+dONcrr7wi4eG55Pvvpwk2tjptfHi9fJgwSwOE9X/C+pYtP9M/BLDeEdYDGCwdRgxYL1q0KNNgHALrV65ckyVLlgnyyQEiuuEGUfV8+fLLzJmzBCClQ2M8B4HjeRpAzX7UXm/cuIkqt6hbzzhfmjRppH37DrJhw0/Us8Xry/PmnX8PvU8grPthvVu37kJYD0yThHWLnSlh3VmR9Z07f1EVLtAh1gywyZAhg6qBffDgb8JNpYE5LwJI4OOFdJirV6/L1KnTpFq16qZoGhF7vDVDUy98Hucp8HnimLlvzAjrhHUjdk1YtxjWsUgysh5ttHZPgwFozJ07TypXriJJkyYzBWwqVqwkEydOEkTwjRgyj3Xf4m7WnCKX/PffjwhafpvR2dRXxnHAgIFy5sw5efz4CbVt8TpjlnZ43uD9DGE9et1PmzatdO3aTTZv3kK/EIBfIKwHMFg6HBVgvUiRIkyDsXkaDLo/3rv3QEaPHiNwLq+99ppWWEdKDSKQXbp0FUTV0WlSh754juAXU6+MHR5CkQ6DjeNmBA58b6CQarNmzTq5c+cutW3xOuMVLTvpPgnrhHUjeiWsW+xECevRBosF3c6R9fv3H6qNpZ06dVKgrrsuNUAdueqIqgPU8XBgxJB5LCE9EA0A2Ldv3yF9+/YTszZOlyxZUkaOHCWophTItfH/Ustu1ABh3Q/rCFIxsh6YnRPWQwTriRMn1hqpRU71kCFDZc+efdoXRi+Wbrx+/aaqmlGzZk2t8+SLOmITXrt27bkJz2L7cyMEBHtPFy5cksWLI6VQoUKSKFEi7TqHT2rYsJEcPXpMRfKDvU4eF9iizvGy53gR1mPCehfZtGmzdlZxs/YJ6xbDgi+yTli3b2QdUUfk2iKnF9F/H2Dr+o6c3ty587ACjMW252ZHHsy94W0OQLpevXqSLl067TpH6ljhwoVVPeV79+5zYabePa0BwjphPRg/7TuGsG6xAyWs2z8NBvm8hw8fkSpVqkqyZMm1Qww29WHT6r59v7ICjMX253N8/P63qtRy6dIVGT/+Cylbtpx2nSN1LHv27DJ5coQcO3bc06BGvdkz2m3lvBDW/bDeuXNnRtYDXPsI6wEOmFHjRrMQRJsYWbdvZB1dRNGgCFF13RtLEZ1HQ5p+/frL2bPnCTAW259R+3Xb8Yh4I3cdXU3xxkf33gxszubCTFB1m90Ecz+E9X/C+saNm7j+BbD+EdYDGKxgDDT2MYR1+0fW4VS/+OJLyZIliynRRqQdREYulVu37tBZWWx/se3R67/jLRKqtYwYMVJSpkypgF1XuhfOExaWVEXtZ8+ew5rr1Lqn/R1h3Q/rKNxAWA/sIZ6wbrEDJazbH9bXrVsvH37YVlKnTq0V1hG1fOONN6RPn75y7twF1p+22Pa8DuZx3b+vjOOcOT9IpUrvaO8ngDdTqVKlkrFjxym94/Piug7+LbCFm+PlvPEirBPWjdgtYd1iYACso/oC02DsmwYzc+YsKVWqlISFhWmFdV+5xkmTvlG56izX6LwF14iztfOxSIXBQ6TuMo54QAWw9+zZS6KiTnGPhsXrjZ0157VrI6xHwzoqoXXs2FF++mkjH9wD8AeE9QAGS4dzIazbN7KOqN+jR3/KmDFjVVRdd7460gzQKGbFilV0UhbbnQ7bdfM5sH/ihx9+lFy5cgsadulMhcG5oPu1a9ezQRJ171nfR1j3w3qHDh1YtjhAX0BYD3DAjC7YhHX7wjraop86dUZ69eptSiOkzJkzy7hxn6mOpUZ1xOMZldepATyk7t27X+WXJ0mSRDusV6hQUSZMmChXrlzzLKzpnC+ey3n2T1j3w3r79oT1QG2YsE5Yj3fx9EpTpLt376lNL82aNdcOK4jSFyhQQEXVUW0mUEPl/3fe4uykOcNbpZMnT6tGXeHh4dr1nzdvPunWrbvqX+CkceG10u50aYCwTlg3oiXCOmE9XnD0CqxfvXpdpkz5TtVX150GgHrtqNv+++9HhLnqBAAjTtusYxH1RvQbUXDd+scm01q1askffxyl/i1ec8zSC88bmB8jrPthHd2716/fEC97UGN+jRHWLXacTIOxbxoMKrT07z9A1UHXDSuILHbv3kNOnz7LEnYW2xwdvt/hv2gs8GYJLcCbN2+hHdbxZgn9JXbs2CUPHjziIk0b8JwGCOt+WG/bth1hPUAfQFgPcMBetNgl5N8QpWY1mGijRdMhODC7lHOLijopDRs2kgwZMmiHFXQsjYj4VhC9T4hO+H8SBpgcJ33jhD0beGDt27efJEqUSHuDpPDwXLJgwUK5cOESbcDidYd2os9Ogh1LwjphPVjt4DjCusVO06yUkowZM8qQIUNlz5592hdCs67ZTrD+5MkztfGzdOnSghKLuiPrLVq0lC1bfhZEL40YLI8N/aLr1jnAQzOaJKEhGEo4vv7661rtAE3GuMGa+nWr/cR3X4T1aFhH/xL0MUE/k/jGjP/u9xeEdcJ6vAbjBVhHN1Hk0OXLl1976TqUwkMN64sXL8uffz6Nd7zpoPwOimNh7VgA2NEgqXz5Cqr7qM6H1rRp00rXrt1k8+YttAGL1x3akbV2FNd4E9b9sP7BBx8S1gP0AYT1AAcsLiMM5G9mgS8j68acMSphTJs2XXLkyKE1mojoZLp06eSzzz5nIySLbS0Qu+T/9dsPHlqxAQzNS3TCevLkyaVOnToSGbmUsE5b8JwGCOt+WG/T5gPVd4F+1+934xsLwrrFTpOwHm2wgAA7pcGgxvSwYcMlU6ZMWgEFNauLFy8u06fP8NziFJ/z4b8n3FFbOVYHDhxSjcHQF0AnrMMWihYtKlOnTqMtWLzuWKkfflbcdk1YJ6wbsQ3CusVOk7BuT1hH62O0QNYdTWTX0rgXLiNOi8eaO6bnz1+U+fMXiO5666gIA/saP/4L22wqp5bM1RLH1z++hHU/rLdu3YaR9QDZk7Ae4IAZdT6EdXvCemTkEnnvvfcEr+p1RhNRWWbAgIGqZJ1R7fB4/8LHr9C1NQAAIABJREFUsTBvLO7deyDbtm1XpRYB2Lrs4eWXX1ZVZj79dIjaaI3NrJxH8+aRY2uvsSWs/xPW16xZR/sPgD8J6wEMlg7nR1i3J6wjTaVYsWKiu9V6tmzZZPLkCDl27Dgdk8W2psNevXgObDJF86JKld7RvskU4N+jR0/VbwClIr04vrxne0G0VfNBWPfDeqtWrYWwHpgdENYtBgjAOuusRxutnXLWv/56gqC03BtvvKEtkggwyZUrtyxbtoL11S22M6sWYLd+DjZcY0HFw6auyLrvPKgEsWvXbkEE363jx/sKDES8MF6EdcK6EZ0T1i2GCHYwtVdkHVFElFMcOXKUiiKizKIPKox+RwpBkSJFZOfOX+Thw8cEE4ttzYhj9PqxyFsfOHCQSoUxagexj2/QoKEsX75Sbt++S5ugTXhGA4T16LU/VapU0rJlK1m9eq1n5l7HekJYt9hZEtbtBevIm0WNdYAJcmpjg4WR38PCkqpUgqNHj9EpWWxnOpyjl89x5co1mTBholSsWEmrTcCeqlevoaojXbt2g3ZBu/CMBgjrflhHk8BVq9Z4Zu51rCWEdYudJWHdXrD+6NGfEhV1Srp1664dSlAGsmnTZur8OoyV5+Crdas0cPPmbVm4cJG8//772u2ibNmy8vnn4+XSpStcrC1ef6zSDz/n376KsO6H9ebNWxDWA7R9wnqAA2bUCRHW7QXr9+8/lD179qn2x0ai6HEdi26o2Ex35sw5QonFdmbUTr1+/N2792TLlp8FEbC4tG3kb0gNGzRosCDVxuvjzPv/N9S6dUwI64R1I9omrFsMEYR1e8H6nTt3BR0bmzRpqh1KSpQoIcOHj5CLFy8TSiy2MyNOkcf+rfZY/P77EenUqZN2u8Cm686dO6uKMBxr78Cq1+easO6H9WbNmsvKlau5LgawLhLWAxgsHc6GsG4vWMfr/kWLFqs26EaihXEd+847lVXZxqtXr9MpWWxnOmzVy+fApuvLl69Knz59tcM6OqNisUb6mZfHmPfurQcVwjph3YjNE9YthgjCur1gHZvcpk2brja9xQXcRv5Wu3ZtmTt3nty4cYtQYrGdGXGKPPZvefbsv4IUMTQwQlUjnZuvU6dOLbCN48dP0C5oF57RAGE9eu1HV2/s5WJkPbCHVcK6xc6SsG4vWEfVC9RYr1ChovYIYqNGjVXjB5aoC8wpEZbtMV4oazpmzFjtJU3DwsKUvbFKkj3mmfZmzTwQ1v2wjrTTFStWeeZBTYeNEdZDAOuFCxeWxIkTa4XDjBkzypAhQ9VmSR3CiHkOs7qu2qEpEvLJR40aLaVKldI6H4jIt27dRnbs2Cn37t2nU7LYzmLqlz8HDyNfffW1oKrR66+/rs0+EKlHt2DkxHNugp8bjp2zxo6w7of1xo2bENYDXBMJ6wEOmFEHicg6YT3aaO0A66hI8fHHn0jRokW1wYgvdaZDhw5y6NBhefDgEaHEYjszaqc8PhqEIiK+lbx588mbb76pzT6QUlOwYEH59deDgj4HHGtnQSfnK7j5Iqz7YR1vndEYjVpKuJYI6xZDBGE92mABtHaA9bNnz8tHH/VR1+KDbF3fUbsdm+hQy51OKeFOiWNln7HCfg5EwZMkSaIN1mFfKGu6a9du2obF6w9tK3S2RVgnrBuxP8K6xc6SsG4vWEcN9C5dukru3Hm0wgiABA8BSLNBZQ0jRspjQ7fAen3s58z5QcqVK6/y1nU9xOI8iNajjjtTxKhtr9gYYd0P6w0bNmJkPUD2JKwHOGBGHQth3V6wfvr0WWnfvoOEh4drh/X+/QcISkM+efKMsG6xnRm1Ux4fDZHz5y+QqlWrSbJkybXaR548eVV/g1u37tA2aBue0ABhnbBuZF0hrFvsKAnr9oL1U6fOSJs2H0j27Nm1wgiih4MHfyz37j1QZfCMGCmPZfQxVBpYvDhSlVlMnlwvrKMxEkq3Xb9+0xOgFqr54+fax3cQ1v8J68uWraDtB8CfhPUABkuH4yOs2wvWT548LS1btpKsWbNqh3XUqH78+ImgBJ4O7fAc9ll4vTIXS5Ysk3r16kmKFCm02gdgHYs1G4ZR016xJcI6Yd2I1gnrhPV4QdLNpRuxAbR58xaSJUsWrTCCyPrQocNUtQvCOoHEiJMO5bEA6gYNGgoamejMWQ8PzyWRkUtUl9RQ3h8/m7ZplQYI635Yh09hZD0w2yOsWwzrU6dOkyJFirDOuk2qwQDW0focLdB1wgjONWzYcKbAWGxfVi28XvkclFdDmTUzYH3RosVqA7ZXxpL3GRicuG28COvRsI63dIT1wG2BsG4xTBDW7ZUGA1hH62PCeuDOw22LKe/n3xpAl0E0MNEP6+GycOEiwrrF6w81/m+NWzUmhHXCuhGtEdYtdpaEdcK6EYPlsaFbbL049oB1tAYnrFN3XtS/znsmrBPWjeiJsE5Y93zOOiPrBBEjTtTNxxLWaRtu1reV90ZYjwnrDWTp0uXxsoeV82P3zyKshwDW0dped0fAjBkzypAhQ2XPnn3aDcDtG0wJ6wQSuzvqUF0fYZ22ESrtue1zCet+WK9fvz5hPUD2JKwHOGBGHQjad7/99tuEdRttMCWsE0iM2rVbjyes0zbcqm2r74uwTlg3ojnCOmE93kg8I+vRTibQajGsBkPQMeKc7XAsYZ0atoMO3XANhPV/wjp6OLhhXq26B8J6CGC9WLFijKwzsk5HZbHtWeVU3fQ5hHXCupv0HMp7Iaz7YR2N1gjrgfkWwrrFwDB9+gwpXrw4YZ2wTli32PZCuVA79bMJ64EtqE6dZ163+fNMWCesG7EzwrrFwDBjxkwpUaIEYZ2wTli32PaMOEqvHktYNx/ivKotr903YZ2wbkTzhHWLgQGwXrJkSQkLC9PaMZPVYIJbVNkUKbhxM+J0eKxzxpyw7py5ol3Ze64I635Yr1u3LtNgAmRPwnqAA2bUIc6cOUtKlSpFWGdknZF1i23PqO168XjCur0B0IuadOo9E9b/CeuRkUu5BgawBhLWAxgsHU5i1qzZUrp0acI6YZ2OymLb02G/XjsHYZ2w7jXNm3W/hHU/rNepU0cI64H5FsK6xcAAWC9TpgxhnbBOWLfY9sxahN18XsJ6YAuqm7XAezOmBcI6Yd2IDRHWLQaG2bPnSNmyZQnrhHXCusW2Z8RRevVYwroxQPOqbnjf/9YNYZ2wbsQuCOsWA0M0rJeTsLCk3GD6VgGBA/vrr/8JGbhyg+m/FxUjDoXHums8Cevumk/aZ+jmk7BOWDdif4R1i2F9zpwfpFy58oR1RtZD9oBixGHw2NAt9qEYe8K6t+Y7FBrzymcS1gnrRrROWLcY1n/44UcpX74CYZ2wTli32PaMOEqvHktYJ6x7Vfu675uwTlg3oinCusXAAFivUKEiYZ2wTli32PaMOEqvHktYJ6x7Vfu675uwTlg3oinCusXAMHfuPHnnncqSNGky5qwzZ53AbrH9GXGWXjyWsE5Y96Luzbhnwjph3YiuCOsWw8K8efOlcuUqhHVG1gnqFtueEUfp1WMJ64R1r2pf930T1gnrRjRFWLcYGADrVapUJawT1gnrFtueEUfp1WMJ64R1r2pf930T1v2wXrduXTZFCnD9I6wHOGBGDXj+/AVStWo1SZYsOdNgmAZDYLfY/ozar9eOJ6wT1r2mebPul7BOWDeiLcK6xbCwYMFCqV69BmGdkXWCusW2Z8RRevVYwjph3ava133fhHU/rNerV0+WLFnGNTCANZCwHsBg6TDehQsXSc2aNQnrhHU6KottT4f9eu0chHXCutc0b9b9EtYJ60a0RVi3GBgWLVos7777riRPzjSYt5gGQ2C32P6MOEsvHktYJ6x7Ufdm3DNhnbBuRFeEdYthITJyibz33nuEdUbWCeoW254RR+nVYwnrhHWval/3fRPWCetGNEVYtxgYIiOXSp06dSRFihTcYMrIOoHdYvsz4iy9eCxhnbDuRd2bcc+EdT+s169fX5YuXc71L4D1j7AewGDpMGBsqsDmCsL6S8I0GIKADpviOczTEWHdvLGlbr01toR1P6w3aNCAsB4gexLWAxwwow522bIV0qBBQ8I602AYVbDY9ozarhePJ6x7Cyi9qHGr7pmwHg3rKVOmVAwEFrJq7N3wOYR1i4Fh+fKV0qhRY4FgX3opWrw6vmfMmFGGDBkqe/bs024A3303VQoWLCiJEyfWes2MrBME3OBE3XwPhHXaqJv1beW9Edb9sN6wYSMhrAfmWwjrFsO6WYsfYT0w4fucdFTUKWnatJlkzpxZ64MIHsCGDRsuz579V/vDk+/a+T24Oee4JXzczPJX4eHhgjK2Fy9epn1YvAZR/wnXv86xIqz7YR0BSwQudY6v289FWLfYUa5atUaaN28hqVKl0gqHhPXgHDBhPbhxc7tj5P1F64KwTvugLejRAGHdD+uNGzcR+BZqK+HaIqxbDOurV6+Vli1bEdaZs05HZbHtcWFI+MLgGyvCeuBj5hs7fufYxdQAYd0P602aNCWsB7j+EdYDHLCYxhfMz2vXrpfWrdtI6tSpGVln6UYCu8X2F4zNevkYwjqB08v613nvhPVoWEdWAVJPV65czfUvgPWPsB7AYOkw3PXrN0jbtu0I64ys01FZbHs67Ndr5yCsE9a9pnmz7pew7od1pAIjJdissXbjeQnrFgPDhg0/SYcOHSRNmjSMrDOyTmdlsf250YmbeU+EdcK6mfry0rkJ635Yb9GipSAl2Evzb/ReCesWw8LGjZukU6dOkjZtWsI6YZ3OymL7M+owvXY8YZ2w7jXNm3W/hPVoWEcKcKtWrWXNmnVc/wJY/wjrAQyWDiPevHmLdO3ajbDONBg6KottT4f9eu0chHXCutc0b9b9Etb9sN6mzQeC/XtmjbUbz0tYtxgYfv55q/To0VPSpUvHyDoj63RWFtufG524mfdEWCesm6kvL52bsO6H9Q8/bCvr1hHWA9E/Yd1iWNi2bbt89FEfSZ8+PWGdsE5Yt9j+AnGO/L9/q/JqKLOmu+MymyLxIcBr9kVYj4Z17Ndr1669YP+e1zRg5H4J6xbDwo4du6R//wGSIUMGwjphnc7KYvsz4iy9eCwj64RqL+rejHsmrPthvWPHjvLTTxu5/gWw/hHWAxgsHQa8a9duGTz4Y8I6c9bpqCy2PR3267VzENYJ617TvFn3S1iPhnUU1+jcubOg2IZZY+3G8xLWLQaGPXv2yZAhQyVjxoyMrDOyTmdlsf250YmbeU+EdcK6mfry0rkJ635YR5ENFNvw0vwbvVfCusWwsH//ARkxYqRkypTJ87COvNX58xcIHmD27t0fkq9ly1ZIjRo1tVfneemllwSv+kJ5b6EaU35uaLRsxrh/9dXXUr16DUmWLLlWf5U5c2YZN+4zVRHCjOvmOd2jQbfM5YIFCwVrHtYGXV+JEyeWggULynffTdUOvli7hg4dpj2wiOIaKLKBYhtGAdZLxxPWLYb1gwd/k7FjxwkWK10Gi/MgUo+IPQxMt4DhCOAQ4Bh0XjNeh3Xp0lWGDRsesq+ePXupe0uaNJnWe8M4Var0TsjuK5Rjys8OnZ51jz06DRYoUEC77WPDauPGTaRv3360kRD6P9164fmeb/tY63T3V3EirKO4Ru/eHwmKbehmFTefj7BuMazjVdj48V9IlixZtMKhE2H9tddeU84LbxlC9YWnfDi8V199Vet8ANbxABCq++Lnhk5Tbhr7VKlSKft45ZVXtNoH7A3AjoXbTePFe6HdPU8DAHWseToDXk6F9X79+suOHTsJ6wHwJ2E9gMHS8dT2xx9HZcKEiZI1a1atRutEWNfptHgufa9WOZYcS2qAGqAG7K8BJ8I6KuENHDhIdu78hbAeAH8S1gMYLB2wfvz4CYmImCLZsmUjrGvM3ePCYv+FhXPEOaIGqAFqQJ8GnAjrCCx+8smnsnv3XsJ6APxJWA9gsHTAelTUKZk6dZpkz56dsE5Y16oBLoL6FkGOJceSGqAG7K4BJ8I60oSwtwEbh3UwlVfOQVi3GNbPnDkns2fPkZw5c2oFNabBcGGx+8LC66NGqQFqgBrQpwEnwjqKa4wePUYOHDhEWA+APwnrAQyWjie4CxcuqXKFuks4Edb1OUAuJhxLaoAaoAaoAbtrwImwjuIaKLKBYhs6mMor5yCsWwzrly9flSVLlkl4eC5G1pkGo1UDdl9YeH2EH2qAGqAG9GnAibCO4hoosoFiG14BbR33SVi3GNZv3Lglq1evldy582gFNUbW9TlALiYcS2qAGqAGqAG7a8CJsI7iGhER3wqKbeiAWK+cg7BuMazfvXtPNm3aLHny5CWsM7KuVQN2X1h4fYQfaoAaoAb0acCJsJ4jRw6ZNm26nDx5mrAeAH8S1gMYLB1PcA8ePJIdO3ZJvnz5tYIaI+v6HCAXE44lNUANUAPUgN014ERYR3GNH3+cK2fPniesB8CfhPUABksHrD958kz27z+gWni//PLL2oDdVw5p375ftRvA999Pk8KFC2tvOW53R8jr42JNDVAD1AA1YFcNANaLFCmiykHr4JOY5wBLDB8+QnUY1nn/2K8XGblELl26op1VYl6/234mrFsM6xDQ4cNHlIHpbHGPckijRo2WX389qN0AZsyYKSVLlpSwsDBtDxc6jZ/n4mJKDVAD1AA14DUNYE0uXbq0zJo1W/u6D5YAU4AtdI4r9uutWrVGrl+/qf2a3QboMe+HsB4CWMcu6DJlysibb76pzQhgUOPGfSYHD/6m3QAWLVostWrVkuTJk2u7Xp3Gz3NxkaYGqAFqgBrwmgawJr/33nuyeHGk9nUfLDF27DjtsI79eti3h/17MWGUP//9wvEgrIcA1o8dOy5VqlSVZMn0wS9gfcyYsaY0Gtiy5Wfp1q27pEuXjrDOTbHUADVADVAD1IANNIA1uWfPXrJ167YXgl4wIGxWZD1//rdk167d8ujRn9qvOZj7dMoxhPUQwPqJE1FSp04dSZMmjTaHh5z1ESNGihk563i4iIiYImjkpDN1x2tREN4vI3/UADVADVADOjSAtRj531OmfGdKGcQ9e/bJ0KHDtOasv/LKK1KoUCGVAfDs2X8J6wHwJ2E9gMHS9QQWFXVKmjVrrvX1UoYMGWTgwEGyc+cv2g3g/v2H6rwVKlSUpEmTaXvA0OGweA4ufNQANUANUANe0wDezFesWElFqbFG6+IT33lQta5//wECttA1tm+88Yba//b770fkr7/+R/s1+67djd8J6yGA9dOnz0rHjh21djFNmzatdOnSReWC6RYqnoDPn78oo0ePUZtZdFax0eUEeB4u1tQANUANUANe0AAi1GXLllU55VibzQDfn37aqDhFZwYAgn2VK1cRvK3XzSluPx9hPQSwfu7cBenTp68q36jLsaRMmVIaN24iy5evNMUI8OR+4MAhdd1IucETMqGdC6Mu/fI81BI1QA1QAy/WANZcrL1Yg/v166/SSdC7xQxQXbZshTRo0FDAFrrmBUHFunXrClKBzbhmN5+TsB4CWL9w4ZIMGzZcihcvrs0IwsKSSvnyFeSHH340xQgQXQewb968RTmJrFmzMn/dBhuMdDlRnufFiyTHh+NDDVADodYA8tSx9g4YMFBQ+AGgblbu9+zZc6Rs2XICttB139myZZNWrVqze2kQ3ElYD2LQjD69Xb58Vb7+eoIgB1yXEeBpG218J06cZJrx4r6vXLmmdp7jYaN27drqMxMlSsQoO8Fdm5Z12QTPQ7iiBqgBp2sA0XSssVjfUaYRa++2bdvVWmyUReI6Hik1eAAAowCuwRa6xhCd23v06ClnzpwzJagY1/245W+E9RDAOpoBoNFQjRo1tRkBcthQt33IkKFy7959U4H98eMnytjmzPlBPvjgQylRooTKv8cTP17P8YtjQA1QA9QANUANGNMA1lRUfMEa++GHbQVr7tmz5wVrsFkQ+vTpX6oG+qefDlEPCTrTXYsVK6YqzCC7wKzrd+t5CeshgPVbt+4I8sHq16+vDdbx5Atg79Spk/z22+/q9ZhZosWTN5wFHjqiok6qSjFonDRhwkQZOXKUevLH0z+/OAbUADVADVAD1EDgGsBaijUVDY9Q5Q1r7Y0bt9Taa8aGUh8vILUGDZFQBEMnqINRUL0G94Q39L7P4/cXN0PyjQ9hPQSwjsj39u07VO6WrtdLvvPgNdn8+QuUUfsm2czvvlz2ixcvCzqz7t9/QPbu3c8vjgE1QA1QA9QANRCkBrCWYk29dOmKqbnpsfkADwRz585Taa4+rtD1HamzODc+I/bn8vcXQzthPQSw/vDhYzl69JgqtajLCHznKVKkiAwaNFhQccbMp28a1osNi+PD8aEGqAFqgBpwkgbADEizwQZWNC/ycYWu7+gvs3HjJpVm46RxscO1EtZDAOvICUMqDAxC92smlFlCLvzhw0fkyZNnfHoNwfzawbB5DYQEaoAaoAaogUA08OefT+XQocNStWo1SZEihXZYR5ouGiIhYBnIdfH//i2E9RDAHJ5eYRRoMpQ8eXKtJRBff/11yZ//LfWqCdF1ipzOmhqgBqgBaoAaoAbi0wCqtGATa968+eS1117TBusISoJN0GUde90YSAxci4T1EMC6z2AmT46QXLlyqx3Xul4z4Tzp0qWT7t17qJroTIUJ3Ch888PvHDtqgBqgBqgBL2gA+8+QooJO6GhepJNJUB8eb/3HjfvM1Ep1bp4nwnoIYX3evPmq9S5a8Oo0DJRwRD3Tb76ZLI8e/cnc9RDOsZudB++NEEMNUAPUgPM1AFBHagr6tOTJk1eVgdbJJEmSJBHsp5s6dRrf9gfJI4T1IAdOh4Nav36DtG3bTtKkSaMV1lHCEV3H2rfvoKrOoPqMjuvlOZzvlDmHnENqgBqgBqiBmBoAI2zduk3xCMAaDKET1hFVb9iwkSxfvpIsEiRzEtaDHLiYQg/2519/PSijRo2WzJkzazUMn5EVL15cNSA4efI0c8RCOM/B6oPHcUGlBqgBaoAaMFMD2D8XFXVK0AQJTYt8/KDze8aMGeWTTz6VX37ZQ1gPkkUI60EOnA7jQW1yNBMKDw83xUAQXS9TpoysXLmaTQhCOM86tMJzcMGmBqgBaoAa0K2By5evqoh36dKl1Rt5nZDuOxcYB/XVWfQieP0S1kMIcegUtmvXbilbtpyEhYVpB3bswMZm03bt2svq1WtVThpy03QbO88XvAFy7Dh21AA1QA1QA1ZrwJenvmrVGpX+gk2luktJA9YRNCxfvoLqwnr//kPyR5DMSVgPcuB0GRZSVFq3biPZsmXTDuswFJRLSp8+vfTvP0COHPlDYCysEMOFQZd+eR5qiRqgBqgBZ2kADAAWQM3zfv36q6CezlKNvog6vufMmVMFDE+dOkNQN8CbhHUDg6fDQV25ck0mTJgoFStWMgXWffVNixYtqowyKuok89dDPOc6dMNzOGtx5HxxvqgBasAuGkCdc7BA3779VJUWgLoZUXXAerVq1VUVmGvXbhDWDbAHYd3A4OkwvHv3HqhUGKSqIApulsGg+RI2nI4dO0727NmnmjIxws7FQ4eGeQ7qiBqgBqgB+2sAaz42lO7evVfGjBmrmABsEDMSrutnVJRBZZmuXbvJwYO/CdJ+qZHgNUJYDzGsI28MZZM+++xzVRUGwK7LWGKfJ3HixFK4cGHVOfXYseOCBwXmsAdvPHQ8HDtqgBqgBqgBJ2jAxxpHjx5TVegKFSokYILYnKDrd/R7Qc32SZO+kcePnzD91iBrEtYNDqAOI4URoWJLixYtJVWqVKYZD550YZxoToAOpygdyRrsXGh0aJjnoI6oAWqAGrCvBrDW799/QEW6EbQDC+iupx4T9LFhFVH1TZs2E9Q1cCZhXcMg6nBQyB+bNm26FChQQBIlSmQasMOY0DH1rbcKSLdu3WXhwkWCTa7odKrjPngO+zprzg3nhhqgBqgBb2kAazvqqC9YsFDBc/78b5lWotEH66huh7Rb8AXLNerRG2HdJrCOPDJUa2natJlpTZJ8hoTvr776qiBXrUGDhjJz5iy1K/zmzdvMZbeJHrig6nFwHEeOIzVADXhNA77c9Bs3bsnhw0dk+vQZUr9+fRWow9ofkwXM+Bl11dFBHQ8JTLXVY3+EdZvAGYwLhoUmSXXq1DHdmLCRFUaLNsCI5mODK568L126ooDda86N96vHoXAcOY7UADVADYRWAwj+YS2fP3+BqqGONT5FihRqzTeriIUP+nH+xo2byJo16+T27bt8Y6+JMQnrmgZSh3PCJozTp8+qDaB4VYUNGj4DMPM70m7Cw3OphwS0BP7xx7mqYszVq9dZ5tFG+tChMZ4jtIsox5/jTw1QA2ZoAOUYUQoalV6whmMtR+APUW6zU2t9fII8eGxc/eKLLwUd2vHQYMa9evGchHUbwtjGjZukc+fOkjFjRvUk7DMEs79jswki7VWrVpMhQ4aqFsS//fa7nD17XgDud+/eU7ntfK3FxcaLzpL3TN1TA9SAHTSANRi56Hfu3FVrM9ZorNXLlq2QTz8dIlWqVFVruZkbSGPzCN7UZ86cWXr06ClbtvxMSNfMloR1zQOqw5CvX78p69dvUC16kyUzpwZqbEPz/Q6Dw2fiQQGbUGvUqCm9evWWb7/9XvAQgY2wLPnIBUuHznkO6ogaoAaogcA0AFBHZZcTJ6Lkp582ypQp36k1Gms13shj7UYRCSty033cgO/ghgoVKqprwv43zmtg8xrfeBHW//u3elUDcaGU4dq169UrpKlTpylABaRa/RURMUWGDRsub7/9ttoEGtMgrPwZXc0QaYcDwJN6s2bN1W5yvF5DcyV0XoWjsHp8+HnWa5JjzjGnBqgBaiB0GsBaizUXa+/HH3+i1mIUpMDajDUaazXWbCsZIeZnoWAFmAXsAoYJlVbAbnPnzlMsd+DAIQGxj7VTAAAgAElEQVTbIUUoPhi2+797GtafPv1LbYA4fvyErFu3XjUKaN26jVSq9I6qRY7Icqi+8ubNJxkyZFAdwGIahB1+xhM7DDNr1qySL1/+kI1RqOaGnxs6u+DYc+ypAWrAixrAWos1F2uv1VHzhHAHupWCWcAuoZofbKRFHxkwXJs2H6gurchSAONhsyuYz+5Q/rzr8zSsY/LQjAj1xrEpIkuWLJI6dWr1CgkbJUL5hc2l6GZqZc5ZQgwS/8dXSeaNN95Qm2BxraEcK352aLXK8ef4UwPUADVgngawxuILay5A3eyKLgllgZj/D6wCZgk1D+ChAWlAYDk83ADekUe/evVaR1en8SysI/car0patWqtosMQmR0NIKYx8OeXQvaKj2PPsacGqAFqgBqgBpyjATAdHnCQJoSsiXnz5qva78+LXtv5756DdbwGQVUTTFq9evVU7VEan3OMj3PFuaIGqAFqgBqgBqiBQDSAOvMNGjRQ/WSwQddpVe08B+sA9c2bt6juWr4mAYFMOP8vHQQ1QA1QA9QANUANUAPO0QDSh8B8HTt2lG3btquKOnaOpMe+Nk/BOrqEoh7p4MEfS9GiRZlS8ZJzDI1OkXNFDVAD1AA1QA1QA0Y0UKxYMdVH5ty5CwImjA3Fdv3dU7D+8OFj1d2rXLnyEhYWRlgnrFMD1AA1QA1QA9QANeARDYSFJVX14Pfs2SdgQrvCeezr8hSsnz59VmbNmi25cuW2ZZUVI0+LPJbRBmqAGqAGqAFqgBqgBp6vAaTD5M6dR+bM+UHOnDlHWI/9VGCH3/fu3a8K9mfKlIlP0R55iqbTer7T4thwbKgBaoAaoAa8pgEw4IgRI2X//gOEdTvAeexr2Lhxk3Tq1EnSpk1LWCesUwPUADVADVAD1AA14DENgAE7d+4smzZtJqzHBmU7/I6i+C1atJRUqVLROD1mnF6LHPB+GS2jBqgBaoAaoAb+rQEwYMuWrVSjJDuwaUKuwVM56+hW2rRpM8I6QZ0Pa9QANUANUAPUADXgQQ0A1sGCYMKEgLId/g9h3YNC5ZP2v5+0OSYcE2qAGqAGqAFqwP0aSJkyJWHdDk8gz7sGRtbdb4R0tJxjaoAaoAaoAWqAGnieBgjr//3b1q8UCOs03ucZL/9ObVAD1AA1QA1QA+7XAGGdsM78N6YVUQPUADVADVAD1AA1YFMNENYJ6zROmxonoyXuj5ZwjjnH1AA1QA1QA/FpgLBOWCesE9apAWqAGqAGqAFqgBqwqQYI64R1GqdNjTO+J23+O6Mx1AA1QA1QA9SA+zVAWCesE9YJ69QANUANUAPUADVADdhUA4R1wjqN06bGyWiJ+6MlnGPOMTVADVAD1EB8GiCsexTW33jjDcmSJYvkyZNXChQowC+OATVggQZy584jyZIll9dee037Q3LatGk5hxbMoRn+EnMX32Id6L9DY9AaNGfGNfOcXDepgX9rAEwFtgJjBWqzL/r/hHWPwjrENH78F7Jp02Y5fPgIvzgG1IAFGli7dr3UqlVL0qVLp9WRw8l37dpNfvvtd86jBfOo22di7l60UAfzb3gAqFmzpkBzuq+X5+OaSQ3ErQEw1RdffKmAPRi7fd4xhHWPwnp4eLjMmzdfzp+/aOumUM/r7Mq/27uZF+cn7vmJijolTZo0lUyZMmmHs2HDhstff/0P7dnmPj0u28DcPW+RDvbv0Fjjxk0EmovrM/m3uG2U48JxMaKBCxcuyfz5CwSMFaztxnUcYd3mjt2sDqaEdTokIw6JxwanH8J6cOPmdr0R1qkLt2vcK/dHWPfb8ktemXTcJ2HdP/FemnfeqzvnnbDuznk1aq+EderCqIZ4vD00RFj3zwNhXUP1EkbW/YKik+NYWKUBwjq1FpfWCOvURVy64N+cpwvCun/OCOuEdeZg2jx9i4uM32HFHAvCetzjEnOMvPgzYZ268KLu3XjPhHW/LRPWCeuEdcK6IzVAWPc7cjcu1MHeE2GdughWOzzOXtohrPvng7BOWHckqNGp+o3Yq2NBWKcG4tI+YZ26iEsX/JvzdEFY988ZYZ2wTlhnZN2RGiCs+x05QcQ/FoR1/1hQFxwLJ2uAsO7XL2GdsO5IUHOyA+K1+x2QkbEgrOsZRyNzYMdjCevUhR11yWsKXJeEdf+YEdYJ64R1RtYdqQHCut+REwSixwKNrMyCdTTgguY41tQdNWCNBgjr/nEmrBPWufgQ1h2pAYBT06bNJHPmzFq726Hj3ZAhQ+XPP5+yi6mDbAOgjjnD3MXVtdDI36AxaI2w7ocHAivHwmwNENb9GiOsE9YdCWpmOwme3+8k7DoWJ0+elpYtW0nWrFm1w9mAAQPl1q078vTpX7QPhwD7kyfP5MaNW9K//wDteoDGWrVqLdCcXe2B12V/n8U5CmyOCOv+8SKsE9a5+DgERujo/Y4LY3H69Flp376DoCmZkahpXMd26tRJfv/9iDx48Ij24RD7wFwdOnRYOnbsqF0P4eG51HmhOdrhP+2Q48HxMEsDhHW/tgjrhHUuPg6BEbMcolPPe/bseenVq7fkz/+WdjirX7++LF26XEXXnTo+XrvumzdvS2TkEqlbt652Pbz1VgH56KM+As15bVx5v35g4lhYOxaEdf94E9YJ61x8COuO1AAcOTYTFi9eXDucFS1aVD7++BM5f/6iI8fGi1CBuRo0aLAULlxYux5KlCghw4ePkIsXL1MP9JfUgEUaIKwT1rU6c7yGnzdvPhd2iwzYiyDCe/Y7Ld9YXL16XSZPjpB33qms1Z6RFpMmTRqpWbOmbN68hdF1B9g1ouqbNm2W6tVrSOrUqbXroXLlKhIR8a1Acz798fu/bZJjwjHRqQHCul9PjKwzss7FxwEwotMBuuVc2AAaGblU6tWrpx3OAOxZsmSRMWPGyr59v7IyjE1tBBVgHj9+Inv27JNRo0abUhkIWmBalB8a3OI/eB/2n1PCun+OCOuEdcK6TUGEi4nfUcU1FvfvP5S9e/dL27btTIH1xIkTC3KVP/vsc/XWDGUB47oO/u3F82Tm+ADUz527IOPGfab2Lrz55pumaKFdu/by668HBZoz83547tBpiWNvv7EnrPvnhLBOWOfiQ1h3pAYAz5cvXxWUWUyUKJG88sorWkEN50uSJIkgBQIR9h07djINwka2gpSU7dt3yOjRY1QqFB6uzNAAHgCQC4/PQ3lIQp0fIDgWHAszNUBY9+uLsE5Y5+JjIwAx0/G58dzPnv1X/vOfryRTpkzy+uuva4V1X0lHwFru3Hlk8OCPZdWqNXLq1Bm5cuWaymW/d++BKu+IsoH8MncMMNZIfcIDGuZg5crVCqJz5cqtHtZ886Xz+xtvvKFSa7766ms2yKKf5FppsQYI64R1rYs6N5j6BeVGIOQ92Xt+589fINWqVZdkyZJrtWsf9CFai8h9hgwZpEyZMvLhh21lwoSJsmzZCtm58xdV2xs12fll3higfjrGGuU0Ac4ffPChmgvMiRlvVXxzD03VqFFTFixYSFCzGNTod+3td62YH8K6XwOei6w3a9ZcUqVKpXVRJ6z7BWWFAfMzON4xNbBjxy7VtRLg5oMss76HhSWVHDlySIUKFaVBgwbSps0H0qFDB0ETJX6ZNwYYY4w1NnqWL19BsmfPLpgLs+bZd15oauDAQepBIabm+DN9EDVgvgZQjhWV9nQ3vgMDNm3aTL2dc8o8egrW8Qq7efMW2mE9Z86c8uOPc9VGJ6dMPK/TfEfDMbZmjLHBEA49b9588uqrr5oOcD6Q4/eXXD3Wr732muTLl1/w5ob19q2xZfpMjnNMDcC3g63AWDr9LWAdLAgmjPl5dv7ZU7C+Zs06adWqtfY6vBDS7Nlz5MyZc46ZeDuLktdGhx2IBlAR5MCBQ6rGdsqUKbU6dZ0LBM/lLLjHgo5a+9AWNBaIJvl/6cOoAeMaOH36rMycOUu9zdTpP9GLoXXrNgImdMo8eQrW16/foMq8oeGJzonHK9nvvpsqUVEnHTPxThEor9O4w/PCGCK30axupjp9Bc/lHGD3dS2FtrxgQ7xH+lq7aeDEiSiZMuU7lfam03eCAdu37yAbNvzkGNv2FKyjw12XLl0kbdq0WmE9a9as8vXXE+TIkT8cM/F2M0peDxcKIxq4e/ee6mCJaAk2HL788stabVznQsFz2RvYoR1oCDnyW7b8LNCWEW3yWPo2aiA4DWDTPjaUg7F0+k0wYJcuXVWHaqfMjadgfdu27dK790eSPn16rROfOXNm1T0PTTOcMvG8zuCcB8fNnuP29Olfcvv2Xfn88/EqvxGwpdO581z2Bmyd8wPthIfnki+++FLu3Lkr0Bbt3p52z3lx97zs339ARowYqUrz6rRxMGCfPn1VnwanaMhTsL5791755JNPJWPGjFoXclQM6N9/gKAqhVMmntfpbifnxflF6/mNGzdJ586dJV26dIyua+ghoXOBdMK5EFWHdrp27abe1EBTXrQl3jPXBztoAI3o+vbtpz3ACgYcMmSo7NmzzzH27SlYP3jwN9WWGpFwnQsH8p9QWsxJ+U92MEReAxcE3RpAw5zly1dKqVKlLCntp9OP8Fyhj96jHGTp0qVlxYpVqvGVbn3yfPR51EDCNWDWPsMsWbKot7Do3+CU+fAUrB87dlwiIqZItmzZtMJ6ihQpVP1fNOxwysTzOhPuMDhWzhmrP/98KidPnuZmU0bVg/LxJUuWVK/d0SH1yZNn9OdshEQNhFADkZFLpU6dOgLG0hnMQFEQbFzFBlanrO+egnXU7Jw7d572mp2IxpQtW1aVb3TKxPM6nQOgnKvA5gpt6dHtslev3mpjElrG63T0PFfoI+C65wAaQRDno4/6yC+/7BFoiHYXmN1xvDheujWAso3Rb0nDtPpwNFlC/wQnVXryFKzfuHFL1dXMnTuP1onHhiTUWp806RthjiMdlm6HxfMFrqlnz/6rWtM3atRYsKcEDW50Ax7P5w5ohzagkSZNmsqyZSsE2qHNBW5zHDOOmU4NwA4nTJioHqJ1B1zy5MkrSLG5deuOY2zdU7COxhbYZFqgQAGtm89eeeUVSZw4sQwfPkI1zyCw02npdFo8V3B6unLlmqxdu15q1KipvVwrQd0doI55RBk3ND9at269XL163TGLN/1CcH6B42b/cQOoP3z4WKUzgq3AWLp8Ls5VsGBBtbnUSc3OPAXrEADqdpYrV16SJEmibfIhIggAr93RxdRJAqDjsr/j4hwFN0couXfx4mWZNWu2NG7cRFX5YITdPZBtdPF+/fXXlSagDWjk0qUrLNMYwvxk+rng/Jwbxw0MhX0jPXr01Arq8BlhYWFSoUJFxYJOCqx6CtYhanQZrV+/vnLSRp197ONbtmwlW7duk3v37jM6Q6dPDdhAAwB2NLWZPXuOvPvuu6psK2uwE9ihgUyZMknt2rVlzpwflEZYT52w6EbwdeI9wWdv3rxFmjdvoTWoCmZDyluDBg0d13Hec7COyDc6V+nOW4cIqlevIdOnz5Br124Q1GwAak50UrxmvcCAyAkgDFFTlFbFAzX2l8R+0Obv3gJ4bDBr1aq1/PTTRkG5T2jESVE2+gm9foLjaa/xBEN9991UqVq1mnZfnTdvPunWrbvKgnDSvHsO1vFafPToMWqHse4FulChQjJgwEBB1RkniYDXai9HxfnQPx+AMSwAq1atkYEDB6lUuOTJk2t/xarbp/B8+h4ikKqIOS9fvoLSALRw/fpNpr4wsML12mYaAEOhwyj2F+r2gWXKlJGxY8epAI6T1lrPwTqcM16J16pVS7sI0PmuXr16cvToMVYUsJnxO8koea36Yd03poie/vrrQdVKvmLFSoIGadi/onMDk+7FheczBuyYW8wxGqFUqvSOfPnlf+TAgUOMpNNHE9JtqAEEVv7446iqr47N37r9H9Ihf/xxrqA6oG9dcMJ3z8E6cqG2bPlZWrRoqV0E2LBUpEgR5q3b0AE4wRh5jeZBesyxvX//oZw9e161kx80aLAULVpU+4Zz3QsMzxc8sAPUixUrJoMHf6x8P6J20EBMTfBna2yP48xxjk8DPkYrXLiwgKl0+77WrdvIjh07Hbe30HOw7ttl3LNnL3n11Ve1lnCEqJzYGSs+4+G/08G6TQOI3qDGLponRUR8K127dpPKlauwiZJLOp/6mhxVqVJV5aeiW+GuXbvl9u27THthMIUPajbWADrNT54coVhKJ6i//PLLivnQ+AwP7E6r2uc5WMdr8EeP/pRRo0ZLsmTJ1eTpFESaNGmkY8eOauOS2wCH90Nod6MGHjx4JIcOHVbQjjduiLSjmyVsGWW+EN2Bo9fpJ3iu4CPlsccOc4M5QidpzBnm7u2331abiQHpv/32u2CO3ahd3hN9sts0gEIA7dt3ULYc29aN/I7gLPasYM8iQN1pG8o9B+sQNiYJO43xmgUF940IIPaxeOWKxX7q1GmOE4PbjJ73w4UsIRpA/wXAHBriIKqzadNmmThxkrRr116wGSljxoymvIWL7Tv4e+AA74uWYY7Kli2rFnl0kkbZN8wl5hRzizlOiBb4f+gzqIHQaQBs9v3308hmcbz58CSswxiXL18paEWeMmVKrbCOpzecE/mRTnzVQkcVOkfFsQ/92CM9BqkS2OCECA+a5Ywf/4WgggzemDVt2kzee+89QXoFmquVKlVKSpQoIcWLF+eXiWOAMcZYY8wx9pgDzAXmBHPzxRdfqsIBmDNs8L9zh+ku9Ceh9yecg4TPAaLd2EuEfUQpUqTQnvWQKlUq5TNWrlztyAd3z8L6nj37ZOjQYSpqZkZEC13x0OociwYNNuEGy7HiWNlNA3/++VRu3rytUmUAg/PmzRekV6CqCF6pDh8+QrXFHjZsOL+bNAYYY4w1xhxjP3/+ApVqiBQXzA3myG664fXQl1EDCdcAgiSrV69VQVQzmAxN0OCj9+371ZG+wrOwfuHCJVmwYKGgOYYZwkBVGDwhnj9/0ZHCoJNJuJPhWLl7rPBqFhF3pFPg4Rslv5BegWY66NsAX8Iv88cAY40xx9hjDjAXmBPMjdPyT+kz3O0zOL+Bzy8yEdCnBv1qzGCy8PBcsnhxpOPqq/u05FlYR+kuVAfAa1VsTNItjtSpU0uNGjVlx45djisR5BMHvwfucDhmHDNqgBqgBqgBaiDhGkC5xu3bd0i1atUF6Sq6eSxp0mRSoUJF2b17r3rAd+LceBbWMVknT56WNm0+UNUDdIsD52MZx4QbqxONh9fM+aUGqAFqgBqgBoxpwFeuEZWczGCxHDlySNu27eTUqTOOzXTwNKzjlepXX32t2k+bIRBskqhbt65ERi51rEDohIw5IY4fx48aoAaoAWqAGni+BiIjl6hN4yitaAaLoVs1KnxduXLNsSzmaVi/d+++6jbaqlVrU+oo+xpzYFPDmTPnHFeEn87l+c6FY8OxoQaoAWqAGqAGgteAr0nlkCFDJUuWLAJm0g3rr7zyiqBrKdJswHxOnS9Pw/qTJ8/k+vWb8umnQwQ5TSi7qFsoOF+9evVUdB1VC7gRKnjDdqqR8bo559QANUANUAPUgF8DYCFsFF+4cJHUqVPHFPYC06H5JR4GwF/YjO7UOfA0rEMsAPbp02eoGr7oVmgGrCMPC9F71P/F5zlVLLxuv6PhWHAsqAFqgBqgBqiB4DQAFkI/i+bNW0jWrFlNYS8wXenSpWXGjJmOrxrlaVj3GdnWrdukZ89eki5dOlMEgy6pKEf07bffy/HjJwjrcXTn8s0Fvwfn+DhuHDdqgBqgBqgBp2gAm0rRM6FgwYLy5ptvmsJe6dOnl169esu2bdsdz12E9f/+rbpmzZ07T/Llyy+vvfaaKaLBZtP69eurVz6oDcz213SqTnGqvE5qlRqgBqgBakCHBsA+KJ2NPjdIEQYbmZHRAJYD06GBmhv63RDW//u32vh54MAheffddwX10c0STsqUKdVT3qFDhx1b61OHsfIcdPrUADVADVAD1ID3NABQB28hmwFMZNZewTRp0kjt2rVV52lsZHW61gjr/5eSge54I0eOkpIlS5oC63gAePnll1Vu/IgRIyUq6iSrwzAdxvEOxOkOkNfvPVjgnHPOqYHQaADQfOJElKBCHlgLTGRGcBTnRK76mDFjVZdpN8w3Yf3/gBEdtH7+eatqkoTyQWaJKEmSJFK8eHHV9havZlgdJjROww3Gy3ugdqgBaoAaoAacoAGwzrlzF1QqcLFixQQsZAaog93AcB9+2Nbx5Rpjzith/f9gHSV9bt++K+PGfaZ2JptR7xPCRM1PtNNFyg1yqfCkSWCns41plPyZeqAGqAFqgBpwiwbAOGCdefPmS82aNRUDgYXMgHWwG7rHf/75eEEQ1snlGmPOP2E9RioGBLVq1Rpp0aKlEpMZQsI5X3/9dcmQIYO0a9defd6tW3eYDhFjHmIKlD9zwaIGqAFqgBqgBpypAXAVGGflytXStm07QYUWMJBZfIV9hyiVvWbNOlcFQgnrsSAxKuqUqruOXcRmCgpCzZUrtwL23bv3yp07dwnsseaCztmZzpnzxnmjBqgBaoAagAbANrt27VZpKeHhuUyDdF8gNH/+t2TmzFly6tQZVzEVYT0WID569KccPPibNGzYSDJmzGiqsBIlSiTh4eHSo0dP2bx5i6ueAumo6aipAWqAGqAGqAHvagBRdbBN9+49JGfOnALmMSuijvNmzpxZmjRpqirAgOXcpD3CeixYx+Reu3ZDvvtuqlSrVt20jaY+waJhUoECBaRv335K1Iywe9exucmx8F6oY2qAGqAGvKkBQDpYBqAOtnnrrQIC1vFxjxnfkQNfo0ZNmTZtumI4t2mPsB4HrOOJ7OTJ0zJgwECVu25Wo6SYgoWY8fT5yy97VH4XxO42sfF+vOm4Oe+cd2qAGqAGvKEBX446Ul/ANGCbmKxjxs9gNOSqDxo0WE6fPuvKstiE9ThgHWIDsC9atNjUDlsxRYunTrwmwgYMbHJllRhvODYuYJxnaoAaoAaoATdoAOwEdsFmUpROBNOYHVEHR6ELaoMGDSUycolr2YmwHges+4zm2LHjEhHxrRQqVMgSwUXnsOdSwI4SR6hJCuH7roff6dCpAWqAGqAGqAFqwG4aAKuAWcAuCDpiM6nZOeoAdTwMgNGQunz8+AnX8hJh/QWw/uefT+WPP45K69ZtVN3OmJFwM39GWcdatWqpyD46nT548EiePfuva0VoN6fD6+FCSA1QA9QANUANxK8BsMn9+w9VZ9KFCxepOuooz2gmI/nOjQZIOXLkUM0sjx49Jk+ePHMtJxHWXwDrvtyr1avXSuPGTVRDI59IzPyOkpFonIQuX8OHj1DVaQDsdBzxOw6OEceIGqAGqAFqgBqwRgMA9QMHDsmwYcMVs4BdzC57Df4CqL/66qvStGkzWbduvev3+hHWXwDrMHZE1y9evCwTJkyUUqVKSVhYmCVPjNjZjHa8+MxevXqrFr14xYMnRzxE0BFZ44g4zhxnaoAaoAaoAWrArwEwCFgEqcILFiyUnj17ScmSJRWzmNWZNHaAFCxWpkwZmTTpG7l06YpiNTfPEWE9Hlj3TT6qtHz66RBVFx3tbGMLx6zf8fSYMmVKqV+/vnz77feCVz03btxiLnsC5803f/zud7QcC44FNUANUAPUQDAaQG46GAQpwlOmfKeKcIBRwCpmcVDs84LBkBOPaP6ePfs8EbwkrCcQ+u7du6/KKiIdJkuWLJaJEiJFWSLsdsYmipYtW8nixZGqPFEwhsZj6KCpAWqAGqAGqAFqIBgNoDMoctObN28hBQsWVGyCdJTYQG3m79myZZNmzZorUL937wFhPZiJdOsxeO1z/fpNmT9/gTRq1FiSJk2m8qXMFGTsc2PXM0Rat25dGTp0mCpThNSYu3fveUKsbtUW74uLJjVADVAD1IBdNQDGQMoLAoVDhgyVOnXqSNasWeXNN9+0FNLxUJAsWXK1hxAPDIjw23XMdF8XI+sJjKxj4J8+/Ut15YqImCIlSpSQsLCklr76iQnvMJT3339fcC07duyU8+cvqmtjqUc6fN1OguejpqgBaoAa8JYGwBK3b99V5Ri3b98hkydHSO3atS3PLPBxD9JsECRFbjxKauMBAkzmFV0S1gOAdUTXIQ7kjSNXK1++/GJl/rpPtPiOz0VqTPbs2aV69Rqqc9eaNeuUYXEDqrecqlecFe+TuqYGqAFqwHwNgCHOnj0vqISHTu7VqlVXb/WTJ08eMuZBzXZ0Q0U9dUT5wWJeYh3CegCw7nMSyJE6dOiwfPLJpyrCjt3PVm6uiAnt+BltdgsXLqzScwYP/li+/36abNjwk2oQgFx7Lz19+uaI38136BxjjjE1QA1QA87XABjBl+oCdgBDDBo0WDEF9sqhHGNs7rDqd7AV0l8QUUcKzuHDR1Rdd6/pjrAeBKxDJKh7fvDgb9K//wD1WihUEfbYBoNd2UWKFJEOHTqoFJmff96qdm2js9i1azeUQeL1FpssOd/Bes1Z8X6pWWqAGqAGjGkAaz8YAHAOJgAboLLLli0/q1SX9u07qOAf3tzH5otQ/A62QtovIvwIknq15wxhPUhYh+Ahmq1bt6kn0MyZM1vWNOlFBoMnUGxETZMmjUqRQcQdm0H69u2nnpZhkNjN/fDhYwJ7kHPPxcLYYsHx4/hRA9QANWC9BsAtWPvBAJs3b1EpJX369FWMAFZAWi3YAQxhdYWXuLgGWQtgq48//kS2bdvu6W7uhHWDwHb16nX1RNqtW3dVxsiqhgBxCTuuv6GTWNq0adW1Va1aTZVbQgMD1CdFo6eZM2dJZORSWb9+g9qoun//ATly5A/VOhgGjY2raArFL44BNUANUAPUADVgTw1grcaafeJElFrDsZaj+ATWdqzxWOux5mPt79Gjp2IBMEGBAgUUI1jRdTQuRnne38BSKA0JtkKGAN4CeDVhy3UAAAs3SURBVPkBj7BuENYhHuSFQ0wQFZ4C8domlDnszxO/7+8wAjw54ym6dOnSqhRku3btVfR95MhR8tVXX6sNtDNmzFSlKlEiiV8cA2qAGqAGqAFqwJ4amDdvvmDNRqUUrOFYy/FGvW3bdipyjm7oKP2Mtd9uQUUfm+A72AkMBZbygToYy8ugjnsnrGuAdWzOgJiQYoINnsivssMrpJgGEPtnGCsMAi17kZuGV1/p06eXTJkyqesHyOfIkUN1bA0PD+d3jgE1QA1QA9QANWBjDWDNxtoNBsFajjUdazvWeKz1WPPtDOrgFLATrh+pLwiCskhGdLoUYV0DrPue+JASgxx2bDpFHXa7R9hjAzx/f8kWG2o4D5wHaoAaoAaoAS9pABF1lGdE1RdsJkWOutdTX3xsyci6RlD3DaqvSgzKOqIOOxon2T3K7iWHwHvlAkgNUAPUADVADdhHA2AkNDxCHXWUZzzk4aovPpaM/Z2Rdc3A7qsS89tvv6u8b0TYIUI6Bvs4Bs4F54IaoAaoAWqAGrCHBpIlS64i6mh4hDrqCHqCpWIDq5d/J6xrhnWfmNA4CZ1OIyKmqMYCWbJkUWkxdA72cA6cB84DNUANUAPUADUQOg0gVRibXhs3bqI2xqIz6f37DwnpcXApYT2OQfEBt9Hv2Hh6585dWbBgoTRp0lRtzMEmDzqH0DkHjj3HnhqgBqgBaoAaCJ0GkJ8OFgoPzyXNmjVX1ebQpInd1p9fe5+wbiKs//XX/yjxXb9+U3bv3qtysVA+ye67senEQufEOPYce2qAGqAGqAG3agCgjhz1MmXKqJrve/bskxs3bilWAjMZDZK69XjCuomw7hMNBIjyQ7/8skc1JUCUHeWVUO/UrQbJ++JiQw1QA9QANUANUAM+DYB5UF6yadNmMmnSN/K/7d3Lj5bVHQfwLmCDlXC/b6YRNZCwISQCbtQGNgRqbVQujV1Ymwi4EBdeokKlG2sXpsqliVAboQvFyUBjI5dGoU28GxnuOCEmoguD0P4Dv+Z3kkkmE53MA+3reR8+i8kM8C6Y5/d5n/P9nfc852RQzyXDg1nJdzPr1WDI0996e/ti9eo1MX/+/LL/6ZgxY4T2H7mhDd7QfGeBAQYYYKAtBjLj5F7vmXnWrFkbfX37Y2DgQjW5rBuaBDPrHZhZHwrh8uV/x8WLX8cnn3xadotZsWJFTJo0ydIYYV3DxgADDDDAQKsM5LLfzDgrV66K3O0lN97IDJRZaGg28vP3z6rntRHWOxzW86LnspiEmk8+v/bannj00U1xxx13lhPHxo4d26o3altmBvweZrkYYIABBhgYnYHMMrNmzYq77vppbNr0WOzd+9f47LPjceXKf0oGEs5HDufDr4+w/gOE9aFFuHTpcpw4cSpeemlbrFr1s3KQ0sSJE51+anZF08YAAwwwwEDXGMiHR3M7xpxJv+WWW8sueNu2bY9Tp87Et99eMZN+DXlTWL+Gizc0dF/tzznLnoE9j9XNU7u2b98R9957X8yZM8e+7G7SXXOTNts0utkm18l1YoCBthrIoJ6bZ9x//+rYufNPJdNktsmgbqeXZjPpwzOlsP4Dh/WhBcnQ3t9/Mvbt643nnttaHsRYuHBhTJ48OTyE6gbf1hu834ttBhhgoDsNZDbJjLJo0aJYt+6XsXXr78omGidPni4TkUMzjp+vPrAL6xWF9UHI2YHmYUpvv30wnn76mVi2bFlZHjN16tRykEDuUerG1p03NnVTNwYYYICBbjaQGSQPNZo2bVrJJsuXL4/Nm7fE4cNHIg83Mot+9aF8MAcO/y6sVxjWs0h5klfuzZ5bPb733gexe/ef4+GH15fu9cYbx9s9xhIZDRsDDDDAAAMdNZC7u2QGyUON1q/fEK+++pey3CWzSmYWp5D+74N6ZkJhvdKwPrSryvVeZ8+ej4MHD8WOHTvLSai5T/uSJUvL+rAbbvhxR9+s3Twj4P9uRosBBhhggIHRG8iMkYcZLV16ezkj5vHHnyhZ5NChw3Hu3OceHu1AjhTWO3CRhwbva/05tz3Ko3nzTfL887+PtWvXxW23LY6enp+UrR8nTJgQ48aNK8f55pPZbkijvyG5Vq4VAwwwwMD1aiAzQy5xyQyRWWLmzJklWyxevKSsR3/hhT+UpS5ffvmVGfQOZ0dhvcMX/FrDeq4Fy8CeHzdduPBF5EMc77xztOzX/uSTT5WtkhYsWBDjx48vb7rr9abj9zbgMsAAAwwwMHoDGdQzO2SGuOeeX0Rmij179sa77x4rWSMzx+BSF+vS/z/LXb4vIwrrXRbWv6uQ33xzqaxtP3bsX/H66/vKnu3PPru5rCfLLZTyAdV8Unvu3JvLAyH5YEiuO3MTG/1NzLVyrRhggAEGut1Ajv2ZAaZPn14yQa49z4yQS2s3bNgYmR1efnlbvPHGm5GZYmDgQmTG+K7s4e86F9iF9RaE9eFvmOx4c537mTPnynKZV17ZFVu2/DYeeug35cjf/Ehr3rx5cdNNc6Onp6ese589e3bMmDGjhPkpU6aUrZjyYIP8KMyXa8AAAwwwwEDdBnLMzm0UcwzPnVpyTM+xPfc+z7E+x/wc+/N5t5UrV5VMkNlg167dceTIP8qzcfZE71wAH57dRvqzsN7CsJ4FHwzs+ZFVrnHP7vj06bPR338iPvro4zh69J/R17e/PMn94ot/LPu650MjGzc+Eg8++Ot44IFflU47Pwq7++6f+3INGGCAAQYYqNRAjtU5O55jd47hOZbnmJ77nucYn7u27N9/oIz9mQEyC2QmyGyQGSGzgqBeZ1DPTCestzSsj9ShDQb5ixe/jvPnB+L48f6y9VIG+Nwn9a23/h4HDvytHGyQH4Xl0hpfrgEDDDDAAAN1Gsixure3r4zdOYbnWJ5j+vvvf1jG+Bzrc8wXyOsN5CPlNmH9OgzrI4Hwb935RlY3dWOAAQYYYKCdBoR1Yd2DIwwwwAADDDDAAAOVGhDWKy2M7rid3bG6qisDDDDAAAMMNDEgrAvrOmkGGGCAAQYYYICBSg0I65UWpknH5bU6dAYYYIABBhhgoJ0GhHVhXSfNAAMMMMAAAwwwUKkBYb3SwuiO29kdq6u6MsAAAwwwwEATA8K6sK6TZoABBhhggAEGGKjUgLBeaWGadFxeq0NngAEGGGCAAQbaaUBYF9Z10gwwwAADDDDAAAOVGhDWKy2M7rid3bG6qisDDDDAAAMMNDEgrAvrOmkGGGCAAQYYYICBSg0I65UWpknH5bU6dAYYYIABBhhgoJ0GhHVhXSfNAAMMMMAAAwwwUKkBYb3SwuiO29kdq6u6MsAAAwwwwEATA8K6sK6TZoABBhhggAEGGKjUgLBeaWGadFxeq0NngAEGGGCAAQbaaUBYF9Z10gwwwAADDDDAAAOVGhDWKy2M7rid3bG6qisDDDDAAAMMNDEgrAvrOmkGGGCAAQYYYICBSg0I65UWpknH5bU6dAYYYIABBhhgoJ0GhHVhXSfNAAMMMMAAAwwwUKkBYb3SwuiO29kdq6u6MsAAAwwwwEATA8K6sK6TZoABBhhggAEGGKjUgLBeaWGadFxeq0NngAEGGGCAAQbaaUBYF9Z10gwwwAADDDDAAAOVGhDWKy2M7rid3bG6qisDDDDAAAMMNDEgrAvrOmkGGGCAAQYYYICBSg0I65UWpknH5bU6dAYYYIABBhhgoJ0GhHVhXSfNAAMMMMAAAwwwUKkBYb3SwuiO29kdq6u6MsAAAwwwwEATA8K6sK6TZoABBhhggAEGGKjUgLBeaWGadFxeq0NngAEGGGCAAQbaaUBYF9Z10gwwwAADDDDAAAOVGvgv1SIcQRUo3J4AAAAASUVORK5CYII=;clipPath=inset(2.8% 4% 3.15% 6.33%);" parent="1" vertex="1">
          <mxGeometry x="1252" y="670" width="81.22" height="81.22" as="geometry" />
        </mxCell>
        <mxCell id="28wqMm9d6mI3IJT4Ih76-25" value="&lt;h2&gt;Landing&lt;/h2&gt;" style="text;html=1;align=center;verticalAlign=middle;whiteSpace=wrap;rounded=0;" parent="1" vertex="1">
          <mxGeometry x="380" y="136" width="60" height="30" as="geometry" />
        </mxCell>
        <mxCell id="28wqMm9d6mI3IJT4Ih76-30" value="&lt;h2&gt;Staging zone 1&lt;/h2&gt;" style="text;html=1;align=center;verticalAlign=middle;whiteSpace=wrap;rounded=0;" parent="1" vertex="1">
          <mxGeometry x="686.6600000000001" y="142" width="60" height="40" as="geometry" />
        </mxCell>
        <mxCell id="28wqMm9d6mI3IJT4Ih76-31" value="&lt;h2&gt;Staging zone 2&lt;/h2&gt;" style="text;html=1;align=center;verticalAlign=middle;whiteSpace=wrap;rounded=0;" parent="1" vertex="1">
          <mxGeometry x="832.1299999999999" y="146" width="60" height="30" as="geometry" />
        </mxCell>
        <mxCell id="28wqMm9d6mI3IJT4Ih76-32" value="&lt;h2&gt;Consumption zone&lt;/h2&gt;" style="text;html=1;align=center;verticalAlign=middle;whiteSpace=wrap;rounded=0;" parent="1" vertex="1">
          <mxGeometry x="1060" y="149" width="60" height="30" as="geometry" />
        </mxCell>
        <mxCell id="28wqMm9d6mI3IJT4Ih76-33" value="" style="shape=image;verticalLabelPosition=bottom;labelBackgroundColor=default;verticalAlign=top;aspect=fixed;imageAspect=0;image=https://cxl.com/wp-content/uploads/2019/10/google-bigquery-logo-1.png;clipPath=inset(13.91% 50% 17.46% 7.33%);" parent="1" vertex="1">
          <mxGeometry x="664.3399999999999" y="442.60999999999996" width="93.3" height="84.53" as="geometry" />
        </mxCell>
        <mxCell id="28wqMm9d6mI3IJT4Ih76-39" value="" style="shape=image;verticalLabelPosition=bottom;labelBackgroundColor=default;verticalAlign=top;aspect=fixed;imageAspect=0;image=https://miro.medium.com/v2/1*nPcdyVwgcuEZiEZiRqApug.jpeg;clipPath=inset(13.31% 11.33% 23.37% 10%);" parent="1" vertex="1">
          <mxGeometry x="816.26" y="393.77" width="107.74" height="48.84" as="geometry" />
        </mxCell>
        <mxCell id="28wqMm9d6mI3IJT4Ih76-42" value="" style="shape=image;verticalLabelPosition=bottom;labelBackgroundColor=default;verticalAlign=top;aspect=fixed;imageAspect=0;image=https://static-00.iconduck.com/assets.00/office-database-icon-491x512-nll0enk8.png;" parent="1" vertex="1">
          <mxGeometry x="470" y="414.13" width="120.7" height="125.87" as="geometry" />
        </mxCell>
        <mxCell id="ZsuWYT1PU5P8F_C-RSMM-5" value="" style="shape=image;verticalLabelPosition=bottom;labelBackgroundColor=default;verticalAlign=top;aspect=fixed;imageAspect=0;image=https://cxl.com/wp-content/uploads/2019/10/google-bigquery-logo-1.png;clipPath=inset(13.91% 50% 17.46% 7.33%);" parent="1" vertex="1">
          <mxGeometry x="489.64" y="429.73" width="46.01" height="41.68" as="geometry" />
        </mxCell>
        <mxCell id="k_Tzoq2cm3bDXthg7v0j-54" value="" style="shape=image;verticalLabelPosition=bottom;labelBackgroundColor=default;verticalAlign=top;aspect=fixed;imageAspect=0;image=https://cxl.com/wp-content/uploads/2019/10/google-bigquery-logo-1.png;clipPath=inset(13.91% 50% 17.46% 7.33%);" parent="1" vertex="1">
          <mxGeometry x="814.4799999999999" y="447.60999999999996" width="93.3" height="84.53" as="geometry" />
        </mxCell>
        <mxCell id="k_Tzoq2cm3bDXthg7v0j-55" value="" style="shape=image;verticalLabelPosition=bottom;labelBackgroundColor=default;verticalAlign=top;aspect=fixed;imageAspect=0;image=https://cxl.com/wp-content/uploads/2019/10/google-bigquery-logo-1.png;clipPath=inset(13.91% 50% 17.46% 7.33%);" parent="1" vertex="1">
          <mxGeometry x="1043" y="451.60999999999996" width="93.3" height="84.53" as="geometry" />
        </mxCell>
        <mxCell id="k_Tzoq2cm3bDXthg7v0j-53" value="" style="shape=image;verticalLabelPosition=bottom;labelBackgroundColor=default;verticalAlign=top;aspect=fixed;imageAspect=0;image=data:image/png,iVBORw0KGgoAAAANSUhEUgAABLAAAAK8CAMAAADI7ba8AAAA1VBMVEUac+gedekfdukjeOokeOone+koe+stfestfuwygOw1g+o2g+03g+07he5AiO9DjOtFi/BJjfFKjfFOkPJSle1TkvJTk/NYlfNcmPRdmPRfY2hfnO1hmvVim/VmnfZobHFtpe9vo/dxdXl4qPZ7f4N8rvCBrveGiYyKt/GLtPePkZWTufeZm56jpaimx/Onxvitr7GwzPi00PW2t7q50fjAwcPC1/nC2PXKy83M3fnQ4ffT1NXV4vnd3t/e6fje6fnn5+jo7/rs8fnw8PHw9Pn6+vr///9JU4RSAAAeG0lEQVR42u3da4MaRaKAYdbdycbxeFl1jbIaIuJiEBQlRBJkFyXs//9JZyaay0BfqrqrgYbn+XjOOpVmut+pLvrS+R9AS3R8BIBgAQgWIFgAggUgWIBgAQgWgGABggUgWACCBQgWgGABCBYgWACCBSBYgGABCBaAYAGCBSBYAIIFCBaAYAEIFiBYAIIFCBaAYAEIFiBYAIIFIFiAYAEIFoBgAYIFIFgAggUIFoBgAQgWIFgAggUgWIBgAQgWgGABggUgWACCBQgWgGABCBYgWACCBQgWgGABCBYgWACCBSBYgGABCBaAYAGCBSBYAIIFCBaAYAEIFiBYAIIFIFiAYAEIFoBgAYIFIFgAggW0NVhbgJYQLECwAAQLECwAwQIQLECwAAQLQLAAwQIQLADBAgQLQLAABAsQLADBAhAsQLAABAtAsADBAhAsAMECBAtAsAAECxAsAMECBMtHAAgWgGABggUgWACCBQgWgGABCBYgWACCBSBYgGABCBaAYAGCBSBYAIIFCBaAYAEIFiBYAIIFIFiAYAEIFoBgAYIFIFiAYAEIFoBgAYIFIFgAggUIFoBgAQgWIFgAggUgWIBgAQgWgGABggUgWACCBQgWgGABCBYgWACCBSBYgGABCBaAYAGCBSBYgGABCBaAYAGCBSBYAIIFCBaAYAEIFiBYAIIFIFiAYAEIFoBgAYIFIFgAggUIFoBgAQgWIFgAggUgWIBgAQgWgGABggUgWIBgAQgWgGABggUgWACCBQgWgGABCBYgWACCBSBYgGABCBaAYAGCBSBYAIIFCBaAYAEIFiBYAIIFIFiAYAEIFoBgAYIFIFiAYAEIFoBgAYIFIFgAggUIFoBgAQgWIFgAggUgWIBgAQgWgGABggUgWACCBQgWgGABCBYgWACCBXBewXr20+NvHqbz1ScfvHv//v1Op3P96Xe/2EFAsNLV6vuHKX3x0b3OHVePfraPgGAl8OLJN0lz9dm7nQzXP9hLQLBqz67S5urB/U6Oa2eGIFj1plePk+bq4QedAo9+t6eAYFX269dpF6/udQpdP7ergGBV9DTt9OrBO50SV04LQbBOoleflPbqhrV3EKxWzK9eclYIghXv2VF61blSLBCsWL+lXW//6l4n0Id2FxCsSImvZ3i/E+xb+wsIVpTEC1ifdSI4KQTBivEi7Qnhw7/FBOtTOwwIVoSf0vbq404UV2OBYEU45gTLFAsEK8YxV7Bu/ccuA4IVKu3zrx7+X2ywvrPLgGAFepG2Vw/fiQ2Wa7FAsEI9O/IZoXNCEKxgPx7wIVjZPDIZBCtQ4qvc78cHyyIWCFagxBc13IsP1r/sMyBYYRKvucf3ypVYIFiCBQhW8mBd2WdAsAQLECynhCBYggUIVqHjPqvBZQ0gWBFcOAqC1RpuzQHBao2nbn4GwWoLj5cBwWqPf3uAHwiWc0JnhCBYqc8JvYQCBKs1vOYLBMsUywQLBCu5J15VD4LVGomvdn8/vFff2l9AsI56UvjVPddggWA15r9pp1gPAq8evXJCCIIVL/HFWA8sYIFgtaZYH4fMsX6ws4BgVfLr1wc+K7xyBVbbbZbz6SuLpc9DsA7pt7Q3FX5RsvJ+7Xyw1VazUa97V380W1/uB7K8JViHlPiS98JHYz363THf4lpN+t1s/elFNms9/qPevXH7Nr+9wdr+lvaCrAe5jx+9bvZ0cNkN0hsOJ9PFSn8izYeFH+vwHE8O727h3ifyZrLZmwvWAf36fdqL3jOTdd30antgsF7vf5PFRoaCP9x++Qe6vKxgje/8f8eCddBZ1pOka1lffLS7lvWo+UciRwbr1mBiphV07jMM+jhH6wsK1mxn4+eCdeBmPf3xccLvDL/65IN379+/nWtdf/rdQb4arBCsy11+iTLrBX6YvdnFBGu9+5n01oJF88G6nRj4br7IZhzzWZ7VaXZBsPY/lHadFApWe4N1M82a+/hyezWI+yjP6SS7IFj7k86eYHGgYN2sZpllZVv1Iz/J3hkVKz9YWTtbq3YhwWp3sG72R2tZWb3qxX+S5zNdFSxONlhnt2J8hPPBNh651YI1FyyOHCyTrH2Dauk/l7NCMyxOOVjd3sLH+LZJ1S8xzuS7QsHipIPV7U4P+2+eD992ahOTRXbVx7NXh+ZqnnN74aiV2xsRLN8SchLBOvDVNNNT/hO9yYrRaHcSuhpnrcvPWri9UcFyHRZJgzVe7vnjMU7DkttMhhvByvrH5a/yZV1Z2tucebBc6U7SYBWd222W01H+1/WDzbGacFoH8KYXvMSXcWv05MyD5V5CDhasP05lcp/udMBinfIBvDfBGuSvOW1Ge5/i+syD5WkNHDRYucsvGU8+ushg9aM6Pg6aYp1TsN6+J9zzsDhAsG5mBtPeUVfeT/gAXkTOO8chX5qdVbA8cZRDB+s2Wd3wL7kuKVjjoFX0twwCFnXOK1hbz3Tn0MHKeTrdgXbCEz6A+7Fryjvfm2Wu0J9dsFpLsFobrP0vfIImFGcerM3OteuRH+Ng3rZACxZtCVbWM1QOs3ue7gG8rHCO/PpTHK/aN6MULFoTrKynEhxkGet0D+BZwEUKu+Z/PnR608ZTYMGiPcHKKNZBrlw+3QN4Gn1GuH15g91w0c7tFazDePbT42/SvTni83+89/dXb+U60KsjTiRYGcUaCVbswTor+35fsC46WM+Svk/wy713c10d4OVcpxKsjGItLzlY40YOVsG63GC9ePJNylx9/l7nKK8/PZlg7T+cYHjJwZoKlmAlnV0lzdWX73eO9IL50wnWdnX4KZZgCdZFBOvF46Qvl//nXzsFHv1+GcHaux5rKFhxi+6CJViZfv06aa8+6BS7fn4ZwdoODz3FakuwumvBEqzKnibN1cP3OmWufrmMYK0PfRP06R7Ai0auShOsSwxW4l79vRPgh4sI1t4zoAJu0NksZ9PR68eUj6fz5QEP4FqDF1p1mzgnPK1g3TzIcfLms1uuDxGsmzGnr39ho+lsef7BOvj86qXnFxGs3adslkwsNvNx1lMAB5PFAQ7g2oNHzC5STbFOKFiryd51LP3djy5xsLJ/Y6l+YacarGdpe/V+WK86V88vIVi7U6xB4e43Knhh2DjvaFy//Zj5u1c7zfYeQ79JPHj19bzK7xqssr2bO//HsPWzO//JqjQdOY+b7U3WocFah/2mXiv4jSX5hZ1osH5Lu97+SSfUhxcRrN0pVu7BkvPov7f/Xoc8sKDaO5QrDx5hlujB0VW2t8qvMmI2VPzxvXW1fuHPjJotlv7G+vMzDVba6xm+/EtwsDrfXkKwdp9bN6tajJc74aKRYNUYPGZmlOhR96cXrHnZx/f67u1UwQr6jfUX5xisxAtY73YiPL+EYK1Cbihc9AMPwNEmfbDqDF7jnPDmxGV5DsFaDwPasUwarNDf2HB9dsF6kfaE8J8xvep8egnB2n3SZtbfy4g3uO8f5DWDVW/wGPOMBK5bH6xFL+gfMk0XrM0o/Bc2O7dg/XSEKxre+OUSgjUpS8Z6EPUq6VnSYNUcvE66Xx5R0027gxWc+/HeJLNisFb9mA9gtDmvYKWdYD2I69WJT7ESBWvVLf45q143zjhhsOoOXneKVSFZJxWscdwnlyBY88hf2GB1TsE6ziVYb/znAoK17RUuYkUnYzcadYJVe/Caq1h7X6O1K1ibQeQnVz9Y0+hfWG91RsH6Pm2w/hIbrO8uIVijoku8KyRj58SsRrDqDx75RWHeeMNFG4MV16vbV8HWDta4wi/sMMU6SLBePDzSNVituBYrVbCmBavu6yrJuLs3Vw9WgsFTnBT++eD2deuCFV2PxaRmsMaVfmEHKdZBgnWki9xbck6YKljL/OM9/290/4+bw/J2wU2CYKUYvOY3EHejMN+0KliT+HKM6wVr3u2ebLEOEqwf0wbrXnywfr6AYG3ym5H9F7M/efO/Wc0yszJKEKwUg0crniOMF+0JVnY9+uNX94vf3JVcfIVWdLAWOT/n9W3Wq8Uk+4/QYHMewUp7lfvD+F6d9CJWqmBtc78mXGUetLu76npcWJ6qwUoyeOpiBdwFdyLBylz/2/3Hb2b9dMHKPIPvz3ZatJ70Ev+NOaFgHfeihlv/uoRgDXN/0P4ly4Os4zXjYuo3d1FXvvk5xeDpi1W6nFVlexsI1iDwMtj8+3ZigzUIvGEw876d6VkE6+ERL3M//SuxGgrWnT92u9eZ540y21/ADZh+lN1Am3jw2ivvbz6jxI/TSR+s/XleL+ffvBmnCda04B7F3aZnXAu/EizBqnRU7eyny0HQrS/LXsnuXiFYqQcPFXKtduDDBo4VrHXMMlHOJCsuWOuoG6VmaWfFgvX6qVgXH6y3/t+FX+bsrZmsEwQr7eDhX0OEfMEWlKxjBWsYdT1t9vVuccEaxi2k7/2N6c4ES7CSBOvVKlHJl8+rkB0w/gmcCQeP+WyHaZJ1pGAtI6//zyxWVLCWsV/87Q3Z2wiWU8IkwbqZwfcCFoZmAXP8Ko8MTjZ43EpWyD28g+VpBmsYe4q8rBusYfSFCnvFmgqWYCUK1u0jQ8oH2NlpN4mClWzw2GSF3Nky2ZxgsJbxlznN6wVrWWG6tDzoFMtlDRcVrJs/iAFnb+Vf1VV8KUOaweM/4YBbTfrL0wvWuMI3cKNawRpVuRJu93vFeeuD5cLR0wnWNnqnn6YLVprBqyy/z8qnWbNTC9amyrnWplcjWOtqZ3c7s+J+64Pl1px2BWtRevVyg8EqH7ya1bjsHuzx5rSCNavUgXmNYFUbce+rklXbg/XUzc+tCtbdR2sNDxus8sGrr2aVPPQ3f43oKMEaVLtRaVg9WIOK53bj3efbtDxYHi/TsmAN8x9U03ywSgdv7tQwt1jHCNa64kW0y8rBWlc9tVsf7pzwMA/w+7cH+LUqWNNjBmvaYLBuD65JwYUOgxMK1rzqUna/arBmlRfPxymv9z2BYHlE8iGCNYxb/VktZ9PXFnfeU9x8sOoMXv8Tz1/OGp9OsO5GoBe+ebOqwRpVHXF3FWve9mC98BKKgwer6AetZqOMU6PhZL4+QLBqD57i1DD3etL5yQSrH3ON+zb8XDJ/WyqPWOs/PcVgec3XIYLVC/tBq8Jzosl675+UMlgpBk/0sWfftdNbn0iwNtUvSBtUC1aNEXceizpofbC8SLX5YG2CvlQqv1VlOG8sWGkGbzZZwxMJ1rL6Jf+TasGqMeLuU0pbH6ztE6+qbzpYy4BgBd1Zd/P44kaClWrwdDLfxb48jWDNqs9ZFtWCVWPE3b+Wq9YHK/HV7l9GfFH47fYygjUr/SO3inxfVNJgpRs85VpWxuPq+qcRrGn1VaF1tWBN66xD9Rv83vgowUp8UvjJeVyDlTJYo7LDbtrtHi9YCQdP++n3Qp5zeoRg1blFqVqwat0UNTzQQ7EOFqztf49zufvV80sJVvGbn7ebYfd4wUo6eOJJ1t7Mb3QSwRrWuAl8UClYdUbcWTebnkGwjnQx1sn3KlWwVsX3rW4G3eMFK+3gjRdrfXrBijvHGiYIVuRZ3fT8gpW4WF8G3QP9w/ZSgjUrXDqukYz6wUo8ePJi9Uqf2yBYlxis7a9fH3iOdfXL9mKCNSg60Osko3awUg/e8G8g68oGwbrIYG1/S3tT4Qclvbp+vr2YYBVf3pz/BLvhnwbNBSv14OlNygY9QrD6Na4TqBasOiOeabBSX/L+z78W9erR79vLCdak6Kwm++XjvfH87dWa9SLnnec1g5V88OZPCpdmWGZYryZZSS/I+jL/y8LrX7bbywnW7iF3Z914k3V95DDra6DNfJg6WOkHb36KNRMswXqzkvV9ymR9nr2Sdf3DdntJwSp820zGNVD574nZv2GlXrDSD96Akq9YBeuSg3Uzy3qSci3r84/2vi989PN2e1HB2p3G3J0i7F8bWXhh37KfMljpB29Cv3jVvblgrcKCFffAFtdhpW/W0x8fp/vO8PN/vPfqAQ7Xn373y7ZVUgRrWnQl0d5TvkveZnr7Pq5kwWpg8KAPdRR38+7oWMFa5g08PviV7nVGrNXXNgSLlMFa94qu1R5FJiPp87AaGLx8vjnrx04RpicXrGnc4xjv7A4p7iWMfP1H79zuJaTBYBW/Tm53jrPaHjBYDQxedpI1rnDEnV6w5qV3ZOeq+LSGGiPuXlWzFizBCj/t6hf8/KAbU9M9XqaJwQsnV2+953nThmBNPQ9LsC4sWKte4WN+p93ov5zp3prTxOAFf+fvPKx9euRgBb0GZJz7n3QrrwpVfOJojRELNkOwBGtnUjEofqDTOH4/TPctYROD56r4HtCjBis/LoOqS0qVn+k+qP5ArLvfsk4ES7ACZyT7x9Mweqa/SBesJgbPn2p2K88RxkcK1iY/LpOqZ2iV35ozrnxOuKgxOROsywrW3p16w8JmDOJ/ZGmwFqHBSjN46N/5bi/8kCuZzgRu791fZch7sub5v7vKEaj8XsJ5ot63/72ENBas/TuL14XNCPizv3ubT2mwpqHBSjN4vt2bmIM/zE3Ule7TsF9lyBRlmB+XTcUT3Hm3arCqjrh7EtrgS3MEq93Bynhyy7T4D25AM6bddMFqYvDwc8LgRw6UzS2qBWsZe6Tf/YBG1SY8/crBqjri7l/NmWAJVvYBut+rQe1Jzt7z7A45wwoZPPjM7ubT2FQ6yFdVt7cbufY8LorLvNIJ7rxbPVjVRty7dmUtWIKVZbZ/n17Ge0BjmzGKvvl5ki5YIYPHHK1hX3XtLBf1Km9v5DnVujguvdj+ZRU/JlibKiPu/ZkYbgVLsDL29qwHSM1Ll0kiD96QYA2D12iSDB5zPhR0erJ76/io8vYO485Ih8Vx2V2SC7nZaNStEay9GV/Q7U2T6l/OCtbFBGsz7WX0alK+P5XsTqtefLC6wTtzksGjplghh8+49D8J3d5x1PxuXhKXdfR9mLuXNMQGq8KIJfdZCJZg5eYq++rCecyEPetxe+XBWoTuzUkGj5tilRdr7yDfVN7eWcyif0aeS55sXbokN+/WC9beiP3SZaxV95ATLMFqY7BW48xc5ezPq4hpfub7IsqDNQ7enVMMHnvITiN7Na6+vavSr0CKN3dYssZVUqxlt26wYkfcr26zEyzBal2wVtO8Vzbk7Vv94Gn+qh/4WPVl8EyigcEj14VuDtmCg26zfyHbssb29oMX/TPzPCxZHuoO1pHzq8hg7Y9YfFa4P+RCsATr1T6+nI563W5kr/am+bm74CL7h2f8L9fBZw4NDF5snfFzermnKctB6QEetb3j0K8ps999tjv2/nd+vfyLu6bdBMHKGHEevEQZ/xgtwWp7sMbLPYvprWHJ297z5+6rsD+am0nOTw6ZSeQeR00MHr3ufHPUZv771llvIFvV2d69ze2OM38vy35QXLJeOTTJ/kWv8/aPuGBljThaB9e+txGsywpWVaNNzFlSxjxu3u9GNGP/SB//eaAvJ/2mB48/Kbw9bvcmCotRN/CL1ojt3d+Q/jw8z/uzu4x/Y8YPvPkWJnfPiAxW1mske9NNYO0XW8ESrACTyBH68zu74Ca/GNnNyHrZYP/2nah7e20Dg5fY5Py43mj26vBcLXNeg5h3she8vVnrSP3ZnSnKetrrBgcrc2P607tznsW4YNeIDVb2yer4booyX8nW6HNlziZYz356/E3Cd/B89ckH796/f/+Ar7NIEKzePH7OcfMm09WfK2OzUeFPD1pdzl+3aWDwsu8letU/ylXganru9mb/DweT2R/n9/PJICIumSeZfzRrPL35aavbBYNR8ebGBivv4+sNp4s/tmE2GQb/8wXrbq2SvuPw4Re7bwy7OsALw+oHa1B2ed867gjuLcqbMS36AZuGB2+uWPPIFe397Z1H/u6mZUf8PHojhtNawcprZPm2bASryIsn3yTN1WfvHuWVrLWDFXDpVtxOv1yWN2PTCz7s0w+eeHtDbuQJ395h3IyuNFjZ3yIUJX9TM1gVP75D9KrNwXqWNlcP7h/ppfc1gzUMujd+HBXAkGYsir4BaHrwhuZYRUswwdsbNaOcbcuDFfX5vWxQ3WBVKtZBetXeYL14nDRXDz/oFHj0+6kGqx/6tUz43/3xNqwZRWtP66YHb6RYxSuBwdsbcbSPtyHBiivWfFs/WNtl7zR71dpg/fp12sWre51C189PMlj98Pu2NoPwYyisGUU/cdb04Ak3+M3iWfUfOAtf79rd3JBgxTRwvk0RrJz7Dgo25TC9amuwnqadXj14p1Pi6pfTC9Yw7qKXcfAxFNiMgiN40PjgASZxM4R1jQQOKs2IxtvQYOXdB5DzfXGCYG03ozSLf4KVvleflPbqxg+nFaz+JPq5jtPQYyi0GQVH8LrxwUM+2fBZQi/kpvPw7Z0FtyUwWNt10ISxv9qmClbm8yGrfk194cE6+PzqpeenE6zBZNXMATzbxjVjEr58nX7wgMJMA4+5UWD9g7e3fEb06iAPDFZQ8l/dtZMmWNv1KF3sLzlYz47Sq87V85MI1nCyqPzM7M0k7A9leDOWeReMH2LwAOuQs7PhMvyXFbq9JWdUvVlmPwqvvFyX3U26DPqZ4cHK39w78+L1VrCK/JZ2vf2re51AHx41WL3hcDJdrJo7gN+6XD6mGYvsK9kPM3jIFk+KJzu9yAMueHsLDva3780LD1ZxPwbz7TZ5sG6GHCX99C4xWImvZ3i/E+zb7RlYT/vZXzhW/ppnPRu+3YTBaLo83OAh5vkH3ajCyMHbm/Ogxf6s+tbm/MjeeNncDjMbpPz0Li5YiRewPutEeL49C6vdO38rrom9fQb06lk46yMMHjIv2r/97ebeuGXj27vYvXWw/tbu/8hx089IWM/Hg4ylic0R9t3WBetF2hPCh3+LCdan27Nx87yCP82XFzL4ejl7NezNbbybNm/tn89Ie7khh9qM5evNmM6Wq2Ptt60L1k9pe/VxJ8ovW+B4WhesY06wzmqKBYJ11itYt/5jlwHBCpX2+VcP/y82WN/ZZUCwAr1I26uH78QG60O7DAhWoGdHPiN0TgiCFezHAz4EK9vP9hkQrDCJr3K/Hx8si1ggWIESX9RwLz5Y/7LPgGCFSbzmHt8rV2KBYAkWIFjJg3VlnwHBEixAsJwSgmAJFiBYhY77rAaXNYBgRXDhKAhWa7g1BwSrNZ66+RkEqy08XgYEqz3+7QF+IFjOCZ0RgmClPif0EgoQrNbwmi8QLFMsEywQrOSeeFU9CFZrJL7a/f3wXn1rfwHBOupJ4Vf3XIMFgtWY/6adYj0IvHr0ygkhCFa8xBdjPbCABYLVmmJ9HDLH+sHOAoJVya9fH/is8MoVWCBYVf2W9qbCL0pW3q+dD4Jg1ZD4kvfCR2M9+t2eAoJVa5KV9oKsB7mPH712OgiCVduv36e96D0zWddW20Gw0syyniRdy/rio921rEceiQyClbBZT398nPA7w68++eDd+/dv51rXn37nXBAEC0CwAMECECwAwQIEC0CwAAQLECwAwQIQLECwAAQLQLAAwQIQLADBAgQLQLAAwQIQLADBAgQLQLAABAsQLADBAhAsQLAABAtAsADBAhAsAMECBAtAsAAECxAsAMECECxAsAAEC0CwAMECECwAwQIEC0CwAMECECwAwQIEC0CwAAQLECwAwQIQLECwAAQLQLAAwQIQLADBAgQLQLAABAsQLADBAhAsQLAABAtAsADBAhAsAMECBAtAsADBAhAsAMECBAtAsAAECxAsAMECECxAsAAEC0CwAMECECwAwQIEC0CwAAQLECwAwQIQLECwAAQLQLAAwQIQLADBAgQLQLAAwQIQLADBAgQLQLAABAsQLADBAhAsQLAABAtAsADBAhAsAMECBAtAsAAECxAsAMECECxAsAAEC0CwAMECECwAwQIEC0CwAMECECwAwQIEC0CwAAQLECwAwQIQLECwAAQLQLAAwQIQLADBAgQLQLAABAsQLADBAhAsQLAABAtAsADBAhAsAMECBAtAsADBAhAsAMECBAtAsAAEC7icYP0PoCUECxAsAMECBAtAsAAECxAsAMECECxAsAAEC0CwAMECECwAwQIEC0CwAAQLECwAwQIQLECwAAQLQLAAwQIQLADBAgQLQLAAwfIRAIIFIFiAYAEIFoBgAYIFIFgAggUIFoBgAQgWIFgAggUgWIBgAQgWgGABggUgWACCBQgWgGABCBYgWACCBSBYgGABCBYgWACCBSBYgGABCBaAYAGCBSBYAIIFCBaAYAEIFiBYAIIFIFiAYAEIFoBgAYIFIFgAggUIFoBgAez4fxOD1N2lfUvZAAAAAElFTkSuQmCC;" parent="1" vertex="1">
          <mxGeometry x="988.8" y="659.36" width="175.71" height="102.5" as="geometry" />
        </mxCell>
        <mxCell id="k_Tzoq2cm3bDXthg7v0j-59" value="" style="shape=image;verticalLabelPosition=bottom;labelBackgroundColor=default;verticalAlign=top;aspect=fixed;imageAspect=0;image=data:image/png,iVBORw0KGgoAAAANSUhEUgAAATYAAACjCAMAAAA3vsLfAAAAnFBMVEX///9ChfSuy/rKyspfY2iqyfo+g/Tp8P7b5/0wffM1f/Swyfnx9v4re/Nil/X6/P+50vu90PpXW2FlaG2Fh4r2+f7U4vyjv/lomvb19fVmZmZvb29VWV/Z2tvq8v7G2vzq6urBwcF4eHioqKi4uLh5fICXl5fj4+OPkZTv7++sra+AgICfn59jY2OztLbHx8dwdHhVjvWLi4sXdPNjECzrAAAJRElEQVR4nO2dC3ujthJA2QttdttuH8C2VzxueZmXCabu//9vVyMJIZt4jcckIcmc72viSKDCsaQZgfFatkUgIG0oSBsK0oaCtKEgbShIGwrShoK0oSBtKEgbCtKGgrShIG0oSBsK0oaCtKEgbShIGwrShoK0oSBtKEgbCtKGgrShIG0oSBsK0oaCtKEgbShIGwrShoK0oVik7fMa/PLcp/KSLNL2+w8r8Pm5T+UlWabtP/dD2kgbacNB2lCQNhSkDQVpQ0HaUJA2FKQNBWlDQdpQkDYUb0BbYvdt29sJdv/nYOvaWLFzJc6uYKgmTLqua+9uxNq8NntwHY073Hstmjlu5N/ZhjyuJRtdvkz5hJ41L1N2EdjiPU3+cKIc0YgB8xz35bQ9XOLvmbcfPv/yv6f5dvvB1RH4qg9V01SHmotzvfvG6ctqu8ifc20PaxyVpOTWIr8a/0z8aGjua/EjaCui81HZ32ntI2hrYEbr1mpN8gG0dVzbbq3GFO9fG4MYGq/UmG70RbX9NkdWXNZ2cZelxNGVzla1/m5XF4lRlBT1bnfsK6OogaIutpgd28zUlvS8okyRkXmRtl8/nfNfWXFR28NP53v8+PNtB9bydKO/XN3UIpHjP/LxzFnnqLJah47eiWCKjOpD5Eaxoa0V27oRMoNepu3Hc65q+/rpbI8vN2orubbp4BID0BR7ShoPtjvprdm5Ojf2VIcrI7WV6/ENDW11pHc/3HZckoXazrvOVW1fznvbTzdq80+mNs/VRDy6Jh6ctd/moMqVYxleRru89UGGJ/obLDLcQRWZ2kTFru2hAjWBvhVtxsq05pX8dAfRo2zwAavzFvqP2KEaHCkHpke3GIsMbaIihYrYwYXrzWqDQfpEbxPaYv5rXGap1403aYbXEZe6G+VwbyfaanccmxXfJkJMb5vVdhoS+lbBTZRWzuv0lNSJSfAQGblxyotaK+FCfaM5rY3/lF3MFoM0Km87MrHnko1eQ5sdPZViJUIIH8COzhxiUZSbnbNxQBi0UIxFlaGNdz3+jjStx6MsD7vvam4T6W51Xsr7ER9TfKYadBGY7GDcOdOKdYDuVJyZ1NpAdCcSmGhALnM3q01MbrPuxqciJ3lKW3mizbumDZIP1/XRa6TtaksiZ5bwpnLkwiDVjuz5IE14fS0q9P7x6SCFTC6f9eXlbFebSCmmyUkcrCv6jAgXuqIWIQEmMj219zok6OQiN7RBZ3TvuzGxYW0iO4u66fRa15FuKleMVcEBEhCxSNerCpFtJGL/sbvFJwlI505h10ddZ9+yNibWAF4eM07cD9OKAAKAB4fOevABPa/QfdP2lF2R1YolKxQZ2mAQu+L9qHzXHRChdMvaLDYuHYfBO1l/MqmwruF3VIsykYMNdS1cD2I7Mcw9WXSyuEplRek77ri2uI1Na4MrGOYNv+kSeTJMS/mjLGK+Xp67QyLLxJ0vR3gctckMuB8r+H/vKm9TJB1PSuUS3qmN0Mc6N5KlU9CAq0RQ5E7z4UHuHXUqkrpRJId5PMhmIx+VuG1dGxcU92Vdl218FvqatKvr3DZLmc2LuvREBBS1FQRhWKbChSdVEbdlXfbIJORebTNW17YOsLxI1mvuPm0Pf86Qj1ZtQxsr9Oqex15vxZbv03aRTWjjc12kLhzBMhRxoeMi71mbyNt6mPxSmX+sx3vWpvI234cbD5irapd519qsPBpzPpUTr8X71malMj2LvOL6trfwzrXxCa7vuv4857sbnLZPn369wD9bSkCeD6y22Q1nxVfSpnlC2yVI2wRpO4e0oSBtKEgbCtKGgrSh2Ja2Bck8WzvhR7ENbU1VJfwXC9Orx5Lvzb9YFVev4XEL2ux9wMkOlnWjtqoM+Y7hqpeElrEBbd1jGbMmzuNbtdnB3m5Yla58dWMJr6+teJxc3aQtCY5LDv5ZeHVtzBxjUlvVZWEpLmGn8n6yLe6ksJwXN63W1oXGnT1W7MO96Hasa+IjvGYt317c0OsSPpwz9Un8qXWrOIZZKQzEvL4Vn27ILb731f776trsR+Mav9BmB6Vtl4/wKdM8k6cXgo4sO9h9WGptofFAFttnhV2E0P34+7BP7Txo97wZP0jElqJW7Cla70QPL7PUPnTwzhyCzj5kUB+HdtimV287vLq2PjQiIWhjgehi7SM71ZaLzhXrkVk9Gk8UyMokaIVeaLEUzTDRcbIQ5FVBDwVCdv+YWEy/YSyArRqoj8MsWWAE+TiHYgVt+bm2NGj0qZjaMjlg9+MnLONH49jDXjUGYsSGqehn1h4sZXIeKDPoV6LY4q2zcHxsPg1l/R7elkUBBvnw0Hq9baZNqbL25Ym2JpCdqxsHqaktUa9trlwlf2kg2j0Kbb1upjVaPwS+/CwEH8PAMQRtiz7esEjbtwv89tfs0aqbtRXq7RfAGY9ejscTbUkgD1VH0iSYwm6lxpsNYy8Ufk1taoqHotxonUeHUHTTMisFHWgzDucy9z0YuYK2ODCmqFt6mxVO9/BOe9tMW9bqZszeZkEADkqzzTejzcqMtB+0qdnHnNs6Y2476s3zYAp4apqSc9tcm3RUZyBWtG7pKezw2PAer1OZN6PNDqbETUTSUEXSZlTYhGBPToLVlOOyMNPzUGtE0ie0qUhaQJzVkVT973nEbqZc5s1o4+91mKdpvq/UbB5PeRs3k/KEq1N5W2r3mTGgqiwoi7SvYXriKSrfEKIsC8yQoCJp1o95WxzUKm9jvNAuAtiAL9PSQ3GEBET7/C4b0GYlrR9mR0jSO/mIXpdlKo9P4GWVjKuErGsq48t2WFpn2V7ulO7Do1oliL9j+ZHKFhyGaVVm+5ZNTYpNimOWHdUja3zpsM8TeLHo05WLtM2+CuVBfUH4OtqeneuLpVtBflnP37KCtH2P2VdDkbYlG715bd/5rgIcH0JbnKzd4ofQtj6kDQVpQ0HaUJA2FKQNBWlDQdpQkDYUpA0FaUNB2lCQNhR3Xqb8+uWMf5W2f88rvn48bQ+zfzVTfd/p5z/O+Vl+4em3WcUfH++fmSDOIW0oSBsK0oaCtKEgbShIGwrShoK0oSBtKEgbCtKGgrShIG0oSBsK0oaCtKEgbShIGwrShoK0oSBtKEgbCtKGgrShIG0oSBsK0oaCtKEgbShIGwrShoK0oSBtGP4P6KExB0SJzFIAAAAASUVORK5CYII=;" parent="1" vertex="1">
          <mxGeometry x="924" y="274" width="152.14" height="80" as="geometry" />
        </mxCell>
        <mxCell id="k_Tzoq2cm3bDXthg7v0j-62" value="Load" style="text;strokeColor=none;align=center;fillColor=none;html=1;verticalAlign=middle;whiteSpace=wrap;rounded=0;fontStyle=3;fontFamily=Comic Sans MS;fontSize=20;" parent="1" vertex="1">
          <mxGeometry x="510" y="323" width="60" height="39" as="geometry" />
        </mxCell>
        <mxCell id="k_Tzoq2cm3bDXthg7v0j-63" value="Transform" style="text;strokeColor=none;align=center;fillColor=none;html=1;verticalAlign=middle;whiteSpace=wrap;rounded=0;fontStyle=3;fontFamily=Comic Sans MS;fontSize=20;" parent="1" vertex="1">
          <mxGeometry x="760" y="320.5" width="60" height="39" as="geometry" />
        </mxCell>
        <mxCell id="k_Tzoq2cm3bDXthg7v0j-64" value="&lt;font style=&quot;font-size: 20px;&quot;&gt;Load result BQ&lt;/font&gt;" style="text;strokeColor=none;align=center;fillColor=none;html=1;verticalAlign=middle;whiteSpace=wrap;rounded=0;fontStyle=3;fontFamily=Comic Sans MS;fontSize=20;" parent="1" vertex="1">
          <mxGeometry x="1006" y="375.13" width="160" height="39" as="geometry" />
        </mxCell>
        <mxCell id="k_Tzoq2cm3bDXthg7v0j-65" value="Extract" style="text;strokeColor=none;align=center;fillColor=none;html=1;verticalAlign=middle;whiteSpace=wrap;rounded=0;fontStyle=3;fontFamily=Comic Sans MS;fontSize=20;" parent="1" vertex="1">
          <mxGeometry x="217.38000000000002" y="211" width="60" height="39" as="geometry" />
        </mxCell>
        <mxCell id="k_Tzoq2cm3bDXthg7v0j-66" value="1" style="text;strokeColor=none;align=center;fillColor=none;html=1;verticalAlign=middle;whiteSpace=wrap;rounded=0;fontStyle=3;fontFamily=Comic Sans MS;" parent="1" vertex="1">
          <mxGeometry x="155.5" y="220" width="60" height="30" as="geometry" />
        </mxCell>
        <mxCell id="k_Tzoq2cm3bDXthg7v0j-77" value="3" style="text;strokeColor=none;align=center;fillColor=none;html=1;verticalAlign=middle;whiteSpace=wrap;rounded=0;rotation=0;fontStyle=3;fontFamily=Comic Sans MS;" parent="1" vertex="1">
          <mxGeometry x="677.3399999999999" y="329.5000000000001" width="60" height="30" as="geometry" />
        </mxCell>
        <mxCell id="k_Tzoq2cm3bDXthg7v0j-80" value="2" style="text;html=1;align=center;verticalAlign=middle;resizable=0;points=[];autosize=1;strokeColor=none;fillColor=none;" parent="1" vertex="1">
          <mxGeometry x="477.5" y="334.5" width="30" height="30" as="geometry" />
        </mxCell>
        <mxCell id="k_Tzoq2cm3bDXthg7v0j-82" value="aggregate data" style="text;strokeColor=none;align=center;fillColor=none;html=1;verticalAlign=middle;whiteSpace=wrap;rounded=0;" parent="1" vertex="1">
          <mxGeometry x="901.65" y="471" width="60" height="30" as="geometry" />
        </mxCell>
        <mxCell id="k_Tzoq2cm3bDXthg7v0j-83" value="" style="endArrow=classic;html=1;rounded=0;" parent="1" edge="1">
          <mxGeometry width="50" height="50" relative="1" as="geometry">
            <mxPoint x="590" y="484.40999999999997" as="sourcePoint" />
            <mxPoint x="650" y="484" as="targetPoint" />
            <Array as="points" />
          </mxGeometry>
        </mxCell>
        <mxCell id="k_Tzoq2cm3bDXthg7v0j-88" value="" style="endArrow=classic;html=1;rounded=0;" parent="1" edge="1">
          <mxGeometry width="50" height="50" relative="1" as="geometry">
            <mxPoint x="974" y="484.38" as="sourcePoint" />
            <mxPoint x="1044" y="484.38" as="targetPoint" />
            <Array as="points" />
          </mxGeometry>
        </mxCell>
        <mxCell id="k_Tzoq2cm3bDXthg7v0j-94" value="Source" style="text;strokeColor=none;align=center;fillColor=none;html=1;verticalAlign=middle;whiteSpace=wrap;rounded=0;fontStyle=1;fontSize=18;perimeterSpacing=100;" parent="1" vertex="1">
          <mxGeometry x="18.340000000000003" y="121" width="101.66" height="60" as="geometry" />
        </mxCell>
        <mxCell id="k_Tzoq2cm3bDXthg7v0j-106" value="" style="endArrow=classic;html=1;rounded=0;exitX=0.872;exitY=1.009;exitDx=0;exitDy=0;exitPerimeter=0;" parent="1" edge="1">
          <mxGeometry width="50" height="50" relative="1" as="geometry">
            <mxPoint x="1091.12" y="598.88" as="sourcePoint" />
            <mxPoint x="1092" y="686" as="targetPoint" />
          </mxGeometry>
        </mxCell>
        <mxCell id="k_Tzoq2cm3bDXthg7v0j-108" value="Batch ELT Pipeline" style="text;strokeColor=none;align=center;fillColor=none;html=1;verticalAlign=middle;whiteSpace=wrap;rounded=0;fontStyle=5;fontSize=33;" parent="1" vertex="1">
          <mxGeometry x="440" y="40" width="522.5" height="30" as="geometry" />
        </mxCell>
        <mxCell id="649avOL_l6X9uFuXyK25-1" value="&lt;h2&gt;Ingestion&lt;/h2&gt;" style="text;html=1;align=center;verticalAlign=middle;whiteSpace=wrap;rounded=0;" parent="1" vertex="1">
          <mxGeometry x="210" y="136" width="60" height="30" as="geometry" />
        </mxCell>
        <mxCell id="XfJliDgJ8zAZ2nfbMrm6-1" value="&lt;font style=&quot;font-size: 10px;&quot;&gt;Data-Quality Check&lt;/font&gt;" style="text;html=1;align=center;verticalAlign=middle;whiteSpace=wrap;rounded=0;" parent="1" vertex="1">
          <mxGeometry x="745" y="465" width="77" height="36.59" as="geometry" />
        </mxCell>
        <mxCell id="XfJliDgJ8zAZ2nfbMrm6-5" style="edgeStyle=orthogonalEdgeStyle;rounded=0;orthogonalLoop=1;jettySize=auto;html=1;entryX=0.601;entryY=0.065;entryDx=0;entryDy=0;entryPerimeter=0;" parent="1" source="1LsLTrdkqBlk61Usvhi6-15" target="28UVXbpBZT2ZXDll-Aoi-1" edge="1">
          <mxGeometry relative="1" as="geometry" />
        </mxCell>
        <mxCell id="ZsuWYT1PU5P8F_C-RSMM-2" value="" style="shape=image;verticalLabelPosition=bottom;labelBackgroundColor=default;verticalAlign=top;aspect=fixed;imageAspect=0;image=https://miro.medium.com/v2/resize:fit:700/1*u75yVU5Pgi0OhX7RZ0kYQA.png;" parent="1" vertex="1">
          <mxGeometry x="1144.3" y="250.00000000000003" width="52.29" height="52.29" as="geometry" />
        </mxCell>
        <mxCell id="vQCGiSskf_cFzhMCQRL6-5" value="" style="endArrow=classic;html=1;rounded=0;" edge="1" parent="1">
          <mxGeometry width="50" height="50" relative="1" as="geometry">
            <mxPoint x="758" y="484.40999999999997" as="sourcePoint" />
            <mxPoint x="818" y="484" as="targetPoint" />
            <Array as="points">
              <mxPoint x="798" y="484" />
            </Array>
          </mxGeometry>
        </mxCell>
        <mxCell id="vQCGiSskf_cFzhMCQRL6-6" value="" style="endArrow=classic;html=1;rounded=0;" edge="1" parent="1">
          <mxGeometry width="50" height="50" relative="1" as="geometry">
            <mxPoint x="905" y="485.40999999999997" as="sourcePoint" />
            <mxPoint x="965" y="485" as="targetPoint" />
            <Array as="points">
              <mxPoint x="945" y="485" />
            </Array>
          </mxGeometry>
        </mxCell>
        <mxCell id="vQCGiSskf_cFzhMCQRL6-7" value="Enrich data" style="text;strokeColor=none;align=center;fillColor=none;html=1;verticalAlign=middle;whiteSpace=wrap;rounded=0;" vertex="1" parent="1">
          <mxGeometry x="832" y="533" width="60" height="30" as="geometry" />
        </mxCell>
        <mxCell id="vQCGiSskf_cFzhMCQRL6-8" value="Clean data" style="text;strokeColor=none;align=center;fillColor=none;html=1;verticalAlign=middle;whiteSpace=wrap;rounded=0;" vertex="1" parent="1">
          <mxGeometry x="680" y="529" width="60" height="30" as="geometry" />
        </mxCell>
      </root>
    </mxGraphModel>
  </diagram>
</mxfile>
